<svg width="30" height="407" viewBox="0 0 30 407" fill="none" xmlns="http://www.w3.org/2000/svg">
<rect width="30" height="172" rx="6" fill="#00A19A"/>
<rect y="202" width="5" height="5" fill="#00A19A"/>
<rect x="25" y="202" width="5" height="5" fill="#00A19A"/>
<rect y="227" width="5" height="5" fill="#00A19A"/>
<rect x="25" y="227" width="5" height="5" fill="#00A19A"/>
<rect y="252" width="5" height="5" fill="#00A19A"/>
<rect x="25" y="252" width="5" height="5" fill="#00A19A"/>
<rect y="277" width="5" height="5" fill="#00A19A"/>
<rect x="25" y="277" width="5" height="5" fill="#00A19A"/>
<rect y="302" width="5" height="5" fill="#00A19A"/>
<rect x="25" y="302" width="5" height="5" fill="#00A19A"/>
<rect y="327" width="5" height="5" fill="#00A19A"/>
<rect x="25" y="327" width="5" height="5" fill="#00A19A"/>
<rect y="352" width="5" height="5" fill="#00A19A"/>
<rect x="25" y="352" width="5" height="5" fill="#00A19A"/>
<rect y="377" width="5" height="5" fill="#00A19A"/>
<rect x="25" y="377" width="5" height="5" fill="#00A19A"/>
</svg>
