<svg width="80" height="80" viewBox="0 0 80 80" fill="none" xmlns="http://www.w3.org/2000/svg">
<path d="M79.6788 38.1566C79.4986 37.852 79.6821 37.2039 79.0135 37.2727C78.3728 37.3393 78.3247 37.8492 78.2756 38.3231C78.2625 38.4503 78.2444 38.5776 78.2209 38.7053C78.298 36.897 77.8386 34.9463 77.9342 32.9982C77.967 32.3108 77.7638 31.5814 77.4508 30.9295C77.0351 30.0625 76.8958 29.142 76.9248 28.1996C76.957 27.1623 76.7445 26.1686 76.5206 25.1646C76.0978 23.2624 75.0523 21.6321 74.2914 19.8784C72.8221 16.4972 70.9376 13.407 68.165 10.8933C66.913 9.75877 65.7468 8.5205 64.5342 7.33901C62.4761 5.33145 60.189 3.65422 57.3689 2.82979C56.0831 2.45362 54.836 2.37172 53.6108 3.03999C53.087 3.32663 52.5277 3.53683 51.8586 3.45057C52.4425 3.48278 52.9313 3.36976 53.1427 2.80468C53.3394 2.28054 53.069 1.89781 52.7719 1.47195C52.1022 0.508849 51.0911 0.379999 50.1008 0.393103C47.8121 0.422039 45.5426 0.245689 43.273 0H34.162C33.979 0.169252 33.7474 0.109195 33.5306 0.136494C31.5281 0.398016 29.4432 0.181264 27.5221 0.873015C25.7595 1.50471 24.0039 2.15278 22.1975 2.65999C20.9789 3.00177 19.8553 3.51226 18.888 4.35252C16.4939 6.42723 14.0441 8.44242 11.8171 10.6935C10.664 11.8586 9.22472 12.873 8.57635 14.3957C7.61063 16.6599 6.50617 18.8405 5.35363 21.0064C4.95544 21.7489 4.67522 22.5646 4.6206 23.424C4.60039 23.7745 4.6867 24.1693 5.09582 24.2495C5.16851 24.2656 5.24412 24.2625 5.31526 24.2406C5.38641 24.2187 5.45063 24.1787 5.50166 24.1245C4.86286 25.2842 4.29732 26.4828 3.80837 27.7132C3.95694 28.139 3.80837 28.5753 3.86299 28.9689C3.83404 29.5389 3.71496 30.0789 3.3479 30.5381C3.27252 30.3197 3.20643 30.1013 3.15454 29.8829C3.0288 30.008 2.87645 30.1032 2.70882 30.1613C2.17243 31.9631 1.78461 33.8025 1.606 35.6631C1.45251 37.2809 0.535943 38.6786 0.493884 40.3329C0.460856 41.5843 0.577296 42.8353 0.840736 44.0592C0.759561 43.9952 0.656882 43.9649 0.553968 43.9745C0.232243 43.9925 0.119721 44.2475 0.0377873 44.5107C-0.0441463 44.7738 0.0317788 45.0375 0.0377873 45.3018C0.133923 48.9451 1.37057 52.3416 2.43735 55.7485C3.24521 58.3293 4.43816 60.8299 5.78461 63.1634C7.39433 65.9539 9.91296 68.069 12.312 70.2114C13.2083 71.0118 14.2145 71.6855 15.1185 72.4887C15.7089 73.0128 16.3043 71.9776 16.9052 72.4264C17.4383 72.8244 17.1133 73.6647 17.843 74.0605C20.0372 75.2529 22.1314 76.6315 24.4409 77.6094C25.0144 77.8529 25.6087 78.1635 26.2434 78.0259C27.8985 77.6694 29.4519 78.1215 30.9737 78.6232C33.2099 79.3619 35.414 79.4559 37.6464 78.6707C38.1167 78.507 38.6787 78.3606 39.0911 78.5943C41.0029 79.6803 42.841 79.3636 44.6894 78.4693C44.7674 78.4283 44.8539 78.4059 44.942 78.4038C45.0301 78.4018 45.1175 78.42 45.1974 78.4573C44.986 78.8657 44.2688 79.0835 44.5419 79.6393C44.7937 80.1465 45.4159 79.9571 45.8943 79.9669C47.6461 80.0067 49.4104 80.0482 51.1457 79.8484C52.7254 79.6682 54.5323 79.8659 55.5221 78.0942C55.6433 77.8758 55.9503 77.7835 56.1836 77.6503C58.8601 76.1276 61.4584 74.476 64.1999 73.0565C65.9763 72.1365 67.5008 70.7852 68.9723 69.4154C69.6228 68.8104 69.9937 68.0035 69.3913 67.2773C68.7156 66.4649 67.9356 67.2003 67.4358 67.6207C66.0434 68.7902 64.691 69.9985 63.2397 70.7732C63.6188 69.8303 64.2267 68.7951 65.1733 68.0641C67.167 66.5239 68.8259 64.649 70.4831 62.7878C71.7187 61.3999 73.2503 60.2135 73.9702 58.42C74.3581 57.4508 74.9316 56.6373 75.569 55.8178C76.5724 54.5282 77.8828 53.3811 78.1975 51.6788C78.806 48.3844 79.6723 45.1358 80 41.7906V38.8424C79.8826 38.6174 79.7941 38.351 79.6788 38.1566ZM1.04011 44.8716C1.06796 44.9808 1.0991 45.0829 1.13023 45.1871C1.09004 45.0851 1.05985 44.9794 1.04011 44.8716ZM28.8997 7.38924C27.5806 8.68538 26.0528 8.96711 24.6337 9.47596C25.7835 8.45225 27.0584 7.65567 28.8997 7.38924ZM11.6609 17.083C11.9679 16.1549 12.4431 15.3184 13.3159 14.9024C14.3341 14.4176 15.2823 13.8274 16.1967 13.2143C14.4564 14.47 12.7124 15.7334 11.4905 17.5427C11.5522 17.3953 11.6117 17.2414 11.6609 17.083ZM10.9131 18.5173C10.7279 18.8591 10.4018 19.3013 9.82885 19.2953C10.2514 19.1336 10.6245 18.8657 10.9131 18.5173ZM8.22076 19.8473C7.87664 20.1378 7.59534 20.5167 7.34189 20.9251C7.58168 20.5096 7.8537 20.1208 8.22076 19.8473ZM16.1416 27.9529C15.9449 27.1492 16.259 26.7768 16.8882 26.4411C17.0472 27.1765 16.7222 27.5407 16.1416 27.9529ZM13.1832 36.3724C12.9396 35.7041 13.3154 35.1712 13.476 34.4134C14.0364 35.2389 13.866 35.8542 13.606 36.4422C13.535 36.6039 13.2509 36.5525 13.1832 36.3724ZM15.5997 59.929C14.6001 59.2668 13.8463 58.4249 13.3962 56.9808C14.7159 57.7904 15.2419 58.7978 15.5997 59.929ZM22.9956 75.2256C22.493 75.1754 22.1866 74.8746 22.1473 74.3646C22.126 74.0916 22.2265 73.7553 22.5553 73.84C23.0054 73.9562 23.2419 74.3575 23.3522 74.7195C23.3894 75.0771 23.2545 75.2513 22.9928 75.2256H22.9956ZM28.5545 74.9581C26.6973 74.0332 24.7309 73.508 22.7399 73.0281C21.4785 72.7351 20.3257 72.0916 19.4145 71.1718C18.1249 69.8909 16.4616 69.0184 15.3009 67.5749C15.0584 67.2729 14.6454 67.0939 14.617 66.5468C16.3256 66.157 17.5361 67.0114 18.5307 68.182C19.3594 69.1588 20.3382 69.7058 21.5781 69.9324C22.9213 70.1775 24.1088 70.7099 24.9571 71.887C25.9375 73.2459 27.4358 73.5064 28.9887 73.6554C29.4219 73.6974 30.4542 73.3278 29.9752 74.5492C29.896 74.7517 30.2625 74.9532 30.5531 75.0002C30.9743 75.0684 31.4085 75.1295 31.8755 75.8355C30.5575 75.503 29.4639 75.4118 28.5518 74.9581H28.5545ZM33.0199 70.4767C35.9148 70.046 38.7552 70.7213 41.6354 70.8726C38.6503 72.6464 35.8646 71.1095 33.0144 70.4762L33.0199 70.4767ZM54.3422 7.95432C53.5666 7.98217 52.9991 7.84513 52.4851 7.45639C53.1526 7.08458 53.7359 7.13754 54.3422 7.95432ZM50.6416 6.11875C48.4703 6.82197 48.4512 6.81978 47.3566 5.79881C48.4392 5.46631 49.3689 5.73984 50.6416 6.11875ZM45.784 70.432C49.3825 69.9744 52.8778 69.1948 56.0306 67.238C55.0835 69.3493 48.1546 71.4513 45.784 70.432ZM64.2431 10.985C65.3656 11.4158 65.7097 12.2697 66.1308 13.0532C65.1635 12.7605 64.4867 12.2075 64.2431 10.985Z" fill="#FAFAFA"/>
<g clip-path="url(#clip0_508_3490)">
<path d="M20 49.2921C20.1827 48.5187 20.412 47.7681 20.896 47.1161C21.6137 46.1376 22.6689 45.4601 23.8573 45.2147C23.0827 44.1294 22.8253 42.9654 23.1907 41.6974C23.4332 40.8506 23.9649 40.1155 24.6933 39.6201C25.4094 39.1203 26.2736 38.8777 27.1452 38.9317C28.0167 38.9857 28.8444 39.3331 29.4933 39.9174C30.9827 41.2734 31.152 43.1081 29.9853 45.1881C30.3784 45.3133 30.7639 45.4611 31.14 45.6307C32.8467 46.5187 33.7453 47.9427 33.8067 49.8614C33.8453 51.1241 33.82 52.3881 33.8067 53.6507C33.8067 54.2054 33.4067 54.5307 32.956 54.3574C32.648 54.2361 32.556 53.9827 32.556 53.6667C32.556 52.4427 32.5667 51.2187 32.556 49.9947C32.54 48.1574 31.3813 46.7281 29.6133 46.4521C29.0616 46.3862 28.5028 46.4132 27.96 46.5321C27.2469 46.6822 26.5096 46.674 25.8 46.5081C23.2427 45.8747 21.2867 47.7147 21.2533 49.8027C21.2333 51.0534 21.2427 52.3027 21.2533 53.5534C21.2533 53.9014 21.212 54.2201 20.844 54.3534C20.476 54.4867 20.1987 54.2894 20 53.9774V49.2921ZM26.9 45.4094C27.4184 45.4105 27.9256 45.2578 28.3572 44.9706C28.7889 44.6834 29.1257 44.2747 29.3251 43.7961C29.5245 43.3176 29.5774 42.7906 29.4773 42.2819C29.3772 41.7732 29.1285 41.3056 28.7627 40.9383C28.3968 40.5709 27.9302 40.3203 27.422 40.2182C26.9137 40.116 26.3865 40.1668 25.9071 40.3642C25.4277 40.5617 25.0177 40.8968 24.7287 41.3273C24.4398 41.7578 24.2851 42.2643 24.284 42.7827C24.2829 43.1271 24.3498 43.4682 24.4808 43.7867C24.6117 44.1052 24.8042 44.3947 25.0472 44.6387C25.2902 44.8826 25.5789 45.0763 25.8968 45.2085C26.2148 45.3408 26.5557 45.4091 26.9 45.4094Z" fill="#00A19A"/>
<path d="M60 53.9799C59.8 54.2892 59.54 54.4946 59.156 54.3559C58.772 54.2172 58.744 53.9026 58.7466 53.5559C58.7546 52.3706 58.7466 51.1866 58.7466 50.0012C58.7386 47.9106 57.244 46.4012 55.1546 46.4012C54.8063 46.407 54.4597 46.4517 54.1213 46.5346C53.4359 46.6998 52.7204 46.6947 52.0373 46.5199C49.504 45.8652 47.4493 47.6639 47.44 49.9172C47.44 51.1546 47.44 52.3919 47.432 53.6292C47.4363 53.8212 47.3844 54.0103 47.2826 54.1732C47.004 54.5519 46.4093 54.4399 46.2426 53.9972C46.2201 53.9499 46.2065 53.8988 46.2026 53.8466C46.232 52.2079 46.104 50.5479 46.336 48.9386C46.6146 47.0266 47.9053 45.8319 49.7706 45.2932C49.8333 45.2759 49.896 45.2572 49.9573 45.2346C49.9784 45.2232 49.9977 45.2088 50.0146 45.1919C48.4866 42.9652 49.412 40.8092 50.6226 39.8146C51.3236 39.2413 52.202 38.9295 53.1075 38.9324C54.013 38.9353 54.8894 39.2528 55.5866 39.8306C56.8586 40.8972 57.6386 43.0652 56.1546 45.2159C56.3 45.2546 56.4346 45.2826 56.564 45.3266C58.4 45.9359 59.5333 47.1746 59.9226 49.0786C59.9425 49.1516 59.967 49.2233 59.996 49.2932L60 53.9799ZM55.7173 42.7879C55.7176 42.2691 55.564 41.7619 55.276 41.3304C54.9879 40.899 54.5784 40.5626 54.0992 40.3639C53.62 40.1652 53.0926 40.1131 52.5838 40.2141C52.075 40.3152 51.6075 40.5648 51.2406 40.9316C50.8737 41.2983 50.6238 41.7656 50.5225 42.2744C50.4212 42.7832 50.473 43.3106 50.6715 43.7899C50.87 44.2692 51.2061 44.6789 51.6374 44.9671C52.0688 45.2554 52.5759 45.4092 53.0946 45.4092C53.439 45.4094 53.78 45.3417 54.0982 45.2101C54.4164 45.0784 54.7055 44.8854 54.9491 44.6419C55.1926 44.3985 55.3858 44.1095 55.5176 43.7913C55.6495 43.4732 55.7173 43.1322 55.7173 42.7879Z" fill="#00A19A"/>
<path d="M36.9333 26.78C35.456 24.6587 36.236 22.456 37.5347 21.388C38.2319 20.8213 39.1029 20.512 40.0013 20.512C40.8998 20.512 41.7708 20.8213 42.468 21.388C43.7547 22.4427 44.5573 24.6427 43.064 26.788C43.244 26.8414 43.416 26.8907 43.5867 26.9454C44.5199 27.2345 45.3394 27.8082 45.9304 28.5861C46.5215 29.3641 46.8544 30.3074 46.8827 31.284C46.9173 32.6173 46.8973 33.94 46.8933 35.268C46.8933 35.7067 46.6493 35.976 46.2853 35.98C45.9213 35.984 45.6533 35.7013 45.6507 35.244C45.6427 34.044 45.6053 32.844 45.6507 31.652C45.732 29.7853 44.3 27.7174 41.504 27.9734C41.12 28.008 40.7467 28.192 40.364 28.2067C39.8852 28.2349 39.4049 28.1949 38.9373 28.088C36.2533 27.4094 34.296 29.448 34.3453 31.4933C34.3747 32.7173 34.36 33.9413 34.3453 35.1653C34.3453 35.3813 34.2733 35.6613 34.1267 35.7933C34.0346 35.8554 33.9309 35.8982 33.8218 35.9191C33.7127 35.9399 33.6005 35.9384 33.492 35.9147C33.2107 35.8573 33.1053 35.596 33.1053 35.308C33.1053 34.3453 33.096 33.3813 33.1053 32.4173C33.1053 31.82 33.076 31.208 33.1893 30.628C33.5707 28.6734 34.7667 27.428 36.672 26.868C36.76 26.8414 36.844 26.8094 36.9333 26.78ZM39.9867 21.752C39.4686 21.7562 38.9633 21.9138 38.5346 22.2049C38.106 22.496 37.7732 22.9075 37.5782 23.3876C37.3832 23.8676 37.3347 24.3947 37.439 24.9022C37.5432 25.4098 37.7955 25.8751 38.1639 26.2394C38.5323 26.6038 39.0004 26.8508 39.5091 26.9494C40.0178 27.0479 40.5442 26.9936 41.0221 26.7933C41.4999 26.5929 41.9077 26.2556 42.194 25.8237C42.4803 25.3918 42.6322 24.8848 42.6307 24.3667C42.6257 23.6694 42.3445 23.0026 41.8486 22.5125C41.3527 22.0223 40.6826 21.7488 39.9853 21.752H39.9867Z" fill="#00A19A"/>
<path d="M39.808 59.4892C36.952 59.4656 34.1458 58.7389 31.6373 57.3732C31.3707 57.2292 31.1573 57.0599 31.168 56.7226C31.1827 56.2332 31.644 56.0039 32.1387 56.2252C33.016 56.6159 33.872 57.0692 34.7813 57.3679C39.1973 58.8186 43.4795 58.4781 47.628 56.3466C48.212 56.0466 48.5773 56.0799 48.772 56.4692C48.9667 56.8586 48.7987 57.1466 48.22 57.4519C45.652 58.7999 42.916 59.4759 39.808 59.4892Z" fill="#00A19A"/>
<path d="M33.2 26.7614C33.1867 27.0467 32.9787 27.2147 32.7054 27.3534C30.6857 28.3637 28.8969 29.7809 27.4513 31.5158C26.0057 33.2507 24.9347 35.2659 24.3054 37.4347C24.2799 37.5489 24.2437 37.6605 24.1974 37.768C24.1409 37.9024 24.0364 38.0109 23.9043 38.0723C23.7721 38.1337 23.6218 38.1436 23.4827 38.1C23.1694 38.0147 22.9854 37.784 23.0347 37.4587C23.0893 37.1408 23.1723 36.8284 23.2827 36.5254C24.8391 31.9085 27.78 28.4849 32.1054 26.2547C32.2071 26.1962 32.3148 26.1488 32.4267 26.1134C32.522 26.0914 32.6211 26.0918 32.7162 26.1146C32.8113 26.1374 32.8998 26.1819 32.9747 26.2447C33.0497 26.3076 33.1091 26.3869 33.1482 26.4766C33.1872 26.5662 33.205 26.6637 33.2 26.7614Z" fill="#00A19A"/>
<path d="M56.9734 37.4946C56.9804 37.6395 56.9342 37.7818 56.8436 37.895C56.753 38.0082 56.6242 38.0844 56.4814 38.1093C56.1667 38.1853 55.884 38.008 55.7614 37.6613C55.5307 37.0133 55.3427 36.348 55.0774 35.7133C53.5227 32 50.9334 29.2386 47.3694 27.3893C47.3107 27.36 47.252 27.332 47.196 27.3C46.8347 27.096 46.7107 26.7786 46.8627 26.4573C46.8974 26.3758 46.9497 26.3029 47.0157 26.2439C47.0818 26.1848 47.16 26.141 47.2449 26.1155C47.3297 26.0901 47.4192 26.0836 47.5068 26.0966C47.5944 26.1096 47.6782 26.1417 47.752 26.1906C48.5236 26.5925 49.274 27.034 50 27.5133C53.4169 29.9017 55.7142 33.1017 56.892 37.1133C56.9178 37.2022 56.9405 37.2911 56.96 37.38C56.9664 37.4179 56.9708 37.4562 56.9734 37.4946Z" fill="#00A19A"/>
<path d="M36.8146 33.9639C36.8146 34.4066 36.8146 34.8479 36.8146 35.2892C36.8066 35.7026 36.576 35.9559 36.224 35.9772C35.872 35.9986 35.5786 35.7226 35.5733 35.3106C35.5586 34.4146 35.56 33.5186 35.5733 32.6226C35.5733 32.1879 35.84 31.9359 36.2106 31.9412C36.5813 31.9466 36.8093 32.1986 36.816 32.6466C36.8226 33.0946 36.816 33.5226 36.8146 33.9639Z" fill="#00A19A"/>
<path d="M43.1853 33.9319C43.1853 33.4892 43.1773 33.0479 43.1853 32.6066C43.1947 32.1892 43.4227 31.9399 43.784 31.9399C43.8692 31.934 43.9547 31.9464 44.0347 31.9763C44.1148 32.0061 44.1875 32.0527 44.2481 32.1129C44.3087 32.1731 44.3557 32.2455 44.386 32.3254C44.4164 32.4052 44.4293 32.4906 44.424 32.5759C44.4409 33.4968 44.4409 34.419 44.424 35.3426C44.427 35.4278 44.4124 35.5127 44.381 35.5919C44.3497 35.6712 44.3023 35.7432 44.2418 35.8032C44.1813 35.8633 44.1091 35.9103 44.0296 35.9411C43.9502 35.972 43.8652 35.9861 43.78 35.9826C43.428 35.9706 43.1933 35.7159 43.1853 35.2999C43.1773 34.8412 43.1853 34.3866 43.1853 33.9319Z" fill="#00A19A"/>
<path d="M57.5187 52.372C57.5187 52.8266 57.5267 53.2813 57.5187 53.736C57.5093 54.1453 57.2693 54.3933 56.9067 54.3933C56.544 54.3933 56.2867 54.1506 56.28 53.7426C56.264 52.8333 56.2653 51.924 56.28 51.0146C56.2867 50.6053 56.5467 50.3586 56.9013 50.356C57.256 50.3533 57.5133 50.6106 57.5213 51.0466C57.5293 51.4826 57.52 51.9306 57.5187 52.372Z" fill="#00A19A"/>
<path d="M22.4827 52.3613C22.4827 51.92 22.4827 51.4773 22.4827 51.036C22.4907 50.6213 22.7173 50.3693 23.0747 50.356C23.432 50.3426 23.7187 50.5986 23.724 51.0226C23.7373 51.9186 23.7373 52.8151 23.724 53.712C23.7173 54.144 23.4573 54.3986 23.0827 54.392C22.708 54.3853 22.4867 54.1253 22.48 53.684C22.4733 53.2426 22.4827 52.8 22.4827 52.3613Z" fill="#00A19A"/>
<path d="M31.3333 52.3893C31.3333 52.8306 31.3333 53.2719 31.3333 53.7146C31.3333 54.1573 31.0667 54.3999 30.692 54.3999C30.3173 54.3999 30.0867 54.1333 30.0827 53.7333C30.0729 52.8364 30.0729 51.9395 30.0827 51.0426C30.0827 50.6199 30.3493 50.3559 30.7187 50.3639C31.088 50.3719 31.3186 50.6306 31.3266 51.0306C31.3333 51.4799 31.3333 51.9346 31.3333 52.3893Z" fill="#00A19A"/>
<path d="M48.6667 52.3627C48.6667 51.92 48.6667 51.4787 48.6667 51.0374C48.6667 50.596 48.9334 50.3494 49.3027 50.3574C49.672 50.3654 49.9067 50.624 49.9107 51.024C49.9187 51.9209 49.9187 52.8178 49.9107 53.7147C49.9107 54.1414 49.652 54.4 49.276 54.3934C48.9 54.3867 48.6747 54.1334 48.6667 53.7267C48.6667 53.272 48.6667 52.8174 48.6667 52.3627Z" fill="#00A19A"/>
</g>
<defs>
<clipPath id="clip0_508_3490">
<rect width="40" height="40" fill="white" transform="translate(20 20)"/>
</clipPath>
</defs>
</svg>
