<svg width="105" height="87" viewBox="0 0 105 87" fill="none" xmlns="http://www.w3.org/2000/svg">
<path fill-rule="evenodd" clip-rule="evenodd" d="M0.00352467 9.63366C0.0423156 9.9174 0.159554 11.4038 0.274257 12.9354C0.724076 18.8972 1.18417 22.3984 1.61757 23.123C1.94961 23.7046 2.53744 23.9508 3.39762 23.892C4.3859 23.8244 5.03531 23.2972 5.45996 22.2262C5.82034 21.3263 5.87221 21.0511 7.02369 15.7946C7.44012 13.8946 7.82384 12.2529 7.88553 12.1283C7.94724 12.0031 8.3977 13.0741 8.91927 14.5026C11.3155 21.1917 15.1218 27.1201 20.3895 32.3448C22.4459 34.3627 27.4382 38.3231 29.7457 39.7653C34.7854 42.8772 40.5648 45.1536 47.4064 46.6931C48.7378 47.0096 49.833 47.3121 49.8296 47.3727C49.8253 47.4484 49.648 48.336 49.4638 49.3449C48.3047 55.3866 50.0187 61.5638 54.4127 67.0897C58.9421 72.8026 64.3896 76.4451 75.0262 80.8647C85.644 85.2856 94.6819 87.0069 100.607 85.711C103.319 85.133 104.587 84.3066 104.693 83.0616C104.759 82.2118 104.414 82.175 103.896 82.9651C103.397 83.7389 102.944 84.0265 101.669 84.3251C95.1643 85.872 83.6738 83.0354 70.8834 76.7103C64.1768 73.4105 60.2067 70.4066 56.7156 66.0114C52.6788 60.944 51.0406 55.3654 51.9695 49.8527C52.3825 47.364 52.1701 47.5748 54.1471 47.7565C61.8914 48.4796 69.8537 46.9386 73.6835 43.9897C78.3349 40.3658 77.8143 34.6956 72.6712 33.1002C70.3953 32.3956 66.8282 32.6094 63.8733 33.6116C59.2074 35.2138 55.7627 37.4722 53.2545 40.5873C52.3723 41.6891 51.0255 43.9247 51.0034 44.3187C50.9848 44.6521 50.5664 44.6354 48.7834 44.2442C44.1198 43.2046 39.1265 41.5387 35.7563 39.8673C30.2211 37.1365 24.0031 32.2788 20.0182 27.5853C16.5982 23.5475 13.8476 18.9506 12.1344 14.3882C11.3557 12.3434 10.2771 8.49252 10.4311 8.34618C10.4877 8.31206 11.1802 8.64247 11.9949 9.06943C16.2054 11.3628 20.0656 12.4271 23.897 12.3761C26.014 12.3368 26.6955 12.2149 26.4588 11.8842C26.4081 11.8117 25.4811 11.4375 24.4093 11.0429C21.549 10.0312 16.1823 6.89659 9.42068 2.30246C8.08584 1.39749 6.58543 0.518663 5.99506 0.317709C3.67108 -0.504783 1.63884 0.29844 0.738066 2.38288C0.46618 3.00517 0.326256 3.87523 0.180568 6.14936C0.0530785 7.7735 -0.016929 9.34801 0.00352467 9.63366ZM4.09732 4.25117C4.17306 4.20094 4.63191 4.47138 5.12056 4.8608L6.01064 5.56965L5.28656 8.07964C4.899 9.46478 4.50807 10.91 4.4319 11.293C4.23794 12.1513 3.93793 12.6249 3.93193 12.0815C3.94381 11.8696 3.87261 10.8627 3.80308 9.82617C3.66706 8.0244 3.84835 4.4645 4.09732 4.25117ZM54.4487 43.0263C56.467 39.8693 59.6406 37.5692 64.0277 36.0615C69.4001 34.2146 73.7607 35.456 73.6096 38.8022C73.5294 40.5587 72.1268 42.1641 69.7524 43.2171C67.5086 44.2159 65.2546 44.7475 61.7914 45.0599C58.8223 45.3385 57.345 45.349 54.4945 45.1364L53.3692 45.0474L53.6385 44.4705C53.7844 44.1436 54.1487 43.4997 54.4487 43.0263Z" fill="#00A19A"/>
</svg>
