<svg width="54" height="43" viewBox="0 0 54 43" fill="none" xmlns="http://www.w3.org/2000/svg">
<path d="M53.9521 22.4882C53.9352 22.4751 53.9153 22.4661 53.894 22.4621C53.8727 22.458 53.8506 22.4591 53.8299 22.4651C53.7828 22.479 53.7396 22.4911 53.6988 22.5025L53.6789 22.5081C53.5785 22.5363 53.4918 22.5604 53.4058 22.5936C52.048 23.1113 50.979 23.9985 50.1377 25.3054C49.9299 25.6284 49.769 25.964 49.6408 26.2988C49.851 25.1728 49.8997 24.7341 49.937 23.4742C49.9387 23.4213 49.9387 23.3675 49.9387 23.3141C49.9387 23.1684 49.9387 23.0307 49.9719 22.9051C50.0117 22.7562 50.0917 22.6077 50.1691 22.464C50.1909 22.4234 50.2127 22.3827 50.2307 22.347C50.2404 22.3379 50.2521 22.3311 50.2649 22.327C50.6532 22.2701 50.9966 22.1119 51.3149 21.8434C51.6357 21.5715 51.8995 21.2387 52.0992 20.8539C52.8157 19.4748 53.1742 17.9505 53.1652 16.3239C53.1643 16.167 53.1451 16.0142 53.124 15.848C53.1139 15.7717 53.1047 15.6952 53.0965 15.6186C53.0943 15.5974 53.0864 15.577 53.0738 15.5594C53.0611 15.5419 53.0439 15.5277 53.024 15.5182C53.0039 15.5089 52.9817 15.5046 52.9594 15.5057C52.9371 15.5067 52.9154 15.5131 52.8964 15.5243C52.8721 15.5389 52.8514 15.5507 52.8326 15.5612C52.7962 15.582 52.7685 15.5982 52.7422 15.6164C52.131 16.0369 51.5919 16.5604 51.1397 17.172C50.4017 18.1716 49.9726 19.3019 49.857 20.5454L49.8222 20.1295L49.8181 20.0793C49.7728 19.5359 49.726 18.9739 49.6878 18.4213C49.6782 18.2814 49.6502 18.1453 49.6231 18.0135C49.5708 17.7604 49.5214 17.5212 49.6005 17.2706C49.6185 17.214 49.6336 17.157 49.6488 17.1001C49.6862 16.9591 49.8666 16.742 50.1436 16.5047L50.1541 16.4957C50.2562 16.4126 50.7811 15.9517 51.0789 15.04C51.3811 14.1138 51.3583 13.146 51.3416 12.4394L51.3412 12.4205C51.319 11.4491 51.2096 10.7171 50.9866 10.0467C50.9562 9.95933 50.9231 9.87291 50.8872 9.78751C50.8684 9.74127 50.8492 9.69346 50.8294 9.64345C50.8215 9.62273 50.808 9.60438 50.7903 9.59027C50.7726 9.57615 50.7513 9.56676 50.7286 9.56304L50.7063 9.56109C50.6868 9.5611 50.6676 9.56526 50.6501 9.57328C50.6325 9.58131 50.617 9.59298 50.6048 9.60746L50.3881 9.86091C49.3491 11.0771 48.8387 12.5034 48.8707 14.1004C48.8768 14.3906 48.899 14.6802 48.937 14.9681C48.6769 14.1042 48.3678 13.2545 48.0111 12.423C48.0036 12.4041 47.9993 12.3842 47.9985 12.364L47.9961 12.252C47.9924 12.0904 47.9886 11.9233 47.9958 11.7588C47.9969 11.7315 48.0153 11.6825 48.0536 11.6344C48.108 11.5654 48.1684 11.498 48.2309 11.4278C48.3374 11.3088 48.4474 11.1859 48.5346 11.0456C48.8153 10.5943 48.9472 10.0612 48.9493 9.36766C48.9531 8.55122 48.822 7.69204 48.5361 6.66359C48.3799 6.10253 48.1441 5.37364 47.7051 4.71282C47.6741 4.668 47.6413 4.62445 47.6065 4.58227C47.5896 4.56154 47.5729 4.54054 47.5567 4.51927C47.5318 4.48718 47.4974 4.46847 47.4419 4.46847C47.4201 4.47004 47.399 4.47678 47.3805 4.48809C47.362 4.4994 47.3468 4.51493 47.3361 4.5333C46.785 5.48796 46.5105 6.50783 46.4975 7.65125C46.4869 8.4701 46.601 9.28606 46.836 10.0733C46.3427 9.20795 45.7946 8.37244 45.1948 7.57148L45.1811 7.55343C45.1675 7.53615 45.1619 7.52771 45.1628 7.53368C45.1309 7.3201 45.1037 7.10588 45.0813 6.89118C45.0817 6.88845 45.0853 6.87338 45.1131 6.82869C45.1525 6.76426 45.1957 6.70113 45.2416 6.63436C45.3336 6.50004 45.4286 6.36104 45.4895 6.20542C45.6733 5.73568 45.7146 5.20295 45.6154 4.57733C45.3976 3.19269 44.7616 1.94587 43.6715 0.765438C43.5593 0.644237 43.4354 0.537067 43.3042 0.423791L43.2679 0.392224C43.2166 0.347667 43.164 0.302071 43.1108 0.253877C43.0939 0.238474 43.073 0.227655 43.0503 0.222521C43.0276 0.217386 43.0038 0.218121 42.9815 0.224649C42.9596 0.231367 42.9398 0.243448 42.9242 0.259708C42.9085 0.275967 42.8976 0.295847 42.8923 0.317399L42.8685 0.417685C42.8523 0.484196 42.8397 0.536677 42.8303 0.589418C42.6836 1.4299 42.6943 2.33013 42.8632 3.34182C43.0308 4.34519 43.3647 5.21061 43.877 5.96237C43.1088 5.09357 42.3615 4.36403 41.5805 3.7175C41.5764 3.71094 41.5733 3.70379 41.5715 3.69633C41.6325 3.19165 41.5028 2.7162 41.1748 2.24283C40.7439 1.62072 40.1453 1.14658 39.3955 0.833767C38.9468 0.646966 38.4819 0.481598 38.0267 0.319608C37.8086 0.241926 37.5906 0.164503 37.3661 0.0814944C37.1404 -0.00463174 37.0439 -0.0199604 36.9915 0.0265451C36.9241 0.0868204 36.9404 0.138263 36.9698 0.231793L36.9792 0.26232C37.2544 1.1519 37.6196 1.85546 38.0959 2.41314C38.9702 3.43795 39.9928 3.9586 41.2204 4.00459C41.2634 4.00706 41.2975 4.01849 41.3115 4.02888C41.4843 4.15307 41.6115 4.25244 41.724 4.35091C42.0866 4.66956 42.4364 5.00131 42.7727 5.34545C42.263 5.04148 41.64 4.9043 40.9383 4.93833C40.5543 4.95691 40.1732 5.01095 39.8046 5.06317L39.7906 5.06525C39.6816 5.08058 39.5732 5.09578 39.465 5.11046C39.2282 5.14125 38.9894 5.18152 38.7786 5.21685C38.6931 5.23153 38.4892 5.27608 38.4422 5.37104C38.426 5.40352 38.4273 5.43911 38.4457 5.47146C38.462 5.49965 38.4798 5.52615 38.4993 5.55031C39.108 6.3083 39.8023 6.80752 40.622 7.07629C41.6214 7.40573 42.5393 7.37858 43.3642 6.99107C43.4903 6.92443 43.6424 6.89066 43.8162 6.89066C43.9474 6.89066 44.0458 6.91053 44.0784 6.91768C44.1273 6.92547 44.1936 6.95171 44.2071 6.9686C44.7307 7.63103 45.2162 8.32037 45.6616 9.03355C45.2775 8.67502 44.7765 8.43326 44.0941 8.27582C43.496 8.13903 42.8845 8.10967 42.2933 8.0811L42.0953 8.07148C41.9098 8.06239 41.7244 8.05109 41.5334 8.03953L41.2132 8.02056C41.1928 8.02057 41.1726 8.02521 41.1544 8.0341C41.1361 8.043 41.1204 8.05589 41.1083 8.07174C41.0952 8.08863 41.0868 8.1084 41.0838 8.12924C41.0807 8.15008 41.0832 8.17132 41.091 8.19099C41.1038 8.22451 41.1273 8.28362 41.1393 8.30336C41.7629 9.3044 42.4951 9.99679 43.3776 10.4203C44.2403 10.8339 45.0197 10.9433 45.806 10.7628C45.9061 10.7408 46.0086 10.73 46.1113 10.7306C46.4458 10.7306 46.679 10.8286 46.728 10.9192C47.1635 11.7825 47.5479 12.6686 47.8795 13.5734C47.5303 13.1114 47.042 12.7361 46.4237 12.4553C45.8095 12.1771 45.17 11.9227 44.5407 11.6724C44.2703 11.5651 43.9988 11.4574 43.7285 11.3473C43.7085 11.3388 43.6867 11.3353 43.665 11.337C43.6432 11.3388 43.6223 11.3457 43.604 11.3571C43.5857 11.3686 43.5707 11.3842 43.5604 11.4026C43.55 11.4211 43.5446 11.4417 43.5446 11.4626C43.5446 11.5437 44.4419 13.934 45.7452 14.876C46.2769 15.2602 46.9317 15.6555 47.7574 15.6741C48.0046 15.6789 48.2601 15.7124 48.4531 15.923C48.4826 15.9565 48.5218 15.9826 48.5644 15.9965C48.6303 16.0173 48.6484 16.056 48.6809 16.188C48.9508 17.28 49.1452 18.3879 49.2631 19.5044C49.2258 19.3871 49.1835 19.2713 49.1364 19.1573C48.8447 18.4474 48.3538 17.8262 47.5915 17.2023C47.1986 16.8793 46.7871 16.5667 46.3892 16.2641L46.3703 16.2498C46.189 16.112 46.0082 15.9747 45.8279 15.8357C45.7889 15.8053 45.7504 15.7743 45.7123 15.7428L45.5998 15.6503C45.58 15.6346 45.5559 15.6247 45.5304 15.6218C45.5048 15.6189 45.479 15.6231 45.4558 15.6338C45.4327 15.645 45.4136 15.6625 45.4008 15.6841C45.388 15.7057 45.3822 15.7304 45.384 15.7552C45.3895 15.8314 45.394 15.9035 45.3982 15.9727L45.4003 16.0051C45.4093 16.1476 45.4177 16.282 45.4327 16.4148C45.5737 17.7075 45.9742 18.7867 46.6571 19.7141C47.0798 20.2874 47.6861 20.9881 48.6317 21.3195C48.8618 21.4005 49.0286 21.5233 49.2074 21.7436C49.3761 21.9499 49.4075 22.1384 49.4037 22.3756C49.3882 23.3603 49.3147 24.3434 49.1837 25.3202C49.1533 25.0516 49.0889 24.775 48.9899 24.4877C48.7851 23.8927 48.466 23.3143 48.0141 22.7193C47.624 22.2041 47.2181 21.6871 46.8256 21.1868L46.7994 21.1534C46.6438 20.9553 46.4883 20.757 46.3368 20.5629C46.3084 20.523 46.2674 20.5087 46.2437 20.5008C46.2268 20.493 46.2083 20.4887 46.1895 20.4882C46.1708 20.4878 46.1521 20.4912 46.1348 20.4982C46.1175 20.5053 46.102 20.5158 46.0892 20.529C46.0765 20.5423 46.0669 20.558 46.061 20.5751L46.0564 20.5886C46.0499 20.6068 46.0447 20.6229 46.042 20.639C45.7713 22.1883 45.9374 23.5763 46.5496 24.8828C46.8486 25.5217 47.2496 26.245 47.9567 26.7654C48.2828 27.0074 48.5315 27.3326 48.6743 27.7038C48.7039 27.7829 48.7029 27.8172 48.6995 27.8305C48.4002 29.0201 48.0093 30.1676 47.5341 31.2536C47.6565 30.6812 47.6481 30.08 47.5084 29.4571C47.3101 28.5743 46.9693 27.7188 46.6653 26.9861L46.5742 26.7667C46.4292 26.4175 46.2845 26.0681 46.14 25.7186C46.1212 25.6728 46.0759 25.6415 46.0154 25.6386C45.9916 25.6388 45.9684 25.6453 45.9482 25.6574C45.928 25.6695 45.9117 25.6867 45.9011 25.7071L45.8534 25.7933C45.8324 25.8311 45.8128 25.8663 45.796 25.9027C45.1845 27.227 44.9779 28.5845 45.1824 29.9375C45.3286 30.9051 45.5763 31.5978 45.9856 32.184C46.1974 32.4869 46.3987 32.8244 46.4352 33.2394C46.4439 33.3376 46.4398 33.4053 46.3942 33.4823C45.885 34.3399 45.307 35.1581 44.6654 35.9295L44.6726 35.917C45.1286 35.1172 45.1424 34.2524 45.0958 33.5118C45.0556 32.877 44.9798 32.2431 44.9069 31.6302L44.9027 31.5947C44.8729 31.3493 44.8445 31.1036 44.8174 30.8579C44.8016 30.7177 44.7848 30.5776 44.767 30.4377L44.7436 30.2462C44.7412 30.2256 44.7335 30.2059 44.7211 30.1889C44.7087 30.1718 44.6922 30.1581 44.6728 30.1488C44.6008 30.1126 44.4843 30.1684 44.3584 30.3113C43.4934 31.2932 42.9566 32.4028 42.7628 33.6095C42.5618 34.8606 42.6708 35.9313 43.0963 36.8827C43.1077 36.908 43.1074 36.9597 43.1073 36.977L43.0844 37.5244C43.081 37.5638 43.0594 37.6082 43.0415 37.6247C42.1838 38.4185 41.2322 39.1133 40.2062 39.6949C40.6893 39.2758 41.0366 38.729 41.2617 38.0361C41.5111 37.2681 41.6391 36.4688 41.7633 35.6938L41.7741 35.6248C41.8181 35.3526 41.864 35.0808 41.9108 34.8031L41.9637 34.4891C41.9675 34.467 41.965 34.4443 41.9565 34.4233C41.9481 34.4024 41.9339 34.3841 41.9155 34.3702C41.8971 34.3564 41.8751 34.3476 41.852 34.3445C41.8288 34.3415 41.8052 34.3443 41.7836 34.3528L41.7374 34.3711C41.6881 34.3905 41.6452 34.4078 41.6048 34.4277C39.6755 35.3524 38.4055 37.5094 38.585 39.5561C38.6132 39.8767 38.5826 40.1778 38.4913 40.4761C38.4828 40.5033 38.4555 40.5327 38.4444 40.5377C37.5281 40.9086 36.6568 41.1791 35.7802 41.3649C35.7582 41.3696 35.7379 41.3797 35.7212 41.3942C35.7045 41.4087 35.6919 41.427 35.6848 41.4475C35.6775 41.4681 35.6759 41.4902 35.6801 41.5115C35.6843 41.5329 35.6943 41.5528 35.709 41.5694C35.8035 41.6765 35.8861 41.7927 35.9555 41.9162C35.9835 41.9661 36.0502 41.9917 36.1001 41.9792C36.8036 41.826 37.4946 41.6247 38.1681 41.3769C38.2213 41.3563 38.2619 41.3466 38.3 41.3526C38.4464 41.3713 38.6011 41.4001 38.7729 41.441C38.8083 41.4493 38.8377 41.4651 38.8382 41.4636C39.2134 42.1815 39.8582 42.6387 40.8101 42.8613C41.0172 42.9089 41.2308 42.9441 41.4449 42.9657C41.6691 42.9884 41.919 43 42.1877 43C42.5599 43 42.8253 42.9779 42.8286 42.9777C43.6537 42.8891 44.3583 42.7108 44.9824 42.4327C45.2385 42.3188 45.5303 42.1654 45.7546 41.8914C45.7752 41.8661 45.7851 41.8342 45.782 41.8022C45.779 41.7701 45.7633 41.7404 45.7382 41.7192C45.1042 41.1823 44.4587 40.7922 43.7645 40.5266C42.736 40.1343 41.7991 40.0281 40.8808 40.1976C40.7455 40.223 40.6115 40.2547 40.4793 40.2924C41.3384 39.7996 42.1609 39.2203 42.9377 38.5604C42.9544 38.5466 42.9745 38.5371 42.9962 38.5327C43.1232 38.5125 43.292 38.4875 43.4647 38.4756C43.4807 38.4756 43.501 38.483 43.5033 38.4838C43.9713 38.9865 44.5743 39.2308 45.3467 39.2308C45.3861 39.2308 45.4257 39.2301 45.465 39.2288C46.3049 39.2028 47.1492 38.9813 47.9749 38.5702C48.5751 38.2697 49.2007 37.9199 49.708 37.3982C49.8204 37.2822 49.9209 37.151 50.0095 37.0352L50.0182 37.0239C50.0574 36.9729 50.0971 36.9214 50.1378 36.8706C50.1489 36.8568 50.1569 36.8409 50.1613 36.824C50.1657 36.8071 50.1665 36.7895 50.1635 36.7723C50.1601 36.7544 50.1528 36.7374 50.1421 36.7225C50.1313 36.7075 50.1174 36.6949 50.1013 36.6854C50.0923 36.6807 49.8775 36.5702 49.6814 36.4973C48.3683 36.0103 47.0425 35.9604 45.7778 36.3515C45.3638 36.4792 44.9741 36.671 44.5948 36.936C45.2964 36.1532 45.9461 35.295 46.5359 34.3717C46.5423 34.3619 46.5591 34.3356 46.5645 34.3307C46.616 34.2992 46.6688 34.2693 46.7215 34.2398C46.8158 34.1867 46.9135 34.1317 47.0053 34.0663C47.0827 34.0108 47.1045 34.0094 47.1828 34.0577C47.2935 34.1267 47.4222 34.1625 47.5344 34.1907C48.1908 34.352 48.8525 34.2716 49.5845 33.9418C50.2531 33.641 50.7672 33.1654 51.2233 32.6964C51.8868 32.0124 52.3203 31.3952 52.5878 30.754C52.6439 30.6194 52.684 30.4803 52.7257 30.3348C52.7429 30.2737 52.7605 30.2127 52.7791 30.1527C52.7891 30.1217 52.7861 30.0882 52.7709 30.0593C52.7557 30.0304 52.7294 30.0083 52.6975 29.9975L52.6426 29.9935C52.372 29.9935 49.9585 30.0316 48.5468 31.3462C48.2414 31.63 47.9625 31.9387 47.713 32.269C48.2715 31.1339 48.7451 29.9377 49.1268 28.6959L49.1323 28.6777C49.1369 28.6625 49.1438 28.6395 49.1484 28.6333L49.5176 28.1467C49.5315 28.1272 49.5331 28.1272 49.5547 28.1272C49.5643 28.1272 49.5749 28.1278 49.5869 28.1285L49.6659 28.133C49.9406 28.1494 50.1024 28.1471 50.2354 28.1271C50.7611 28.0474 51.2356 27.7933 51.6859 27.3501C52.7391 26.3135 53.464 25.0202 53.902 23.3966C53.949 23.2227 53.9621 23.047 53.9762 22.8608C53.9824 22.7763 53.9893 22.6893 53.9993 22.5994C54.0015 22.5786 53.9984 22.5575 53.9901 22.5381C53.9819 22.5188 53.9688 22.5016 53.9521 22.4882ZM18.2196 41.3639C17.3438 41.1782 16.4727 40.9076 15.5561 40.5368C15.5452 40.5318 15.518 40.5023 15.5094 40.4758C15.4181 40.1769 15.3875 39.8758 15.4156 39.5552C15.5951 37.5083 14.3251 35.3515 12.3963 34.4269C12.3527 34.4063 12.3084 34.3874 12.2632 34.3702L12.2175 34.3521C12.196 34.3435 12.1725 34.3405 12.1494 34.3435C12.1264 34.3464 12.1045 34.3551 12.0861 34.3687C12.0674 34.3825 12.053 34.401 12.0444 34.422C12.0358 34.4431 12.0332 34.466 12.0371 34.4883L12.0898 34.8022C12.1367 35.0799 12.1826 35.3517 12.2265 35.6237L12.2376 35.6949C12.3615 36.4679 12.4895 37.2673 12.739 38.0353C12.9641 38.7282 13.3114 39.275 13.7944 39.6939C12.7685 39.1125 11.8169 38.4178 10.9593 37.6241C10.9411 37.6073 10.9196 37.5629 10.9165 37.5262L10.8934 36.9784C10.8932 36.959 10.893 36.9073 10.9045 36.8817C11.3299 35.9305 11.4388 34.8598 11.2378 33.6087C11.044 32.4021 10.5072 31.2924 9.6422 30.3105C9.54096 30.1955 9.45163 30.1373 9.37665 30.1373C9.36012 30.137 9.34374 30.1404 9.32887 30.1473C9.3093 30.1567 9.29247 30.1705 9.27989 30.1877C9.26732 30.2048 9.2594 30.2247 9.25686 30.2455L9.23372 30.4366C9.21583 30.5767 9.199 30.7169 9.18323 30.8572C9.15616 31.103 9.12774 31.3485 9.09796 31.5939L9.09377 31.6294C9.02068 32.2424 8.94488 32.8763 8.90482 33.5111C8.85826 34.2515 8.87207 35.1163 9.32806 35.9162L9.33509 35.9286C8.69361 35.1572 8.11565 34.3391 7.60642 33.4817C7.56081 33.4045 7.55688 33.3368 7.56541 33.2386C7.60209 32.8233 7.80322 32.4859 8.01504 32.1832C8.4242 31.597 8.67189 30.9043 8.8182 29.9367C9.02271 28.5837 8.81617 27.2263 8.20466 25.9021C8.18788 25.8656 8.16825 25.8304 8.14727 25.7926L8.0995 25.706C8.08764 25.6848 8.06979 25.6671 8.04798 25.6552C8.02618 25.6432 8.0013 25.6373 7.97619 25.6382C7.95106 25.6395 7.92684 25.6477 7.90638 25.6617C7.88592 25.6758 7.87009 25.6952 7.86074 25.7176C7.71626 26.0672 7.57149 26.4166 7.42641 26.7659L7.33532 26.9853C7.03133 27.7181 6.69038 28.5737 6.49223 29.4564C6.35255 30.0793 6.34403 30.6805 6.46652 31.2528C5.99117 30.1669 5.60042 29.0195 5.30117 27.8297C5.29778 27.8165 5.2967 27.7822 5.32634 27.7031C5.46907 27.3318 5.71781 27.0065 6.04409 26.7645C6.75102 26.2441 7.15206 25.5208 7.45104 24.8819C8.06322 23.5754 8.2293 22.1873 7.9586 20.6382C7.95526 20.6213 7.95055 20.6046 7.94452 20.5884L7.93965 20.5743C7.93376 20.5571 7.92411 20.5413 7.91134 20.5279C7.89858 20.5146 7.88299 20.504 7.86561 20.4969C7.84885 20.4905 7.83093 20.4873 7.81288 20.4876C7.79484 20.4878 7.77702 20.4915 7.76045 20.4983C7.73338 20.5078 7.69237 20.5222 7.6657 20.5598C7.51127 20.7576 7.35647 20.9552 7.20132 21.1525L7.1752 21.1859C6.78269 21.6862 6.37678 22.2032 5.98671 22.7183C5.53478 23.3133 5.21562 23.8918 5.01084 24.4868C4.91204 24.7741 4.84748 25.0507 4.81702 25.3193C4.68602 24.3425 4.61259 23.3594 4.59708 22.3747C4.59329 22.1375 4.62469 21.949 4.79347 21.7426C4.97213 21.5225 5.13902 21.3996 5.36911 21.3185C6.31452 20.987 6.92102 20.2865 7.34371 19.7132C8.02654 18.7858 8.42704 17.7067 8.56807 16.4142C8.5831 16.2811 8.59162 16.1466 8.60042 16.0042L8.60259 15.9718C8.60678 15.9026 8.61125 15.8305 8.61693 15.7541C8.61867 15.7294 8.61276 15.7047 8.59996 15.6831C8.58715 15.6616 8.56801 15.6441 8.54493 15.6329C8.52176 15.6221 8.49585 15.618 8.47029 15.6209C8.44472 15.6239 8.42059 15.6339 8.40078 15.6497L8.28858 15.7419C8.24635 15.7765 8.21021 15.8061 8.17272 15.8349C7.99257 15.9738 7.81175 16.1112 7.63051 16.2491L7.61157 16.2633C7.21378 16.5658 6.80232 16.8784 6.4094 17.2014C5.64698 17.8254 5.15607 18.4466 4.8644 19.1566C4.81728 19.2707 4.77502 19.3865 4.73771 19.5039C4.85552 18.3872 5.04999 17.2792 5.31984 16.1871C5.35233 16.0552 5.37046 16.0165 5.43719 15.9955C5.47915 15.9818 5.51826 15.9556 5.54682 15.9231C5.74078 15.7115 5.99618 15.678 6.2436 15.6732C7.06922 15.6546 7.72404 15.2593 8.25555 14.8751C9.55883 13.933 10.4562 11.5428 10.4562 11.4617C10.4562 11.4408 10.4508 11.4203 10.4404 11.4019C10.4301 11.3835 10.4152 11.3679 10.397 11.3564C10.3789 11.3451 10.3581 11.3383 10.3366 11.3365C10.3151 11.3346 10.2934 11.3379 10.2735 11.3458C10.002 11.4564 9.73045 11.5641 9.44933 11.6757C8.83078 11.9218 8.19126 12.1762 7.57705 12.4543C6.95891 12.735 6.47044 13.1104 6.12124 13.5724C6.45254 12.6681 6.83672 11.7825 7.27198 10.9198C7.32165 10.8275 7.55499 10.7296 7.88957 10.7296C7.99839 10.7296 8.10383 10.7407 8.19492 10.7618C8.98102 10.9426 9.7605 10.833 10.6232 10.4192C11.5058 9.99575 12.2381 9.30336 12.8617 8.30193C12.8736 8.28258 12.8971 8.22347 12.9096 8.19035C12.9175 8.17073 12.92 8.14954 12.9171 8.12873C12.9142 8.10791 12.9058 8.08814 12.8929 8.07122C12.8685 8.03901 12.8295 8.01978 12.7799 8.01978H12.7788L12.4672 8.03862C12.2762 8.05018 12.0908 8.06148 11.9054 8.07057L11.7073 8.08019C11.1161 8.10877 10.5046 8.13812 9.9064 8.27491C9.22411 8.43236 8.72318 8.67411 8.33906 9.03264C8.78441 8.31957 9.2699 7.63032 9.79338 6.96795C9.80719 6.9508 9.87338 6.92456 9.92765 6.91586C9.95472 6.90975 10.0533 6.88988 10.1843 6.88988C10.3581 6.88988 10.5102 6.92378 10.6392 6.99185C11.4587 7.3765 12.3791 7.40508 13.3784 7.07564C14.198 6.80687 14.8922 6.30765 15.5008 5.54992C15.5205 5.5255 15.5384 5.49887 15.5546 5.47081C15.5637 5.45563 15.5688 5.43853 15.5694 5.42102C15.57 5.40352 15.5662 5.38613 15.5582 5.3704C15.511 5.27557 15.3072 5.23101 15.2214 5.2162C15.0108 5.18087 14.7722 5.14059 14.5356 5.10981C14.4272 5.09526 14.3186 5.08006 14.2098 5.0646L14.1959 5.06252C13.8272 5.0103 13.446 4.95626 13.0621 4.93769C12.3604 4.90326 11.7374 5.0407 11.2275 5.34493C11.5639 5.00078 11.9138 4.66898 12.2764 4.35026C12.3888 4.25179 12.5161 4.15255 12.6894 4.02797C12.7028 4.0181 12.7369 4.00654 12.7788 4.0042C14.0076 3.95808 15.0302 3.43743 15.9045 2.41275C16.3808 1.85494 16.746 1.15138 17.0211 0.261801L17.0306 0.231273C17.06 0.137743 17.0762 0.0863006 17.0087 0.0260253C16.9566 -0.0204802 16.8648 -0.00671007 16.6263 0.0839627C16.4098 0.163854 16.1919 0.241406 15.9681 0.321037C15.5186 0.480949 15.0537 0.646316 14.605 0.833117C13.8552 1.14593 13.2564 1.62007 12.8256 2.24218C12.4975 2.71555 12.3678 3.19113 12.4289 3.6936C12.4276 3.70064 12.4254 3.70752 12.4225 3.71412C11.6398 4.36273 10.8916 5.09292 10.1234 5.96198C10.6357 5.21022 10.9696 4.34468 11.1371 3.3413C11.306 2.32974 11.3167 1.42938 11.17 0.588898C11.1607 0.536287 11.1481 0.483676 11.132 0.417815L11.108 0.31636C11.1026 0.29486 11.0915 0.275065 11.0758 0.258902C11.0601 0.242739 11.0403 0.230759 11.0183 0.224129C10.9961 0.217889 10.9726 0.217291 10.9501 0.222391C10.9275 0.227492 10.9068 0.238117 10.8898 0.253227C10.8362 0.301681 10.7837 0.347407 10.7324 0.391834L10.6963 0.423141C10.565 0.536677 10.441 0.643848 10.3288 0.765048C9.23859 1.94548 8.60272 3.1923 8.38495 4.57681C8.28574 5.20256 8.32688 5.73529 8.51082 6.20503C8.57173 6.36065 8.66674 6.49965 8.76135 6.63761C8.80466 6.70061 8.84797 6.76387 8.88763 6.82882C8.91687 6.87546 8.9193 6.88754 8.91917 6.88533C8.89748 7.09883 8.87122 7.31187 8.84039 7.52433C8.83891 7.52745 8.83403 7.53472 8.81847 7.55447L8.80588 7.57122C8.20604 8.37218 7.65793 9.20769 7.16464 10.073C7.39973 9.28581 7.51382 8.46985 7.50329 7.65099C7.49002 6.50744 7.21567 5.48757 6.66426 4.53265C6.64247 4.49549 6.60295 4.47133 6.54759 4.46769C6.52723 4.46794 6.5072 4.47273 6.48911 4.48171C6.47101 4.49069 6.45535 4.50359 6.44337 4.5194C6.42686 4.54148 6.41008 4.56226 6.3941 4.58201C6.35851 4.62618 6.32521 4.66801 6.29544 4.71269C5.85636 5.37351 5.62086 6.10214 5.46453 6.6632C5.17881 7.69216 5.04752 8.55135 5.05131 9.36727C5.05348 10.0608 5.18517 10.594 5.46588 11.0451C5.55318 11.1855 5.66309 11.3084 5.77353 11.4321C5.83214 11.4977 5.89237 11.5651 5.94691 11.6342C5.98508 11.6823 6.00349 11.7313 6.00457 11.7585C6.01175 11.923 6.00796 12.0902 6.0043 12.2518L6.00173 12.3635C6.00115 12.3834 5.99712 12.4031 5.98982 12.4217C5.63295 13.2536 5.32367 14.1036 5.06336 14.9678C5.10139 14.6799 5.12352 14.3903 5.12968 14.1002C5.16162 12.5031 4.65122 11.0769 3.61229 9.86065L3.39573 9.60746C3.38351 9.59288 3.36803 9.58111 3.35044 9.57304C3.33284 9.56496 3.31358 9.56079 3.29408 9.56083L3.27243 9.56265C3.24968 9.56629 3.22834 9.57561 3.21054 9.58968C3.19275 9.60375 3.17913 9.62207 3.17105 9.6428C3.15129 9.69333 3.13193 9.74101 3.11312 9.78712C3.0773 9.87263 3.04412 9.95914 3.01364 10.0465C2.79072 10.7167 2.68136 11.4489 2.65916 12.42L2.65876 12.439C2.64211 13.1455 2.61923 14.1134 2.9216 15.0396C3.21923 15.9514 3.74412 16.4122 3.8459 16.495L3.85673 16.5043C4.13378 16.7416 4.3142 16.9587 4.35156 17.0997C4.36658 17.1566 4.38188 17.2136 4.39974 17.27C4.47879 17.5208 4.42939 17.7598 4.37606 18.018C4.34953 18.1482 4.32192 18.2828 4.31231 18.4209C4.27414 18.9735 4.22731 19.5355 4.18197 20.0789L4.17791 20.1291L4.14312 20.545C4.02754 19.3015 3.59848 18.1712 2.86029 17.1716C2.40822 16.56 1.86927 16.0368 1.25803 15.616C1.23164 15.5978 1.20389 15.5816 1.16681 15.5604C1.1452 15.5484 1.12381 15.536 1.10265 15.5233C1.08363 15.5125 1.06215 15.5064 1.04009 15.5054C1.01802 15.5045 0.99605 15.5087 0.976101 15.5178C0.9561 15.5273 0.938935 15.5415 0.926221 15.5591C0.913507 15.5767 0.905661 15.5971 0.903419 15.6184C0.894993 15.6964 0.885653 15.7743 0.875402 15.8521C0.854964 16.0138 0.83561 16.1666 0.834798 16.3235C0.825729 17.9501 1.18427 19.4744 1.9008 20.8535C2.10044 21.2383 2.36424 21.5711 2.68515 21.8431C3.00335 22.1113 3.34673 22.2696 3.73423 22.3265C3.74558 22.3302 3.75634 22.3355 3.76618 22.3421C3.78716 22.3825 3.80895 22.423 3.83074 22.4636C3.90816 22.6072 3.98815 22.7557 4.02794 22.9045C4.0611 23.0304 4.0611 23.168 4.0611 23.3137C4.0611 23.3671 4.0611 23.4209 4.06286 23.4736C4.10008 24.7337 4.14894 25.1725 4.359 26.2984C4.23083 25.9636 4.0699 25.628 3.86214 25.305C3.02081 23.9981 1.95196 23.111 0.594554 22.5933C0.508201 22.5599 0.421578 22.5359 0.32115 22.5078L0.301118 22.5021C0.260378 22.4907 0.217202 22.4785 0.171048 22.4649C0.150217 22.4586 0.128064 22.4573 0.106596 22.4613C0.0851293 22.4652 0.0650281 22.4743 0.0481164 22.4875C0.0312046 22.5008 0.0180175 22.518 0.00975127 22.5374C0.00148502 22.5568 -0.00159877 22.5779 0.000779636 22.5987C0.0107954 22.6881 0.0176982 22.775 0.0240596 22.8599C0.0380005 23.0459 0.0511293 23.2215 0.0980953 23.3953C0.536083 25.019 1.26101 26.3122 2.31416 27.3489C2.76446 27.7922 3.23899 28.0463 3.76482 28.1259C3.89747 28.1458 4.05961 28.1482 4.3341 28.1319L4.41314 28.1273C4.42519 28.1267 4.43575 28.126 4.44536 28.126C4.46701 28.126 4.46877 28.126 4.4838 28.1473L4.85154 28.632C4.85627 28.6384 4.86318 28.6614 4.86791 28.6772L4.87333 28.6946C5.25501 29.9365 5.7286 31.1326 6.28704 32.2679C6.03766 31.9375 5.75868 31.6288 5.4533 31.345C4.04161 30.0304 1.62808 29.9923 1.35751 29.9923L1.32381 29.9926L1.30256 29.9964C1.27076 30.007 1.24449 30.0291 1.22925 30.0579C1.21402 30.0868 1.21099 30.1202 1.22081 30.1511C1.23963 30.2115 1.25722 30.2725 1.27739 30.3443C1.31596 30.479 1.35602 30.6181 1.41219 30.7527C1.67964 31.3941 2.11316 32.0112 2.77678 32.6953C3.23277 33.1642 3.74682 33.6398 4.41531 33.9405C5.14741 34.2705 5.80845 34.351 6.46584 34.1894C6.57764 34.1612 6.70622 34.1255 6.8168 34.0566C6.89557 34.0082 6.91709 34.0098 6.99451 34.0651C7.08628 34.1306 7.18386 34.1855 7.27861 34.2388C7.33099 34.2683 7.38377 34.298 7.43304 34.3279C7.44089 34.3343 7.45767 34.3606 7.4639 34.3704C8.05375 35.2937 8.70356 36.1519 9.4052 36.9347C9.02569 36.6697 8.63602 36.4779 8.22212 36.3502C6.95729 35.9591 5.63155 36.0088 4.31853 36.4961C4.12255 36.569 3.90775 36.6794 3.8934 36.6872C3.87839 36.6967 3.86559 36.7091 3.85578 36.7236C3.84598 36.7381 3.83939 36.7544 3.83642 36.7715C3.83345 36.7885 3.83416 36.806 3.83852 36.8227C3.84287 36.8395 3.85078 36.8552 3.86173 36.8689C3.90274 36.9201 3.9424 36.9716 3.98165 37.0226L3.99031 37.0338C4.07897 37.1497 4.1794 37.2807 4.29201 37.3969C4.79916 37.9187 5.4246 38.2685 6.02501 38.5689C6.85064 38.98 7.69494 39.2015 8.53464 39.2275C8.57416 39.2288 8.61369 39.2295 8.65307 39.2295C9.42551 39.2295 10.0285 38.9852 10.4933 38.4855C10.5046 38.4792 10.5172 38.4753 10.5302 38.474C10.7078 38.4862 10.8766 38.511 11.0027 38.5312C11.0248 38.5355 11.0453 38.5452 11.0624 38.5592C11.8389 39.219 12.6613 39.7981 13.5203 40.291C13.3881 40.2533 13.2541 40.2215 13.1188 40.1959C12.2007 40.0265 11.2638 40.1328 10.235 40.5251C9.54096 40.7906 8.89548 41.1807 8.26164 41.7176C8.23648 41.7388 8.22075 41.7685 8.21768 41.8006C8.21461 41.8326 8.22443 41.8645 8.24513 41.8898C8.4694 42.1638 8.76122 42.3172 9.01716 42.431C9.64139 42.7094 10.346 42.8876 11.172 42.9762C11.1745 42.9764 11.4399 42.9984 11.8121 42.9984C12.0808 42.9984 12.3308 42.9869 12.5548 42.9641C12.7686 42.9426 12.9806 42.9077 13.1897 42.8596C14.1415 42.6372 14.7864 42.1799 15.1559 41.47C15.1625 41.4639 15.191 41.448 15.227 41.4396C15.3829 41.4017 15.5409 41.3721 15.7003 41.351C15.7349 41.3457 15.7781 41.3546 15.8325 41.3757C16.5053 41.6232 17.1958 41.8243 17.8985 41.9774C17.9267 41.9839 17.9563 41.9812 17.9828 41.9698C18.0093 41.9584 18.031 41.9389 18.0446 41.9143C18.1141 41.7908 18.1967 41.6746 18.2911 41.5676C18.3057 41.5511 18.3156 41.5312 18.3198 41.51C18.324 41.4888 18.3225 41.4668 18.3153 41.4463C18.3081 41.4258 18.2955 41.4075 18.2788 41.393C18.262 41.3786 18.2416 41.3685 18.2196 41.3639Z" fill="#F3E4C8"/>
<path d="M33.3865 24.0874L38.7966 19.019C38.8866 18.9347 38.9502 18.8279 38.9804 18.7107C39.0105 18.5935 39.0059 18.4705 38.9671 18.3556C38.9282 18.2408 38.8568 18.1387 38.7607 18.0609C38.6646 17.983 38.5478 17.9326 38.4235 17.9152L30.9476 16.8718L27.6036 10.3608C27.5481 10.2525 27.4621 10.1613 27.3554 10.0976C27.2487 10.0338 27.1256 10 27 10C26.8744 10 26.7513 10.0338 26.6446 10.0976C26.5379 10.1613 26.4519 10.2525 26.3964 10.3608L23.0537 16.8718L15.5765 17.9152C15.4521 17.9326 15.3354 17.983 15.2393 18.0609C15.1432 18.1387 15.0718 18.2408 15.0329 18.3556C14.9941 18.4705 14.9895 18.5935 15.0196 18.7107C15.0498 18.8279 15.1134 18.9347 15.2034 19.019L20.6135 24.0874L19.337 31.2437C19.3158 31.3626 19.3296 31.4849 19.3769 31.5968C19.4242 31.7086 19.5032 31.8054 19.6048 31.8763C19.7064 31.9473 19.8267 31.9896 19.952 31.9983C20.0772 32.007 20.2026 31.9819 20.3137 31.9257L27.0003 28.5474L33.6868 31.9257C33.7979 31.9819 33.9233 32.007 34.0485 31.9983C34.1738 31.9896 34.294 31.9473 34.3956 31.8763C34.4972 31.8055 34.5762 31.7086 34.6236 31.5968C34.6709 31.485 34.6847 31.3626 34.6634 31.2437L33.3865 24.0874Z" fill="#F3E4C8"/>
</svg>
