<svg width="1366" height="350" viewBox="0 0 1366 350" fill="none" xmlns="http://www.w3.org/2000/svg">
<g clip-path="url(#clip0_170_695)">
<path d="M1366 0H0V350H1366V0Z" fill="#00A19A"/>
<path d="M628.421 0H656.114L682.971 158.489L628.421 0Z" fill="#26B3AB"/>
<path d="M577.816 0H611.807L682.971 158.489L577.816 0Z" fill="#26B3AB"/>
<path d="M503.456 0H555.659L682.971 158.489L503.456 0Z" fill="#26B3AB"/>
<path d="M360.785 0H466.954L682.971 158.489L360.785 0Z" fill="#26B3AB"/>
<path d="M0 30.7814V0H267.044L682.971 158.489L0 30.7814Z" fill="#26B3AB"/>
<path d="M0 219.959V98.4141L682.971 158.489L0 219.959Z" fill="#26B3AB"/>
<path d="M0 287.194V350H180.436L682.971 158.489L0 287.194Z" fill="#26B3AB"/>
<path d="M295.414 350H423.482L682.972 158.489L295.414 350Z" fill="#26B3AB"/>
<path d="M628.421 350H656.114L682.971 158.489L628.421 350Z" fill="#26B3AB"/>
<path d="M577.816 350H611.807L682.971 158.489L577.816 350Z" fill="#26B3AB"/>
<path d="M503.456 350H555.659L682.971 158.489L503.456 350Z" fill="#26B3AB"/>
<path d="M736.944 0H709.223L682.337 158.489L736.944 0Z" fill="#26B3AB"/>
<path d="M787.599 0H753.579L682.337 158.489L787.599 0Z" fill="#26B3AB"/>
<path d="M862.03 0H809.777L682.337 158.489L862.03 0Z" fill="#26B3AB"/>
<path d="M1004.84 0H898.575L682.337 158.489L1004.84 0Z" fill="#26B3AB"/>
<path d="M1366 30.7814V0H1098.69L682.337 158.489L1366 30.7814Z" fill="#26B3AB"/>
<path d="M1366 219.959V98.4141L682.337 158.489L1366 219.959Z" fill="#26B3AB"/>
<path d="M1366 287.194V350H1185.38L682.337 158.489L1366 287.194Z" fill="#26B3AB"/>
<path d="M1070.29 350H942.09L682.337 158.489L1070.29 350Z" fill="#26B3AB"/>
<path d="M736.944 350H709.223L682.337 158.489L736.944 350Z" fill="#26B3AB"/>
<path d="M787.599 350H753.579L682.337 158.489L787.599 350Z" fill="#26B3AB"/>
<path d="M862.03 350H809.777L682.337 158.489L862.03 350Z" fill="#26B3AB"/>
<path d="M670.046 0H696.062L682.971 158.489L670.046 0Z" fill="#26B3AB"/>
<path d="M695.983 350H668.69L682.422 158.489L695.983 350Z" fill="#26B3AB"/>
</g>
<defs>
<clipPath id="clip0_170_695">
<rect width="1366" height="350" fill="white"/>
</clipPath>
</defs>
</svg>
