<svg width="172" height="172" viewBox="0 0 172 172" fill="none" xmlns="http://www.w3.org/2000/svg">
<circle cx="85.75" cy="85.75" r="67.25" stroke="#00A19A" stroke-width="3.5"/>
<path d="M85.75 27.3652C118.581 27.3652 145.196 53.9802 145.196 86.8114" stroke="#00A19A" stroke-width="3.5" stroke-linecap="round"/>
<path d="M85.75 146.258C52.9188 146.258 26.3038 119.643 26.3038 86.8115" stroke="#00A19A" stroke-width="3.5" stroke-linecap="round"/>
<path d="M61.8654 32.3582C65.8681 30.6 70.1016 29.2701 74.5078 28.4268" stroke="#00A19A" stroke-width="3.5" stroke-linecap="round"/>
<circle cx="85.75" cy="85.75" r="85" stroke="#4DC9C1" stroke-width="1.5" stroke-linecap="round" stroke-dasharray="3 3"/>
<path fill-rule="evenodd" clip-rule="evenodd" d="M101.543 66.0012C103.071 66.0012 104.309 67.2392 104.309 68.7664C104.309 70.2935 103.071 71.5316 101.543 71.5316C100.016 71.5316 98.7782 70.2935 98.7782 68.7664C98.7781 67.2392 100.016 66.0012 101.543 66.0012ZM85.7682 78.7871C85.5288 78.7871 85.3402 78.8664 85.2076 79.0753C83.2137 82.2152 81.6247 84.3227 81.6438 88.5019C81.6611 92.2669 83.2235 97.9024 84.1596 101.987C84.2184 102.244 84.1747 102.514 84.0378 102.74C83.9008 102.965 83.6814 103.129 83.4261 103.195L83.2617 103.238C82.8089 103.355 82.3496 103.159 82.1215 102.751L77.7697 94.9625C77.7138 94.8625 77.5598 94.9152 77.577 95.0285L78.7139 102.519C78.7379 102.673 78.7296 102.829 78.6896 102.98C78.6496 103.13 78.5788 103.27 78.4816 103.392C78.3845 103.513 78.2631 103.613 78.1252 103.685C77.9874 103.757 77.8361 103.799 77.6809 103.809L77.4943 103.822C77.0014 103.857 76.5614 103.583 76.3748 103.126C74.2839 98.0047 72.5759 92.7816 71.1525 87.4827C70.96 86.7662 70.6898 86.1823 70.2685 85.5716C68.1876 82.5559 66.2332 79.4037 64.4019 76.119C64.2501 75.8478 64.2063 75.5291 64.2795 75.227C64.3527 74.9248 64.5374 74.6615 64.7966 74.4898L64.8889 74.4284C65.449 74.056 66.2069 74.2018 66.5888 74.7556C67.55 76.1494 68.6123 77.4709 69.7671 78.7092C71.2883 80.3408 72.9136 82.0393 75.237 82.3576C77.9178 82.725 78.8262 81.6796 80.4983 80.0075C85.2572 75.2486 86.2425 75.2486 91.0014 80.0075C92.6736 81.6796 93.582 82.725 96.2627 82.3576C98.5862 82.0393 100.211 80.3408 101.733 78.7092C102.888 77.4709 103.95 76.1495 104.911 74.7556C105.293 74.2019 106.051 74.0561 106.611 74.4284L106.703 74.4898C106.962 74.6615 107.147 74.9248 107.22 75.227C107.293 75.5291 107.25 75.8478 107.098 76.119C105.267 79.4036 103.312 82.5557 101.231 85.5716C100.81 86.1823 100.54 86.7662 100.347 87.4827C98.9239 92.7816 97.2159 98.0047 95.125 103.126C94.9382 103.583 94.4983 103.857 94.0055 103.822L93.8189 103.809C93.6637 103.799 93.5124 103.757 93.3746 103.685C93.2367 103.613 93.1154 103.513 93.0182 103.392C92.921 103.27 92.8502 103.13 92.8102 102.98C92.7702 102.829 92.7619 102.672 92.7859 102.519L93.9228 95.0285C93.94 94.9152 93.786 94.8625 93.7301 94.9625L89.3783 102.751C89.1502 103.159 88.6908 103.355 88.2381 103.238L88.0737 103.195C87.8184 103.129 87.599 102.965 87.462 102.74C87.3251 102.514 87.2813 102.244 87.3401 101.987C88.2763 97.9024 89.8387 92.2669 89.8559 88.5019C89.8752 84.3227 88.2861 82.2152 86.2922 79.0753C86.1751 78.8905 85.987 78.7871 85.7682 78.7871ZM68.0253 92.5604L68.6959 91.846C69.0065 91.5154 69.0042 91.0532 68.7061 90.7501C68.5624 90.604 68.3666 90.5208 68.1616 90.5188C67.9567 90.5169 67.7593 90.5963 67.6128 90.7397L66.8578 91.5382C66.5845 91.8268 66.5979 92.3438 66.9319 92.6346C67.0869 92.7695 67.289 92.8374 67.494 92.8235C67.6989 92.8096 67.89 92.715 68.0253 92.5604ZM66.2663 95.4316L66.6051 94.6569C66.7873 94.2363 66.6369 93.8069 66.2542 93.618C66.0704 93.5273 65.8582 93.5132 65.664 93.5788C65.4698 93.6443 65.3095 93.7841 65.2182 93.9676L64.8191 94.8805C64.6633 95.2406 64.8537 95.7242 65.2696 95.8809C65.4614 95.9531 65.674 95.9463 65.8608 95.8621C66.0476 95.7779 66.1934 95.6231 66.2663 95.4316ZM65.7941 98.4185L65.7939 97.6295C65.7939 97.1688 65.4907 96.8348 65.0631 96.8113C64.8586 96.8001 64.6579 96.8704 64.5051 97.0068C64.3523 97.1432 64.2597 97.3346 64.2477 97.5391L64.2474 98.4973C64.2474 98.8838 64.6161 99.2557 65.0631 99.2312C65.2677 99.22 65.4595 99.1282 65.5965 98.9759C65.7335 98.8235 65.8045 98.6231 65.7941 98.4185ZM66.607 101.39L66.2682 100.616C66.0842 100.195 65.6696 100.011 65.2696 100.162C65.0779 100.234 64.9226 100.379 64.8377 100.566C64.7528 100.752 64.7454 100.965 64.8169 101.157L65.216 102.071C65.371 102.429 65.8546 102.622 66.2541 102.425C66.4379 102.334 66.5783 102.174 66.6444 101.98C66.7106 101.786 66.6971 101.574 66.607 101.39ZM68.6987 104.199L68.0278 103.485C67.7125 103.154 67.2539 103.128 66.932 103.408C66.7771 103.543 66.682 103.734 66.6675 103.939C66.6531 104.144 66.7204 104.346 66.8549 104.501L67.61 105.3C67.8851 105.591 68.3979 105.606 68.7061 105.293C68.8498 105.146 68.9297 104.949 68.9283 104.744C68.9269 104.54 68.8444 104.344 68.6987 104.199ZM71.9828 106.639C72.1608 106.741 72.291 106.91 72.3447 107.108C72.3984 107.306 72.3713 107.518 72.2693 107.696C72.0517 108.076 71.5549 108.195 71.2095 107.983L70.1624 107.341C69.9907 107.228 69.8708 107.052 69.8289 106.851C69.7871 106.65 69.8268 106.44 69.9392 106.269C70.172 105.913 70.6331 105.81 71.0136 106.045L71.9828 106.639ZM76.2437 108.502C76.4387 108.566 76.6004 108.705 76.6934 108.888C76.7863 109.071 76.8029 109.283 76.7395 109.478C76.6048 109.892 76.1479 110.112 75.7616 109.975L74.4909 109.526C74.299 109.453 74.1441 109.306 74.0602 109.119C73.9762 108.931 73.9702 108.718 74.0433 108.526C74.1947 108.128 74.6273 107.928 75.0446 108.077L76.2437 108.502ZM81.184 109.635C81.3875 109.664 81.5711 109.773 81.6945 109.937C81.8178 110.102 81.8708 110.308 81.8419 110.512C81.8129 110.715 81.7042 110.899 81.5398 111.022C81.3755 111.145 81.1688 111.198 80.9654 111.169L79.5561 110.937C79.3544 110.9 79.1757 110.784 79.0593 110.615C78.9429 110.446 78.8983 110.238 78.9352 110.037C79.0126 109.614 79.4155 109.341 79.8363 109.415L81.184 109.635ZM86.449 109.949C86.6539 109.945 86.8518 110.023 86.9994 110.165C87.1469 110.307 87.2321 110.502 87.2361 110.707C87.2446 111.139 86.8904 111.495 86.4767 111.495H85.0211C84.8162 111.491 84.6213 111.405 84.4794 111.258C84.3374 111.11 84.2599 110.912 84.2639 110.707C84.2723 110.283 84.6119 109.949 85.0528 109.949L86.449 109.949ZM91.6655 109.415C91.8672 109.378 92.0752 109.423 92.2439 109.54C92.4125 109.656 92.5279 109.835 92.5649 110.036C92.6412 110.453 92.3625 110.866 91.9421 110.937L90.5348 111.169C90.3314 111.198 90.1251 111.145 89.9609 111.021C89.7968 110.898 89.6884 110.714 89.6594 110.511C89.598 110.079 89.896 109.706 90.318 109.635L91.6655 109.415ZM96.4575 108.077C96.6496 108.004 96.8627 108.01 97.05 108.095C97.2374 108.179 97.3836 108.334 97.4567 108.526C97.6072 108.921 97.408 109.383 97.0065 109.527L95.7358 109.976C95.5404 110.039 95.3281 110.022 95.1452 109.929C94.9624 109.835 94.824 109.673 94.7605 109.478C94.6292 109.074 94.8378 108.651 95.2588 108.501L96.4575 108.077ZM100.489 106.043C100.661 105.931 100.87 105.892 101.071 105.934C101.272 105.976 101.448 106.097 101.561 106.269C101.801 106.635 101.681 107.132 101.335 107.343L100.288 107.985C100.109 108.086 99.8975 108.113 99.6994 108.059C99.5012 108.005 99.3326 107.874 99.2306 107.696C99.0194 107.327 99.1363 106.874 99.5196 106.637L100.489 106.043ZM103.475 103.482L102.804 104.197C102.494 104.527 102.496 104.989 102.794 105.293C102.938 105.439 103.133 105.522 103.338 105.524C103.543 105.526 103.741 105.446 103.887 105.303L104.642 104.505C104.916 104.216 104.902 103.699 104.568 103.408C104.413 103.273 104.211 103.205 104.006 103.219C103.801 103.233 103.61 103.328 103.475 103.482ZM105.234 100.611L104.895 101.386C104.713 101.807 104.863 102.236 105.246 102.425C105.43 102.515 105.642 102.53 105.836 102.464C106.03 102.398 106.19 102.259 106.282 102.075L106.681 101.162C106.837 100.802 106.646 100.319 106.23 100.162C106.039 100.09 105.826 100.096 105.639 100.181C105.452 100.265 105.307 100.42 105.234 100.611ZM105.706 97.6243L105.706 98.4132C105.706 98.8738 106.009 99.2079 106.437 99.2313C106.641 99.2425 106.842 99.1723 106.995 99.0359C107.148 98.8995 107.24 98.708 107.252 98.5035L107.252 97.5454C107.252 97.1589 106.884 96.787 106.437 96.8115C106.232 96.8227 106.04 96.9145 105.903 97.0669C105.766 97.2192 105.695 97.4197 105.706 97.6243ZM104.893 94.6528L105.232 95.4269C105.416 95.8478 105.83 96.0315 106.23 95.8808C106.422 95.8085 106.577 95.6633 106.662 95.4768C106.747 95.2903 106.755 95.0778 106.683 94.8857L106.284 93.9721C106.129 93.6141 105.645 93.4208 105.246 93.6179C105.062 93.7086 104.922 93.8684 104.856 94.0624C104.789 94.2564 104.803 94.4687 104.893 94.6528ZM102.801 91.8433L103.472 92.5577C103.788 92.8886 104.246 92.9148 104.568 92.6346C104.723 92.4998 104.818 92.309 104.832 92.1041C104.847 91.8992 104.779 91.697 104.645 91.5417L103.89 90.7427C103.615 90.4513 103.102 90.4368 102.794 90.7502C102.65 90.8963 102.57 91.0934 102.572 91.2983C102.573 91.5032 102.656 91.6992 102.801 91.8433ZM85.75 60.0049C87.2773 60.0049 88.5152 61.243 88.5152 62.7701C88.5152 64.2973 87.2771 65.5353 85.75 65.5353C84.2229 65.5353 82.9848 64.2972 82.9848 62.7701C82.9848 61.243 84.2229 60.0049 85.75 60.0049ZM75.8518 75.7559C74.3246 75.7559 73.0866 76.994 73.0866 78.5212C73.0866 80.0484 74.3247 81.2864 75.8518 81.2864C77.3791 81.2864 78.6171 80.0483 78.6171 78.5212C78.6171 76.994 77.379 75.7559 75.8518 75.7559ZM95.612 75.8335C94.0847 75.8335 92.8468 77.0716 92.8468 78.5988C92.8468 80.1259 94.0848 81.364 95.612 81.364C97.1391 81.364 98.3772 80.1259 98.3772 78.5988C98.3772 77.0716 97.1392 75.8335 95.612 75.8335ZM93.5677 60.07C93.0523 59.9047 92.5055 60.1207 92.2421 60.5935C91.0902 62.6615 89.7689 64.3183 88.2681 65.5391C86.7857 66.7451 84.7144 66.7451 83.2319 65.5391C81.7312 64.3183 80.4098 62.6614 79.258 60.5935C78.7796 59.7346 77.527 59.8916 77.1735 60.7221C76.5193 62.2599 75.7747 65.0609 74.6642 67.4669C73.4847 70.0223 73.1849 71.7767 70.0926 72.4847C69.0455 72.7245 67.8775 72.752 66.6288 72.638C66.3654 72.614 66.433 72.8061 66.5118 72.8341C67.0616 73.0295 67.5359 73.3934 67.8669 73.874C68.9733 75.4781 70.0917 76.8088 71.4174 78.2005C71.4307 78.2146 71.4476 78.2246 71.4663 78.2295C71.485 78.2343 71.5046 78.2339 71.5231 78.2282C71.5415 78.2224 71.558 78.2116 71.5706 78.197C71.5832 78.1824 71.5914 78.1645 71.5944 78.1454C71.9697 75.7917 74.2155 74.1664 76.5984 74.5843C76.6123 74.5868 76.6265 74.5865 76.6402 74.5833C76.6539 74.5801 76.6668 74.5741 76.6781 74.5657C76.6894 74.5573 76.6989 74.5467 76.7059 74.5345C76.713 74.5223 76.7174 74.5088 76.7191 74.4948C77.1001 71.3138 77.8276 68.2529 78.6757 65.0411C78.7001 64.949 78.8268 64.9364 78.8687 65.022C80.226 67.7874 81.5597 70.7255 82.0447 73.2137C82.1972 73.9956 82.3163 74.8166 82.4077 75.6693C82.4097 75.6883 82.4169 75.7064 82.4286 75.7215C82.4402 75.7367 82.4558 75.7483 82.4737 75.7551C82.4916 75.7619 82.511 75.7636 82.5297 75.7601C82.5485 75.7565 82.5659 75.7478 82.5801 75.7349C83.0108 75.3445 84.3116 74.6899 85.7499 74.6738C86.9702 74.6602 88.3297 75.204 88.9209 75.7311C88.935 75.7438 88.9525 75.7524 88.9712 75.7558C88.9899 75.7593 89.0092 75.7575 89.027 75.7506C89.0448 75.7438 89.0603 75.7322 89.0719 75.7171C89.0835 75.702 89.0907 75.6839 89.0927 75.665C89.1841 74.8137 89.303 73.9943 89.4552 73.2137C89.9402 70.7254 91.274 67.7874 92.6312 65.022C92.6732 64.9364 92.7999 64.949 92.8242 65.0411C93.671 68.2474 94.3973 71.3033 94.7789 74.4782C94.7805 74.492 94.7849 74.5054 94.7918 74.5175C94.7987 74.5296 94.808 74.5402 94.8192 74.5486C94.8303 74.557 94.843 74.563 94.8565 74.5664C94.8701 74.5697 94.8841 74.5702 94.8979 74.568C97.2843 74.1866 99.5031 75.8385 99.8513 78.1925C99.8541 78.2117 99.8622 78.2297 99.8747 78.2445C99.8873 78.2593 99.9037 78.2703 99.9222 78.2761C99.9406 78.282 99.9604 78.2826 99.9792 78.2778C99.9979 78.273 100.015 78.2629 100.028 78.2489C101.232 76.991 103.768 73.2713 104.969 72.8345C105.055 72.8032 105.098 72.6171 104.871 72.6379C103.622 72.7519 102.454 72.7244 101.407 72.4846C98.3147 71.7766 98.0148 70.0223 96.8354 67.4668C95.7252 65.0613 94.98 62.259 94.3261 60.722C94.1722 60.3597 93.9265 60.1851 93.5677 60.07ZM70.1895 66.0478C71.7168 66.0478 72.9547 67.2859 72.9547 68.813C72.9547 70.3403 71.7167 71.5782 70.1895 71.5782C68.6624 71.5782 67.4243 70.3401 67.4243 68.813C67.4242 67.2859 68.6623 66.0478 70.1895 66.0478Z" fill="#00A19A"/>
</svg>
