<svg width="290" height="217" viewBox="0 0 290 217" fill="none" xmlns="http://www.w3.org/2000/svg">
<path d="M0 216.5C137.589 161.738 201.223 114.766 289 0M0 204C123.998 152.537 183.365 108.723 268.5 0M0 191.5C116.206 143.145 170.555 101.553 247 0M0 179C105.309 135.741 155.564 97.062 228 0M0 168C96.647 125.328 142.701 89.1389 208.5 0M0 154.5C93.9861 111.33 134.164 76.4813 189 0M0 143.5C81.2266 103.907 120.536 73.8699 174.5 0M0 133C72.5638 97.2684 107.696 68.5067 159.5 0M0 121.5C63.9147 88.3022 94.8481 61.6206 141.5 0M0 110C56.9377 76.7152 85.0446 52.7656 128 0M0 99C50.473 69.0654 75.1705 47.4017 112.5 0M0 87C45.2456 61.0828 66.9223 42.0195 98.5 0M0 77C37.7152 54.8295 56.4899 38.2564 85 0M0 65.5C31.964 44.9086 48.0824 30.7773 73 0M0 55C26.927 38.2142 40.6217 26.3943 62 0M0 45C21.1253 32.3971 31.9494 22.8091 49 0M0 35.5C16.7221 25.7293 25.3068 18.338 38.5 0M0 25C12.6664 17.8801 18.7296 12.5991 27 0M0 16C7.63669 10.871 11.4931 7.51327 17 0M0 7C3.42319 4.62691 5.10189 3.1209 7.5 0" stroke="black"/>
<path d="M0 216.5C137.589 161.738 201.223 114.766 289 0M0 204C123.998 152.537 183.365 108.723 268.5 0M0 191.5C116.206 143.145 170.555 101.553 247 0M0 179C105.309 135.741 155.564 97.062 228 0M0 168C96.647 125.328 142.701 89.1389 208.5 0M0 154.5C93.9861 111.33 134.164 76.4813 189 0M0 143.5C81.2266 103.907 120.536 73.8699 174.5 0M0 133C72.5638 97.2684 107.696 68.5067 159.5 0M0 121.5C63.9147 88.3022 94.8481 61.6206 141.5 0M0 110C56.9377 76.7152 85.0446 52.7656 128 0M0 99C50.473 69.0654 75.1705 47.4017 112.5 0M0 87C45.2456 61.0828 66.9223 42.0195 98.5 0M0 77C37.7152 54.8295 56.4899 38.2564 85 0M0 65.5C31.964 44.9086 48.0824 30.7773 73 0M0 55C26.927 38.2142 40.6217 26.3943 62 0M0 45C21.1253 32.3971 31.9494 22.8091 49 0M0 35.5C16.7221 25.7293 25.3068 18.338 38.5 0M0 25C12.6664 17.8801 18.7296 12.5991 27 0M0 16C7.63669 10.871 11.4931 7.51327 17 0M0 7C3.42319 4.62691 5.10189 3.1209 7.5 0" stroke="url(#paint0_linear_153_949)" stroke-opacity="0.27"/>
<defs>
<linearGradient id="paint0_linear_153_949" x1="-26" y1="-42" x2="118" y2="199.5" gradientUnits="userSpaceOnUse">
<stop stop-color="#010101"/>
<stop offset="1" stop-color="#67BA73"/>
</linearGradient>
</defs>
</svg>
