<svg width="172" height="172" viewBox="0 0 172 172" fill="none" xmlns="http://www.w3.org/2000/svg">
<circle cx="85.75" cy="85.75" r="67.25" stroke="#00A19A" stroke-width="3.5"/>
<path d="M85.75 27.3652C118.581 27.3652 145.196 53.9802 145.196 86.8114" stroke="#00A19A" stroke-width="3.5" stroke-linecap="round"/>
<path d="M85.75 146.258C52.9188 146.258 26.3038 119.643 26.3038 86.8115" stroke="#00A19A" stroke-width="3.5" stroke-linecap="round"/>
<path d="M61.8654 32.3582C65.8681 30.6 70.1016 29.2701 74.5078 28.4268" stroke="#00A19A" stroke-width="3.5" stroke-linecap="round"/>
<circle cx="85.75" cy="85.75" r="85" stroke="#4DC9C1" stroke-width="1.5" stroke-linecap="round" stroke-dasharray="3 3"/>
<path d="M96.2716 77.6487L103.095 64.224C103.245 63.9646 103.323 63.6705 103.323 63.371C103.323 63.0716 103.245 62.7775 103.095 62.5181C102.936 62.2762 102.717 62.0787 102.461 61.9444C102.204 61.8101 101.917 61.7434 101.628 61.7505H92.6212C92.3062 61.7515 91.9976 61.8396 91.7296 62.0052C91.4616 62.1708 91.2448 62.4074 91.103 62.6887L86.0367 72.6507L80.9193 62.6887C80.7815 62.415 80.5726 62.1834 80.3145 62.0183C80.0564 61.8532 79.7585 61.7607 79.4523 61.7505H70.4455C70.1511 61.7488 69.8613 61.8233 69.6042 61.9668C69.3472 62.1103 69.1316 62.3178 68.9785 62.5693C68.8288 62.8286 68.75 63.1228 68.75 63.4222C68.75 63.7217 68.8288 64.0158 68.9785 64.2751L75.8018 77.6999C75.9459 77.9781 76.1638 78.2111 76.4316 78.3736C76.6994 78.5361 77.0068 78.6217 77.32 78.6211H81.1751C80.9278 79.3754 80.8011 80.1641 80.7999 80.958C80.783 81.2762 80.783 81.5951 80.7999 81.9133C77.6719 83.1377 75.0697 85.416 73.4429 88.3549C71.8161 91.2937 71.2667 94.7084 71.8897 98.0092C72.5127 101.31 74.2689 104.29 76.855 106.433C79.4411 108.577 82.6947 109.75 86.0538 109.75C89.4128 109.75 92.6664 108.577 95.2525 106.433C97.8386 104.29 99.5949 101.31 100.218 98.0092C100.841 94.7084 100.291 91.2937 98.6647 88.3549C97.0378 85.416 94.4357 83.1377 91.3077 81.9133C91.3538 81.5853 91.3822 81.255 91.393 80.9239C91.4308 80.1317 91.3503 79.3383 91.1542 78.5699H94.8899C95.1796 78.5468 95.4586 78.45 95.7004 78.2888C95.9422 78.1276 96.1389 77.9073 96.2716 77.6487ZM94.7023 93.0011L90.3524 97.2486L91.3759 103.253L86.0367 100.387L80.6463 103.219L81.6698 97.2145L77.32 92.967L83.3415 92.097L86.0367 86.6214L88.7319 92.097L94.7023 93.0011ZM87.9643 80.941V81.0604C87.3266 80.9556 86.6827 80.893 86.0367 80.8727C85.4145 80.8745 84.7932 80.9201 84.1774 81.0092C84.1694 80.9756 84.1694 80.9405 84.1774 80.9069C84.1549 80.0679 84.4131 79.2455 84.9109 78.5699H87.299C87.7908 79.2477 88.0428 80.0699 88.0155 80.9069L87.9643 80.941Z" fill="#00A19A"/>
</svg>
