<svg width="32" height="32" viewBox="0 0 32 32" fill="none" xmlns="http://www.w3.org/2000/svg">
<path d="M19.0087 20.1915C18.4431 20.2591 17.9809 20.7117 17.9242 21.3017C17.8589 21.9822 18.3575 22.587 19.038 22.6523L19.4108 22.6882L19.0087 20.1915ZM31.9944 13.1801C31.9368 12.6396 31.4515 12.2484 30.9115 12.3059L27.2033 12.7011L26.5494 11.5688L26.6453 11.062C26.7961 10.2643 26.2718 9.4954 25.4741 9.34452L22.8985 8.85746C22.1008 8.70659 21.332 9.2309 21.1811 10.0286L19.8229 17.2102C19.7944 17.3608 19.7921 17.5152 19.8161 17.6667C19.9165 18.2935 20.2887 20.6142 21.6529 29.1013C21.7617 29.7774 22.3987 30.2356 23.0719 30.1266C23.7469 30.0179 24.206 29.3826 24.0972 28.7076L22.3609 17.9269L23.6082 18.1627L23.6426 18.1692L24.4868 20.6886L24.0076 20.6425L24.4145 23.1689L26.1479 23.3355C26.3533 23.3552 26.5604 23.3233 26.7503 23.2427C26.9402 23.162 27.107 23.0351 27.2354 22.8736C27.3638 22.7121 27.4498 22.521 27.4855 22.3178C27.5213 22.1146 27.5056 21.9056 27.4401 21.71L26.1015 17.7147L23.3821 16.817C22.549 16.5419 22.1093 15.7642 22.0913 15.2779L21.9422 11.2501L23.0371 15.2429C23.1195 15.5432 23.3537 15.811 23.6788 15.9184L27.4188 17.1531L27.4208 17.1536C27.9462 17.3266 28.497 17.0319 28.6639 16.526C28.8361 16.0043 28.5479 15.4498 28.0368 15.2808L24.7986 14.2118L23.8071 10.596L25.4383 13.4263L28.3336 14.3821C28.4467 14.4196 28.5562 14.4675 28.6606 14.5252L31.1201 14.263C31.6606 14.2053 32.052 13.7205 31.9944 13.1801ZM16.3411 8.99352C16.0779 8.55646 15.5101 8.41559 15.0731 8.67896L12.2226 10.3961L11.1412 9.19477C11.2398 8.4719 10.7571 7.79065 10.032 7.65353L7.61409 7.19628C7.03822 7.08741 6.47934 7.35416 6.18703 7.82353L8.0729 7.86784L4.26929 8.66715C3.95479 8.73328 3.7086 8.95759 3.59992 9.23015L2.23061 12.6648C2.03092 13.1651 2.30055 13.7426 2.83504 13.8971C3.28248 14.0266 3.77192 13.797 3.94991 13.3503L5.13547 10.3766L8.58008 9.65271L5.83522 11.0206C5.83522 11.0206 4.21229 15.3506 3.92885 16.1277C3.90061 16.2051 3.89019 16.2879 3.89836 16.3699C3.90653 16.4518 3.93308 16.5309 3.97605 16.6012C4.01901 16.6716 4.07727 16.7313 4.1465 16.7759C4.21573 16.8206 4.29415 16.8491 4.37591 16.8593L4.69541 16.8992V18.8034L1.34374 18.2735C0.710178 18.1733 0.114618 18.6059 0.0144305 19.24C-0.0858191 19.8739 0.346929 20.4691 0.980864 20.5693L5.67603 21.3115C5.84193 21.3377 6.01154 21.3277 6.17318 21.282C6.33482 21.2364 6.48465 21.1563 6.61235 21.0472C6.74004 20.9381 6.84257 20.8026 6.91286 20.6501C6.98316 20.4975 7.01955 20.3316 7.01953 20.1636V17.189L8.02521 17.3145L8.8879 19.8892L9.56708 25.4107C9.64521 26.0462 10.2233 26.5006 10.8624 26.4222C11.4994 26.3439 11.9523 25.7638 11.8739 25.1269L11.1804 19.4892C11.1709 19.4119 11.1536 19.3358 11.1289 19.2619L10.5808 17.6257C10.7146 17.6217 10.8423 17.5688 10.9398 17.4769C10.9985 17.4213 11.0442 17.3534 11.0737 17.2781C11.1031 17.2028 11.1155 17.1219 11.1099 17.0412L10.7291 11.4988L11.3594 12.199C11.446 12.2953 11.552 12.3724 11.6704 12.4251C11.7888 12.4777 11.9169 12.5049 12.0465 12.5048C12.2099 12.5048 12.3748 12.4615 12.5228 12.3723L16.0264 10.2616C16.4636 9.99839 16.6044 9.43058 16.3411 8.99352Z" fill="#FAFAFA"/>
<path d="M25.2227 8.38902C26.6637 8.38902 27.8318 7.22091 27.8318 5.77996C27.8318 4.33902 26.6637 3.1709 25.2227 3.1709C23.7818 3.1709 22.6136 4.33902 22.6136 5.77996C22.6136 7.22091 23.7818 8.38902 25.2227 8.38902Z" fill="#FAFAFA"/>
<path d="M10.2514 1.9004C8.92218 1.64903 7.64087 2.52278 7.3895 3.85197C7.35687 4.02495 7.34292 4.20094 7.34787 4.3769L7.2985 4.15359C7.2824 4.08538 7.2401 4.02624 7.18074 3.98897C7.12139 3.95169 7.04975 3.93927 6.98131 3.9544C6.91287 3.96953 6.85314 4.01098 6.81502 4.0698C6.77691 4.12862 6.76347 4.20007 6.77762 4.26872L6.79756 4.35878C6.56993 4.13884 6.27912 4.11847 6.00906 4.19565C5.63075 4.30372 4.99287 4.55765 4.31906 5.46697C4.30254 5.48915 4.29294 5.51572 4.29146 5.54334C4.28998 5.57096 4.29668 5.5984 4.31073 5.62223C4.32478 5.64605 4.34555 5.6652 4.37043 5.67727C4.39532 5.68935 4.42321 5.69381 4.45062 5.69009C5.36406 5.56884 6.18856 5.98209 6.55981 5.87597C6.77931 5.81334 6.94918 5.66259 7.04412 5.47353L7.0655 5.57034C7.08078 5.6394 7.12287 5.69957 7.1825 5.73761C7.24213 5.77565 7.31443 5.78846 7.3835 5.77322C7.45255 5.75791 7.5127 5.71583 7.55074 5.6562C7.58878 5.59657 7.6016 5.52429 7.58637 5.45522L7.547 5.27722C7.85875 5.99822 8.51112 6.55684 9.34112 6.71378C10.6703 6.96522 11.9516 6.0914 12.203 4.76222C12.4542 3.43309 11.5806 2.15184 10.2514 1.9004Z" fill="#FAFAFA"/>
</svg>
