<svg width="80" height="80" viewBox="0 0 80 80" fill="none" xmlns="http://www.w3.org/2000/svg">
<path d="M79.6788 38.1566C79.4986 37.852 79.6821 37.2039 79.0135 37.2727C78.3728 37.3393 78.3247 37.8492 78.2756 38.3231C78.2625 38.4503 78.2444 38.5776 78.2209 38.7053C78.298 36.897 77.8386 34.9463 77.9342 32.9982C77.967 32.3108 77.7638 31.5814 77.4508 30.9295C77.0351 30.0625 76.8958 29.142 76.9248 28.1996C76.957 27.1623 76.7445 26.1686 76.5206 25.1646C76.0978 23.2624 75.0523 21.6321 74.2914 19.8784C72.8221 16.4972 70.9376 13.407 68.165 10.8933C66.913 9.75877 65.7468 8.5205 64.5342 7.33901C62.4761 5.33145 60.189 3.65422 57.3689 2.82979C56.0831 2.45362 54.836 2.37172 53.6108 3.03999C53.087 3.32663 52.5277 3.53683 51.8586 3.45057C52.4425 3.48278 52.9313 3.36976 53.1427 2.80468C53.3394 2.28054 53.069 1.89781 52.7719 1.47195C52.1022 0.508849 51.0911 0.379999 50.1008 0.393103C47.8121 0.422039 45.5426 0.245689 43.273 0H34.162C33.979 0.169252 33.7474 0.109195 33.5306 0.136494C31.5281 0.398016 29.4432 0.181264 27.5221 0.873015C25.7595 1.50471 24.0039 2.15278 22.1975 2.65999C20.9789 3.00177 19.8553 3.51226 18.888 4.35252C16.4939 6.42723 14.0441 8.44242 11.8171 10.6935C10.664 11.8586 9.22472 12.873 8.57635 14.3957C7.61063 16.6599 6.50617 18.8405 5.35363 21.0064C4.95544 21.7489 4.67522 22.5646 4.6206 23.424C4.60039 23.7745 4.6867 24.1693 5.09582 24.2495C5.16851 24.2656 5.24412 24.2625 5.31526 24.2406C5.38641 24.2187 5.45063 24.1787 5.50166 24.1245C4.86286 25.2842 4.29732 26.4828 3.80837 27.7132C3.95694 28.139 3.80837 28.5753 3.86299 28.9689C3.83404 29.5389 3.71496 30.0789 3.3479 30.5381C3.27252 30.3197 3.20643 30.1013 3.15454 29.8829C3.0288 30.008 2.87645 30.1032 2.70882 30.1613C2.17243 31.9631 1.78461 33.8025 1.606 35.6631C1.45251 37.2809 0.535943 38.6786 0.493884 40.3329C0.460856 41.5843 0.577296 42.8353 0.840736 44.0592C0.759561 43.9952 0.656882 43.9649 0.553968 43.9745C0.232243 43.9925 0.119721 44.2475 0.0377873 44.5107C-0.0441463 44.7738 0.0317788 45.0375 0.0377873 45.3018C0.133923 48.9451 1.37057 52.3416 2.43735 55.7485C3.24521 58.3293 4.43816 60.8299 5.78461 63.1634C7.39433 65.9539 9.91296 68.069 12.312 70.2114C13.2083 71.0118 14.2145 71.6855 15.1185 72.4887C15.7089 73.0128 16.3043 71.9776 16.9052 72.4264C17.4383 72.8244 17.1133 73.6647 17.843 74.0605C20.0372 75.2529 22.1314 76.6315 24.4409 77.6094C25.0144 77.8529 25.6087 78.1635 26.2434 78.0259C27.8985 77.6694 29.4519 78.1215 30.9737 78.6232C33.2099 79.3619 35.414 79.4559 37.6464 78.6707C38.1167 78.507 38.6787 78.3606 39.0911 78.5943C41.0029 79.6803 42.841 79.3636 44.6894 78.4693C44.7674 78.4283 44.8539 78.4059 44.942 78.4038C45.0301 78.4018 45.1175 78.42 45.1974 78.4573C44.986 78.8657 44.2688 79.0835 44.5419 79.6393C44.7937 80.1465 45.4159 79.9571 45.8943 79.9669C47.6461 80.0067 49.4104 80.0482 51.1457 79.8484C52.7254 79.6682 54.5323 79.8659 55.5221 78.0942C55.6433 77.8758 55.9503 77.7835 56.1836 77.6503C58.8601 76.1276 61.4584 74.476 64.1999 73.0565C65.9763 72.1365 67.5008 70.7852 68.9723 69.4154C69.6228 68.8104 69.9937 68.0035 69.3913 67.2773C68.7156 66.4649 67.9356 67.2003 67.4358 67.6207C66.0434 68.7902 64.691 69.9985 63.2397 70.7732C63.6188 69.8303 64.2267 68.7951 65.1733 68.0641C67.167 66.5239 68.8259 64.649 70.4831 62.7878C71.7187 61.3999 73.2503 60.2135 73.9702 58.42C74.3581 57.4508 74.9316 56.6373 75.569 55.8178C76.5724 54.5282 77.8828 53.3811 78.1975 51.6788C78.806 48.3844 79.6723 45.1358 80 41.7906V38.8424C79.8826 38.6174 79.7941 38.351 79.6788 38.1566ZM1.04011 44.8716C1.06796 44.9808 1.0991 45.0829 1.13023 45.1871C1.09004 45.0851 1.05985 44.9794 1.04011 44.8716ZM28.8997 7.38924C27.5806 8.68538 26.0528 8.96711 24.6337 9.47596C25.7835 8.45225 27.0584 7.65567 28.8997 7.38924ZM11.6609 17.083C11.9679 16.1549 12.4431 15.3184 13.3159 14.9024C14.3341 14.4176 15.2823 13.8274 16.1967 13.2143C14.4564 14.47 12.7124 15.7334 11.4905 17.5427C11.5522 17.3953 11.6117 17.2414 11.6609 17.083ZM10.9131 18.5173C10.7279 18.8591 10.4018 19.3013 9.82885 19.2953C10.2514 19.1336 10.6245 18.8657 10.9131 18.5173ZM8.22076 19.8473C7.87664 20.1378 7.59534 20.5167 7.34189 20.9251C7.58168 20.5096 7.8537 20.1208 8.22076 19.8473ZM16.1416 27.9529C15.9449 27.1492 16.259 26.7768 16.8882 26.4411C17.0472 27.1765 16.7222 27.5407 16.1416 27.9529ZM13.1832 36.3724C12.9396 35.7041 13.3154 35.1712 13.476 34.4134C14.0364 35.2389 13.866 35.8542 13.606 36.4422C13.535 36.6039 13.2509 36.5525 13.1832 36.3724ZM15.5997 59.929C14.6001 59.2668 13.8463 58.4249 13.3962 56.9808C14.7159 57.7904 15.2419 58.7978 15.5997 59.929ZM22.9956 75.2256C22.493 75.1754 22.1866 74.8746 22.1473 74.3646C22.126 74.0916 22.2265 73.7553 22.5553 73.84C23.0054 73.9562 23.2419 74.3575 23.3522 74.7195C23.3894 75.0771 23.2545 75.2513 22.9928 75.2256H22.9956ZM28.5545 74.9581C26.6973 74.0332 24.7309 73.508 22.7399 73.0281C21.4785 72.7351 20.3257 72.0916 19.4145 71.1718C18.1249 69.8909 16.4616 69.0184 15.3009 67.5749C15.0584 67.2729 14.6454 67.0939 14.617 66.5468C16.3256 66.157 17.5361 67.0114 18.5307 68.182C19.3594 69.1588 20.3382 69.7058 21.5781 69.9324C22.9213 70.1775 24.1088 70.7099 24.9571 71.887C25.9375 73.2459 27.4358 73.5064 28.9887 73.6554C29.4219 73.6974 30.4542 73.3278 29.9752 74.5492C29.896 74.7517 30.2625 74.9532 30.5531 75.0002C30.9743 75.0684 31.4085 75.1295 31.8755 75.8355C30.5575 75.503 29.4639 75.4118 28.5518 74.9581H28.5545ZM33.0199 70.4767C35.9148 70.046 38.7552 70.7213 41.6354 70.8726C38.6503 72.6464 35.8646 71.1095 33.0144 70.4762L33.0199 70.4767ZM54.3422 7.95432C53.5666 7.98217 52.9991 7.84513 52.4851 7.45639C53.1526 7.08458 53.7359 7.13754 54.3422 7.95432ZM50.6416 6.11875C48.4703 6.82197 48.4512 6.81978 47.3566 5.79881C48.4392 5.46631 49.3689 5.73984 50.6416 6.11875ZM45.784 70.432C49.3825 69.9744 52.8778 69.1948 56.0306 67.238C55.0835 69.3493 48.1546 71.4513 45.784 70.432ZM64.2431 10.985C65.3656 11.4158 65.7097 12.2697 66.1308 13.0532C65.1635 12.7605 64.4867 12.2075 64.2431 10.985Z" fill="#FAFAFA"/>
<g clip-path="url(#clip0_508_3506)">
<path d="M56.8269 51.122L55.3994 50.7145L54.7219 49.6538C55.1991 49.4084 55.6053 49.0445 55.9016 48.597C56.1978 48.1495 56.3742 47.6334 56.4138 47.0982L56.605 44.422V44.4201L56.6162 44.2657C56.6212 44.197 56.6244 44.1282 56.6256 44.0601L56.6263 43.9576V43.9557C56.6186 42.9586 56.2383 42.0004 55.56 41.2695C55.187 40.8699 54.7359 40.5512 54.2347 40.3331C53.7335 40.115 53.1929 40.0021 52.6463 40.0013H52.3544L52.2306 40.0032L52.18 40.0051L52.1163 40.0082C51.4135 40.0477 50.734 40.2738 50.1478 40.6634C49.5615 41.053 49.0898 41.5918 48.7812 42.2245C48.7745 42.2388 48.7682 42.2534 48.7625 42.2682C48.4657 42.8901 48.3352 43.5783 48.3838 44.2657L48.5862 47.0982C48.6259 47.6335 48.8023 48.1496 49.0987 48.5971C49.3951 49.0446 49.8014 49.4084 50.2787 49.6538L49.6012 50.7145L48.1737 51.122L48.1256 51.1363V50.8213C48.125 50.4951 48.0395 50.1747 47.8775 49.8915C47.7156 49.6084 47.4827 49.3722 47.2019 49.2063C47.19 49.1988 47.1781 49.1932 47.1662 49.187L42.9888 47.077L42.1956 45.887C42.6811 45.6418 43.0947 45.2751 43.3961 44.8225C43.6976 44.3699 43.8766 43.8469 43.9156 43.3045L44.1062 39.3901C44.1472 38.8249 44.0713 38.2573 43.8834 37.7226C43.6954 37.188 43.3994 36.6978 43.0137 36.2826C42.628 35.8693 42.1616 35.5397 41.6433 35.314C41.125 35.0884 40.5659 34.9715 40.0006 34.9707C39.4497 34.9715 38.9045 35.0825 38.3971 35.2971C37.8897 35.5118 37.4304 35.8258 37.0463 36.2207H36.25C34.5269 36.2207 33.125 37.6226 33.125 39.3457V43.0957C33.125 43.2615 33.1908 43.4204 33.3081 43.5376C33.4253 43.6549 33.5842 43.7207 33.75 43.7207H36.1413C36.2376 44.1837 36.4372 44.619 36.7252 44.9942C37.0131 45.3694 37.382 45.6748 37.8044 45.8876L37.0144 47.0726L32.8194 49.1282C32.5328 49.2924 32.2946 49.5292 32.1287 49.8148C31.9629 50.1005 31.8754 50.4248 31.875 50.7551V51.1363L31.8269 51.122L30.3994 50.7145L29.7219 49.6538C30.1991 49.4083 30.6053 49.0444 30.9017 48.5969C31.198 48.1495 31.3746 47.6334 31.4144 47.0982L31.6056 44.4213V44.4201L31.6169 44.2657C31.6219 44.197 31.625 44.1282 31.6262 44.0601L31.6269 43.9576C31.6193 42.9595 31.2385 42.0003 30.5594 41.2688C30.1863 40.8693 29.7353 40.5506 29.2341 40.3325C28.7329 40.1144 28.1922 40.0014 27.6456 40.0007H27.3544C27.2964 40.0007 27.2385 40.002 27.1806 40.0045L27.1169 40.0076C26.4141 40.0469 25.7345 40.273 25.1483 40.6626C24.562 41.0522 24.0904 41.5911 23.7819 42.2238C23.7751 42.238 23.7688 42.2524 23.7631 42.267C23.466 42.8892 23.3353 43.5779 23.3838 44.2657L23.5862 47.0982C23.626 47.6335 23.8024 48.1495 24.0988 48.597C24.3951 49.0445 24.8014 49.4084 25.2788 49.6538L24.6012 50.7145L23.1738 51.122C22.261 51.3855 21.4582 51.9378 20.886 52.6962C20.3138 53.4546 20.0029 54.3781 20 55.3282V59.3751C20 59.5408 20.0658 59.6998 20.1831 59.817C20.3003 59.9342 20.4592 60.0001 20.625 60.0001H34.375C34.5408 60.0001 34.6997 59.9342 34.8169 59.817C34.9342 59.6998 35 59.5408 35 59.3751V55.3282C35 55.2168 34.9956 55.1055 34.9869 54.9945L45.0144 54.9751C45.0049 55.0925 45.0001 55.2104 45 55.3282V59.3751C45 59.5408 45.0658 59.6998 45.1831 59.817C45.3003 59.9342 45.4592 60.0001 45.625 60.0001H59.375C59.5408 60.0001 59.6997 59.9342 59.8169 59.817C59.9342 59.6998 60 59.5408 60 59.3751V55.3282C59.9971 54.3783 59.6862 53.4549 59.1141 52.6965C58.542 51.9381 57.7395 51.3857 56.8269 51.122ZM54.7856 53.7676L53.6188 53.067L54.5525 52.367L54.7856 53.7676ZM51.3812 53.067L50.2144 53.7676L50.4475 52.367L51.3812 53.067ZM53.4594 50.0001L54.1613 51.0982L52.5 52.3438L50.8387 51.0982L51.54 50.0001H53.4594ZM52.645 41.2501C53.0202 41.2483 53.3917 41.3247 53.7357 41.4745C54.0798 41.6243 54.3888 41.8442 54.6431 42.1201C54.9497 42.4469 55.1707 42.8446 55.2863 43.2776L55.3 43.3307L55.3056 43.3545L55.3144 43.3932L55.3206 43.4226L55.3275 43.457L55.3338 43.4907L55.3387 43.5195L55.345 43.557L55.3487 43.5813L55.355 43.6245L55.3569 43.6376C55.3694 43.7382 55.3763 43.8395 55.3775 43.9426C54.6664 44.1909 53.9029 44.2499 53.162 44.1139C52.4212 43.978 51.7285 43.6516 51.1519 43.167L50.1669 42.3463C50.4361 41.9845 50.7909 41.695 51.1994 41.5038C51.4607 41.3827 51.7396 41.3036 52.0256 41.2695L52.0356 41.2682L52.1006 41.2613L52.1181 41.2595L52.1769 41.2551L52.1988 41.2538L52.2525 41.2513L52.2781 41.2501H52.3544H52.645ZM49.6294 44.1763C49.6142 43.9666 49.623 43.7559 49.6556 43.5482L50.3506 44.1276C51.3575 44.9713 52.6289 45.4343 53.9425 45.4357C54.3931 45.4357 54.8456 45.3807 55.2912 45.2701L55.1669 47.0095C55.1315 47.4817 54.9193 47.9232 54.5726 48.2459C54.226 48.5685 53.7704 48.7486 53.2969 48.7501H51.7019C51.2282 48.7486 50.7726 48.5684 50.4259 48.2456C50.0793 47.9229 49.8671 47.4812 49.8319 47.0088L49.6294 44.1763ZM37.6513 48.5651L39.375 50.2888V50.5951H36.6363L37.6513 48.5651ZM40.625 50.2888L42.3487 48.5651L43.3637 50.5951H40.625V50.2888ZM37.1388 38.9063C37.1799 38.2478 37.4496 37.6242 37.9013 37.1432C38.1685 36.8537 38.493 36.6231 38.8542 36.4659C39.2155 36.3087 39.6054 36.2284 39.9994 36.2301C40.3933 36.2283 40.7833 36.3086 41.1446 36.4658C41.5058 36.623 41.8303 36.8537 42.0975 37.1432C42.6084 37.6877 42.884 38.4118 42.8644 39.1582L38.9094 38.1063C38.7509 38.0654 38.5828 38.0871 38.44 38.167L37.1388 38.9063ZM34.375 39.3451C34.3756 38.8541 34.5685 38.3828 34.9125 38.0324C35.2565 37.682 35.7241 37.4803 36.215 37.4707C35.9589 38.0714 35.8484 38.7242 35.8925 39.3757L36.0444 42.4701H34.375V39.3451ZM37.19 40.3145L38.8363 39.3795L42.8038 40.4345L42.6681 43.2282C42.6326 43.7006 42.4203 44.1421 42.0736 44.4649C41.7268 44.7876 41.2712 44.9678 40.7975 44.9695H39.2031C38.2244 44.9695 37.4025 44.2045 37.3337 43.242L37.19 40.3145ZM40.9156 46.2201L41.6956 47.3907L40 49.0863L38.3044 47.3907L39.0844 46.2201H40.9156ZM29.5525 52.367L29.7862 53.7676L28.6187 53.067L29.3956 52.4845L29.5525 52.367ZM28.46 50.0001L29.1612 51.0982L27.9156 52.0326L27.5 52.3438L25.8388 51.0982L26.54 50.0001H28.46ZM25.4469 52.367L25.8475 52.667L26.3813 53.067L25.2138 53.7676L25.4469 52.367ZM27.645 41.2501C28.4113 41.2501 29.1213 41.5588 29.6438 42.1201C29.8725 42.3657 30.05 42.6432 30.1731 42.942L30.1737 42.9426C30.2262 43.0701 30.2688 43.2013 30.3013 43.3357L30.3025 43.3413C30.3069 43.3607 30.3119 43.3801 30.3156 43.4001L30.3188 43.4138L30.3287 43.4645L30.3319 43.4826L30.3406 43.5332L30.3431 43.5482L30.3506 43.6007L30.3525 43.6163L30.3594 43.6732L30.3606 43.6826L30.3669 43.7501L30.3719 43.8195L30.3725 43.8288C30.3749 43.8667 30.3761 43.9046 30.3762 43.9426C29.6652 44.1904 28.9019 44.2493 28.1612 44.1133C27.4205 43.9773 26.7279 43.6512 26.1513 43.167L25.1662 42.3463C25.225 42.2682 25.2881 42.1932 25.3556 42.1207C25.6283 41.8262 25.9627 41.5957 26.335 41.4457L26.3456 41.4413L26.4081 41.4176L26.4156 41.4151C26.61 41.3445 26.8144 41.2957 27.025 41.2707L27.0369 41.2695C27.0579 41.2671 27.0789 41.265 27.1 41.2632L27.1188 41.2613L27.1769 41.257C27.1844 41.2562 27.1919 41.2558 27.1994 41.2557L27.2525 41.2532L27.2787 41.252C27.3031 41.2507 27.3288 41.2501 27.3544 41.2501H27.645ZM24.63 44.1763C24.6148 43.9666 24.6236 43.7559 24.6562 43.5482L25.3513 44.1276C26.358 44.9714 27.6295 45.4345 28.9431 45.4357C29.3931 45.4357 29.8462 45.3807 30.2919 45.2701L30.1675 47.0095C30.1318 47.4817 29.9194 47.9231 29.5727 48.2457C29.226 48.5684 28.7705 48.7484 28.2969 48.7501H26.7025C26.2288 48.7486 25.7732 48.5684 25.4265 48.2456C25.0799 47.9229 24.8677 47.4812 24.8325 47.0088L24.63 44.1763ZM33.75 58.7501H21.25V55.3282C21.2521 54.6496 21.4742 53.9901 21.8829 53.4484C22.2916 52.9067 22.865 52.5121 23.5169 52.3238L24.2213 52.1226L23.7587 54.897C23.7435 54.9865 23.7481 55.0783 23.7721 55.166C23.7961 55.2536 23.8389 55.3349 23.8976 55.4043C23.9563 55.4736 24.0294 55.5293 24.1119 55.5675C24.1943 55.6056 24.2841 55.6253 24.375 55.6251C24.4884 55.6252 24.5998 55.5943 24.6969 55.5357L27.5 53.8538L30.3031 55.5357C30.4054 55.5976 30.5233 55.6288 30.6429 55.6253C30.7624 55.6219 30.8783 55.584 30.9769 55.5163C31.0755 55.4493 31.1528 55.3553 31.1996 55.2457C31.2465 55.136 31.2609 55.0152 31.2413 54.8976L30.7788 52.1232L31.4838 52.3245C31.7006 52.3863 31.9069 52.4713 32.1006 52.5751C32.1275 52.5976 32.1556 52.6176 32.1862 52.6357C32.5411 52.8401 32.8518 53.1129 33.1004 53.4383C33.3489 53.7637 33.5305 54.1352 33.6344 54.5313C33.6438 54.5663 33.6556 54.6001 33.6706 54.632C33.7225 54.8576 33.75 55.0907 33.75 55.3282V58.7501ZM34.7006 53.7457C34.3838 52.9371 33.8358 52.2398 33.125 51.7407V50.7545C33.125 50.5313 33.2456 50.3232 33.405 50.2307L36.0744 48.9232L35.0663 50.9401C35.0185 51.0354 34.9959 51.1414 35.0006 51.2479C35.0054 51.3544 35.0373 51.458 35.0934 51.5487C35.1494 51.6394 35.2278 51.7142 35.3209 51.7661C35.4141 51.818 35.519 51.8452 35.6256 51.8451H44.3756C44.4822 51.845 44.587 51.8177 44.68 51.7658C44.7731 51.7139 44.8514 51.639 44.9074 51.5484C44.9634 51.4577 44.9954 51.3543 45.0002 51.2478C45.005 51.1414 44.9826 51.0354 44.935 50.9401L43.9444 48.9588L46.5825 50.2913C46.7638 50.4051 46.8762 50.6063 46.8762 50.8207V51.7407C46.1718 52.2348 45.6271 52.9241 45.3094 53.7238L34.7006 53.7457ZM58.75 58.7501H46.25V55.3282C46.25 55.082 46.2794 54.8407 46.335 54.6082C46.3491 54.5775 46.3605 54.5458 46.3694 54.5132C46.5831 53.7207 47.1026 53.0455 47.8137 52.6357C47.8444 52.6178 47.8735 52.5973 47.9006 52.5745C48.0937 52.4707 48.3 52.3863 48.5162 52.3245L49.2213 52.1232L48.7587 54.8976C48.739 55.0154 48.7534 55.1363 48.8003 55.2462C48.8472 55.356 48.9246 55.4501 49.0233 55.5172C49.1221 55.5844 49.238 55.6219 49.3574 55.6251C49.4768 55.6284 49.5946 55.5974 49.6969 55.5357L52.5 53.8538L55.3031 55.5357C55.4054 55.5973 55.5232 55.6282 55.6425 55.6248C55.7619 55.6213 55.8777 55.5837 55.9763 55.5163C56.0749 55.4493 56.1523 55.3554 56.1993 55.2457C56.2462 55.1361 56.2608 55.0153 56.2413 54.8976L55.7787 52.1232L56.4838 52.3245C57.1355 52.5127 57.7087 52.9072 58.1173 53.4488C58.5258 53.9904 58.7479 54.6498 58.75 55.3282V58.7501Z" fill="#00A19A"/>
<path d="M26.7232 38.5856C25.4475 33.8437 26.8094 28.7444 30.2769 25.2769C32.5241 23.0253 35.4855 21.6268 38.6519 21.3219L36.4644 23.5094C36.2282 23.7456 36.0982 24.0594 36.0982 24.3931C36.0982 24.7269 36.2282 25.0406 36.4644 25.2769L37.9957 26.8081L37.2425 30.5719C37.202 30.7736 37.212 30.9822 37.2717 31.1792C37.3313 31.3761 37.4388 31.5553 37.5844 31.7006L39.5575 33.6737C39.8013 33.9175 40.1213 34.0394 40.4413 34.0394C40.7613 34.0394 41.0813 33.9175 41.325 33.6737L42.5775 32.4212L41.6938 31.5375L40.4413 32.79L38.4682 30.8169L39.2213 27.0531C39.2618 26.8514 39.2518 26.6427 39.1922 26.4458C39.1325 26.2488 39.0251 26.0697 38.8794 25.9244L37.3482 24.3931L40.4769 21.2644C43.5323 21.3651 46.4664 22.4844 48.8125 24.4444L48.8157 24.4469L48.9394 24.5519C48.9445 24.5564 48.9497 24.5608 48.955 24.565L49.0619 24.6575L49.0925 24.6844L49.1875 24.7687L49.2244 24.8019L49.3125 24.8825L49.3507 24.9175L49.4388 25.0006L49.4769 25.0369L49.5632 25.12L49.6013 25.1569C49.6419 25.1969 49.6825 25.2362 49.7225 25.2769C49.8286 25.3823 49.9326 25.4898 50.0344 25.5994L50.0469 25.6125C51.2581 26.9108 52.2058 28.4319 52.8375 30.0912L48.0782 32.4712L47.3075 31.7006L47.6182 30.1469C47.6588 29.9451 47.6489 29.7365 47.5892 29.5395C47.5295 29.3425 47.422 29.1634 47.2763 29.0181L46.6288 28.3706C46.3941 28.1367 46.0763 28.0054 45.745 28.0054C45.4137 28.0054 45.0959 28.1367 44.8613 28.3706L42.7488 30.4831L43.6325 31.3669L45.745 29.2544L46.3925 29.9012L46.0819 31.4537C46.0409 31.6558 46.0507 31.8648 46.1103 32.0622C46.17 32.2595 46.2777 32.4389 46.4238 32.5844L47.1944 33.355C47.3798 33.5408 47.619 33.6635 47.8781 33.7056C48.1372 33.7477 48.4029 33.707 48.6375 33.5894L53.2338 31.2906C53.9032 33.6747 53.9179 36.1951 53.2763 38.5869L54.4838 38.9119C55.2446 36.0752 55.1579 33.0779 54.2344 30.29C54.2288 30.2593 54.221 30.229 54.2113 30.1994C53.5331 28.175 52.4257 26.3208 50.965 24.7637L50.9475 24.745L50.8119 24.6025L50.7732 24.5619C50.6738 24.46 50.5733 24.3592 50.4719 24.2594L50.4344 24.2231C50.4018 24.1911 50.3689 24.1595 50.3357 24.1281L50.2932 24.0881C50.2149 24.0142 50.1357 23.9413 50.0557 23.8694L50.0225 23.8394L49.9113 23.7406L49.8882 23.7206L49.7644 23.6131L49.7525 23.6031C47.1003 21.3258 43.7324 20.0525 40.2369 20.0056C40.2202 20.0057 40.2035 20.0068 40.1869 20.0087C36.2838 19.9606 32.365 21.4225 29.3932 24.3937C25.6107 28.1756 24.125 33.7381 25.5163 38.9106L26.7232 38.5856Z" fill="#00A19A"/>
<path d="M30.1088 33.063L31.0282 33.983C31.2032 34.1574 31.4232 34.2755 31.6663 34.3242L33.15 34.6211C33.4488 34.6801 33.7588 34.6283 34.0222 34.4755C34.2855 34.3226 34.4843 34.0791 34.5813 33.7905L35.2325 31.8355C35.3082 31.6099 35.3175 31.3686 35.2594 31.1367L34.4613 27.9461C34.4065 27.7261 34.2929 27.5252 34.1325 27.3649L32.9294 26.1617C32.4575 25.6892 31.6344 25.6892 31.1613 26.1617L30.1538 27.1692C29.9683 27.3547 29.8458 27.5938 29.8039 27.8527C29.7619 28.1117 29.8026 28.3772 29.92 28.6117L30.4863 29.7442V29.7455L29.8063 31.7855C29.7322 32.0054 29.7212 32.2417 29.7747 32.4675C29.8282 32.6934 29.9439 32.8997 30.1088 33.063ZM31.6044 29.1855L31.0375 28.0524L32.045 27.0455L33.2482 28.2486L34.0463 31.4392L33.3944 33.3955L31.9113 33.0986L30.9925 32.1792L31.6725 30.1392C31.7247 29.9837 31.7455 29.8188 31.7338 29.6552C31.7221 29.4917 31.6781 29.332 31.6044 29.1855Z" fill="#00A19A"/>
</g>
<defs>
<clipPath id="clip0_508_3506">
<rect width="40" height="40" fill="white" transform="translate(20 20)"/>
</clipPath>
</defs>
</svg>
