<svg width="87" height="128" viewBox="0 0 87 128" fill="none" xmlns="http://www.w3.org/2000/svg">
<path d="M26.2016 48.1867C26.2016 47.3835 9.84301 16.3942 1.66371 1H17.7077H33.7517L45.033 25.0953M54.5146 1H69.6148M63.9522 48.1867L84.715 1H69.6148M69.6148 1L50.7395 44.1708" stroke="#26B3AB" stroke-width="2" stroke-linecap="round"/>
<path d="M43.1889 44.167C64.4708 44.167 81.8276 62.539 81.8276 85.334C81.8275 108.129 64.4708 126.501 43.1889 126.501C21.9073 126.501 4.55133 108.129 4.55124 85.334C4.55124 62.5392 21.9072 44.1672 43.1889 44.167Z" stroke="#008C86" stroke-width="2"/>
<path d="M43.1896 60.2305C56.1318 60.2306 66.7277 71.4107 66.7277 85.334C66.7276 99.2571 56.1317 110.436 43.1896 110.437C30.2474 110.437 19.6517 99.2572 19.6515 85.334C19.6515 71.4107 30.2474 60.2305 43.1896 60.2305Z" stroke="#008C86" stroke-width="2"/>
<path d="M17.7077 1L38.4705 44.1708" stroke="#26B3AB" stroke-width="2" stroke-linecap="round"/>
<path d="M38.4705 44.1708L54.5145 1" stroke="#26B3AB" stroke-width="2" stroke-linecap="round"/>
</svg>
