<svg width="24" height="24" viewBox="0 0 24 24" fill="none" xmlns="http://www.w3.org/2000/svg">
<path d="M20.4688 17.4881C18.5216 17.4881 16.9375 19.0722 16.9375 21.0193V23.9285H24V21.0193C24 19.0722 22.4159 17.4881 20.4688 17.4881ZM3.53123 17.4881C1.58409 17.4881 0 19.0722 0 21.0193V23.9285H7.06252V21.0193C7.06252 19.0722 5.47837 17.4881 3.53123 17.4881ZM12 17.4881C10.0529 17.4881 8.46877 19.0722 8.46877 21.0193V23.9285H15.5313V21.0193C15.5312 19.0722 13.9471 17.4881 12 17.4881ZM11.2969 0H12.7031V2.10937H11.2969V0ZM7.62258 0.804609L8.95992 0.370078L9.61172 2.37609L8.27437 2.81062L7.62258 0.804609ZM4.37813 2.70408L5.51578 1.8772L6.75609 3.58364L5.61844 4.41052L4.37813 2.70408ZM1.87889 5.51644L2.70577 4.37878L4.41225 5.61909L3.58537 6.75675L1.87889 5.51644ZM0.369609 8.96039L0.804141 7.62305L2.81016 8.27484L2.37563 9.61219L0.369609 8.96039ZM0 11.2969H2.10938V12.7031H0V11.2969ZM21.8906 11.2969H24V12.7031H21.8906V11.2969ZM21.188 8.27452L23.194 7.62272L23.6285 8.96006L21.6225 9.61186L21.188 8.27452ZM19.5891 5.61337L21.2956 4.37306L22.1225 5.51072L20.416 6.75103L19.5891 5.61337ZM17.2484 3.5858L18.4887 1.87927L19.6263 2.70614L18.386 4.41262L17.2484 3.5858ZM14.3874 2.37703L15.0392 0.371016L16.3766 0.805547L15.7248 2.81156L14.3874 2.37703Z" fill="#00A19A"/>
<path d="M8.98382 8.6666C9.65751 7.99291 9.65751 6.90064 8.98382 6.22695C8.31013 5.55326 7.21786 5.55326 6.54417 6.22695C5.87048 6.90064 5.87048 7.99291 6.54417 8.6666C7.21786 9.34029 8.31013 9.34029 8.98382 8.6666Z" fill="#00A19A"/>
<path d="M16.6302 9.11946C17.5572 8.89962 18.1306 7.9699 17.9107 7.04287C17.6909 6.11583 16.7612 5.54253 15.8341 5.76236C14.907 5.98219 14.3337 6.91191 14.5535 7.83895C14.7734 8.76598 15.7031 9.33929 16.6302 9.11946Z" fill="#00A19A"/>
<path d="M17.5956 17.0065C17.425 16.6141 17.3371 16.1908 17.3374 15.7629C17.3374 14.2781 18.3766 13.0322 19.7656 12.7122V12.7031C19.7656 10.756 18.1815 9.17188 16.2344 9.17188C14.2872 9.17188 12.7032 10.756 12.7032 12.7031V12.7122C14.0922 13.0322 15.1314 14.2781 15.1314 15.7629C15.1318 16.1908 15.0438 16.6142 14.8732 17.0066C15.4225 17.4009 15.8857 17.9031 16.2344 18.4824C16.5831 17.9031 17.0463 17.4009 17.5956 17.0065ZM9.12687 17.0066C8.95622 16.6142 8.86831 16.1908 8.86864 15.7629C8.86864 14.2781 9.90786 13.0322 11.2969 12.7122V12.7031C11.2969 10.756 9.71281 9.17188 7.76567 9.17188C5.81853 9.17188 4.23444 10.756 4.23444 12.7031V12.7122C5.62348 13.0322 6.66265 14.2781 6.66265 15.7629C6.66298 16.1908 6.57508 16.6141 6.40447 17.0065C6.95377 17.4009 7.41693 17.9031 7.76567 18.4824C8.11439 17.9031 8.57756 17.4009 9.12687 17.0066Z" fill="#00A19A"/>
<path d="M12.2734 17.4664C13.2137 17.3132 13.8519 16.4268 13.6988 15.4864C13.5456 14.5461 12.6591 13.9079 11.7188 14.0611C10.7784 14.2142 10.1402 15.1007 10.2933 16.041C10.4465 16.9814 11.333 17.6195 12.2734 17.4664Z" fill="#00A19A"/>
<path d="M3.93229 17.4367C4.85935 17.2169 5.43268 16.2872 5.21286 15.3601C4.99303 14.4331 4.0633 13.8598 3.13623 14.0796C2.20917 14.2995 1.63585 15.2292 1.85567 16.1562C2.0755 17.0832 3.00523 17.6565 3.93229 17.4367Z" fill="#00A19A"/>
<path d="M21.6847 16.9833C22.3584 16.3096 22.3584 15.2173 21.6847 14.5436C21.011 13.8699 19.9187 13.8699 19.245 14.5436C18.5713 15.2173 18.5713 16.3096 19.245 16.9833C19.9187 17.6569 21.011 17.6569 21.6847 16.9833Z" fill="#00A19A"/>
</svg>
