<svg width="18" height="24" viewBox="0 0 18 24" fill="none" xmlns="http://www.w3.org/2000/svg">
<path d="M9.72429 5.83066C10.2781 5.83066 10.7271 5.3817 10.7271 4.82787C10.7271 4.27404 10.2781 3.82507 9.72429 3.82507C9.17046 3.82507 8.7215 4.27404 8.7215 4.82787C8.7215 5.3817 9.17046 5.83066 9.72429 5.83066Z" fill="#00A19A"/>
<path d="M7.68808 8.47698C7.73822 8.51405 7.79721 8.53733 7.85916 8.54448C7.9211 8.55163 7.98384 8.54241 8.04111 8.51775L9.84567 7.74022C9.93252 7.70281 10.0009 7.63242 10.0359 7.54456C10.0708 7.45669 10.0695 7.35854 10.032 7.2717C9.99463 7.18485 9.92425 7.11643 9.83638 7.08148C9.74852 7.04652 9.65036 7.04791 9.56352 7.08532L8.36296 7.60261C8.42637 7.35203 8.50237 7.17538 8.57711 7.05202L8.67096 7.09298C8.62267 7.17092 8.57112 7.27769 8.52242 7.4223L9.52295 6.99114C9.57831 6.96727 9.63783 6.95455 9.69811 6.95369C9.75839 6.95283 9.81825 6.96385 9.87426 6.98614C9.93028 7.00842 9.98136 7.04151 10.0246 7.08354C10.0678 7.12557 10.1023 7.1757 10.1262 7.23106C10.1747 7.3437 10.1765 7.46852 10.1312 7.58243C10.0859 7.69633 9.99887 7.78585 9.88624 7.83441L8.51876 8.42356V12.9138C8.67329 13.3254 8.78906 13.8063 8.86459 14.3559C8.92814 14.3815 8.99728 14.3959 9.06988 14.3959C9.14224 14.3959 9.2139 14.3817 9.28076 14.354C9.34761 14.3263 9.40836 14.2857 9.45953 14.2345C9.5107 14.1834 9.55129 14.1226 9.57899 14.0558C9.60668 13.9889 9.62094 13.9173 9.62094 13.8449V9.82161H9.82749V12.3292C9.8275 12.4016 9.84176 12.4733 9.86946 12.5401C9.89716 12.607 9.93776 12.6677 9.98894 12.7189C10.0401 12.77 10.1009 12.8106 10.1677 12.8383C10.2346 12.866 10.3062 12.8802 10.3786 12.8802C10.5247 12.8802 10.6649 12.8222 10.7682 12.7188C10.8715 12.6155 10.9296 12.4754 10.9296 12.3292V7.11803C11.1285 7.28548 11.3104 7.46593 11.4272 7.58995L11.5371 9.35828C11.5437 9.45209 11.5871 9.53947 11.6579 9.60142C11.7286 9.66336 11.821 9.69484 11.9149 9.68901C12.0087 9.68317 12.0965 9.6405 12.159 9.57027C12.2215 9.50005 12.2538 9.40796 12.2488 9.31405L12.131 7.4201C12.1261 7.3411 12.0951 7.26597 12.0428 7.20655C12.0158 7.17591 11.3947 6.47526 10.7894 6.153C10.7305 6.10877 10.6588 6.08477 10.5852 6.08459H8.86326C8.85993 6.08459 8.85673 6.08546 8.8534 6.08559C8.74457 6.08646 8.52888 6.1151 8.29835 6.29781C8.15301 6.41304 8.02725 6.56957 7.92095 6.7654C7.73537 7.10744 7.60948 7.5705 7.54567 8.15133C7.53885 8.21333 7.54841 8.27603 7.5734 8.33317C7.59839 8.39031 7.63793 8.4399 7.68808 8.47698ZM5.00228 14.1936C4.83403 14.121 4.70401 13.9873 4.63627 13.8171C4.56853 13.6468 4.57126 13.4603 4.6438 13.292C4.67942 13.2092 4.73101 13.1343 4.7956 13.0715C4.86019 13.0087 4.93652 12.9592 5.02024 12.9259C5.10396 12.8926 5.19341 12.8761 5.2835 12.8774C5.37359 12.8787 5.46254 12.8977 5.54528 12.9334L7.04065 13.5777C6.96784 13.3616 6.89078 13.202 6.81864 13.0856L6.95952 13.024C7.07095 13.2084 7.18432 13.4734 7.27891 13.8472L5.48473 13.0741C5.35494 13.0182 5.20825 13.0161 5.07693 13.0683C4.9456 13.1206 4.8404 13.2228 4.78447 13.3526C4.72854 13.4824 4.72646 13.6291 4.77869 13.7604C4.83092 13.8917 4.93318 13.9969 5.06297 14.0529L7.75989 15.2149C7.84549 15.2518 7.93929 15.2656 8.0319 15.2549C8.12451 15.2442 8.2127 15.2094 8.28763 15.1539C8.36257 15.0985 8.42166 15.0244 8.459 14.939C8.49634 14.8536 8.51063 14.7599 8.50044 14.6673C8.35031 13.3019 7.97184 12.3699 7.37542 11.8971C7.04304 11.6336 6.73065 11.5843 6.56299 11.5801C6.5524 11.5794 6.54195 11.5784 6.53122 11.5784H3.95779C3.84501 11.5784 3.73538 11.6156 3.64593 11.6843C2.74338 12.1676 1.81965 13.2096 1.77949 13.2552C1.70127 13.344 1.65482 13.4563 1.64747 13.5744L1.47149 16.405C1.46697 16.4776 1.47738 16.5504 1.50209 16.6189C1.52681 16.6874 1.56529 16.7501 1.61518 16.8031C1.66506 16.8562 1.72528 16.8984 1.79212 16.9273C1.85897 16.9561 1.93102 16.971 2.00383 16.9709C2.13934 16.9708 2.26972 16.919 2.36843 16.8262C2.46714 16.7333 2.52676 16.6064 2.53516 16.4711L2.69949 13.8283C2.874 13.6429 3.14577 13.3732 3.44304 13.123V20.9112C3.44304 21.3662 3.81185 21.7347 4.26652 21.7347C4.72133 21.7347 5.09014 21.3662 5.09014 20.9112V17.1636H5.39887V23.1765C5.39887 23.6314 5.76769 24 6.22236 24C6.67723 24 7.04604 23.6314 7.04604 23.1764V15.0742L5.00228 14.1936Z" fill="#00A19A"/>
<path d="M5.24449 11.1989C6.07219 11.1989 6.74318 10.5279 6.74318 9.70024C6.74318 8.87253 6.07219 8.20154 5.24449 8.20154C4.41678 8.20154 3.74579 8.87253 3.74579 9.70024C3.74579 10.5279 4.41678 11.1989 5.24449 11.1989Z" fill="#00A19A"/>
<path d="M14.9983 10.2701C15.6567 10.1434 16.0878 9.50696 15.9611 8.84855C15.8345 8.19014 15.198 7.75909 14.5396 7.88576C13.8812 8.01243 13.4502 8.64886 13.5768 9.30726C13.7035 9.96567 14.3399 10.3967 14.9983 10.2701Z" fill="#00A19A"/>
<path d="M12.3041 13.4939C12.3648 13.5388 12.4362 13.5669 12.5113 13.5756C12.5863 13.5842 12.6623 13.573 12.7316 13.5431L14.9163 12.602C14.9683 12.5795 15.0155 12.5471 15.055 12.5064C15.0945 12.4658 15.1256 12.4177 15.1466 12.3651C15.1675 12.3124 15.1779 12.2561 15.1771 12.1994C15.1763 12.1427 15.1643 12.0868 15.1419 12.0347C15.1195 11.9826 15.087 11.9355 15.0464 11.896C15.0057 11.8565 14.9577 11.8253 14.905 11.8044C14.8523 11.7834 14.796 11.7731 14.7393 11.7739C14.6827 11.7747 14.6267 11.7866 14.5746 11.8091L13.1212 12.4353C13.198 12.1319 13.29 11.9181 13.3804 11.7687L13.494 11.8183C13.4356 11.9126 13.3732 12.0419 13.3142 12.217L14.5255 11.695C14.5926 11.6661 14.6646 11.6507 14.7376 11.6497C14.8106 11.6486 14.883 11.662 14.9509 11.6889C15.0187 11.7159 15.0805 11.756 15.1329 11.8069C15.1852 11.8578 15.227 11.9185 15.2558 11.9855C15.2849 12.0525 15.3004 12.1246 15.3015 12.1976C15.3025 12.2706 15.2891 12.3431 15.2619 12.4109C15.2351 12.4788 15.1951 12.5407 15.1442 12.5931C15.0933 12.6455 15.0326 12.6872 14.9654 12.7159L13.3099 13.4292V19.9925C13.3099 20.3611 13.6087 20.6596 13.9771 20.6596C14.3454 20.6596 14.6442 20.3611 14.6442 19.9925V15.1218H14.8942V18.1576C14.8942 18.5261 15.193 18.8247 15.5614 18.8247C15.9298 18.8247 16.2285 18.5261 16.2285 18.1576V11.8486C16.4693 12.0513 16.6895 12.2698 16.8309 12.4199L16.9639 14.5608C16.9724 14.674 17.0252 14.7793 17.1108 14.854C17.1963 14.9286 17.3079 14.9665 17.4212 14.9594C17.5345 14.9524 17.6405 14.901 17.7162 14.8163C17.7919 14.7317 17.8312 14.6206 17.8256 14.5072L17.6831 12.2144C17.6771 12.1187 17.6395 12.0277 17.5761 11.9558C17.5435 11.9188 16.7954 11.0748 16.0643 10.6834C15.9918 10.6276 15.9029 10.5974 15.8115 10.5974H13.7269C13.7182 10.5974 13.7096 10.5982 13.7011 10.5988C13.5652 10.6023 13.3123 10.6423 13.043 10.8556C12.867 10.9951 12.7148 11.1846 12.586 11.4218C12.3614 11.8358 12.209 12.3964 12.1317 13.0996C12.1235 13.1746 12.135 13.2505 12.1653 13.3197C12.1955 13.3889 12.2434 13.4489 12.3041 13.4939ZM4.51464 3.87721C4.577 3.88108 4.63835 3.86002 4.68519 3.81866C4.73203 3.7773 4.76053 3.71904 4.76442 3.65667L4.83702 2.48809C4.94081 2.37815 5.05059 2.27404 5.16587 2.17623V5.62003C5.16587 5.66785 5.17529 5.71521 5.19359 5.75939C5.21189 5.80357 5.23871 5.84371 5.27253 5.87752C5.30634 5.91134 5.34649 5.93816 5.39067 5.95646C5.43485 5.97476 5.4822 5.98418 5.53002 5.98418C5.57784 5.98418 5.62519 5.97476 5.66938 5.95646C5.71356 5.93816 5.7537 5.91134 5.78751 5.87752C5.82133 5.84371 5.84815 5.80357 5.86645 5.75939C5.88475 5.71521 5.89417 5.66785 5.89417 5.62003V3.96287H6.03072V6.62163C6.03072 6.71821 6.06909 6.81083 6.13738 6.87912C6.20567 6.94741 6.29829 6.98578 6.39487 6.98578C6.49145 6.98578 6.58407 6.94741 6.65236 6.87912C6.72065 6.81083 6.75902 6.71821 6.75902 6.62163V2.96521L7.07468 3.10122C7.11253 3.11755 7.154 3.12365 7.19495 3.11892C7.2359 3.11418 7.27488 3.09878 7.30801 3.07424C7.34114 3.04975 7.36727 3.01699 7.38378 2.97923C7.4003 2.94148 7.40662 2.90006 7.40213 2.8591C7.33578 2.25529 7.16833 1.84318 6.90469 1.63416C6.75236 1.51347 6.60988 1.49449 6.53795 1.49395C6.53568 1.49389 6.53362 1.49329 6.53142 1.49329H5.39347C5.34152 1.49329 5.29423 1.51127 5.25599 1.54058C4.85674 1.75419 4.44803 2.21453 4.43024 2.23471C4.39567 2.27398 4.37514 2.32363 4.3719 2.37585L4.2941 3.62743C4.29021 3.68979 4.31126 3.75114 4.3526 3.79798C4.39395 3.84482 4.45228 3.87332 4.51464 3.87721Z" fill="#00A19A"/>
<path d="M6.43031 1.1318C6.68911 0.873004 6.68911 0.453412 6.43031 0.194615C6.17152 -0.0641814 5.75193 -0.0641816 5.49313 0.194615C5.23433 0.453412 5.23433 0.873004 5.49313 1.1318C5.75193 1.3906 6.17152 1.3906 6.43031 1.1318Z" fill="#00A19A"/>
<path d="M0.220997 7.11715C0.283363 7.12101 0.344711 7.09995 0.391552 7.05859C0.438392 7.01724 0.46689 6.95897 0.47078 6.89661L0.543383 5.72796C0.647162 5.61802 0.756946 5.5139 0.872231 5.41609V8.8599C0.872231 8.95648 0.910596 9.0491 0.978888 9.11739C1.04718 9.18568 1.1398 9.22405 1.23638 9.22405C1.33296 9.22405 1.42558 9.18568 1.49387 9.11739C1.56217 9.0491 1.60053 8.95648 1.60053 8.8599V7.20274H1.73708V9.8615C1.73708 9.95807 1.77544 10.0507 1.84374 10.119C1.91203 10.1873 2.00465 10.2256 2.10123 10.2256C2.19781 10.2256 2.29043 10.1873 2.35872 10.119C2.42701 10.0507 2.46538 9.95807 2.46538 9.8615V6.20507L2.7811 6.34109C2.81894 6.35741 2.8604 6.36352 2.90133 6.3588C2.94227 6.35407 2.98124 6.33869 3.01437 6.31418C3.04751 6.28967 3.07365 6.2569 3.09016 6.21914C3.10668 6.18137 3.113 6.13994 3.10849 6.09897C3.04214 5.49523 2.87469 5.08312 2.61105 4.87403C2.45872 4.75334 2.31624 4.73435 2.2443 4.73382C2.24211 4.73375 2.23997 4.73315 2.23778 4.73315H1.09983C1.04788 4.73315 1.00059 4.75121 0.962352 4.78045C0.5631 4.99406 0.154388 5.45439 0.136604 5.47458C0.102029 5.51385 0.0815015 5.5635 0.0782544 5.61572L0.000455346 6.8673C-0.00146748 6.89818 0.002712 6.92914 0.0127551 6.95841C0.0227982 6.98767 0.0385082 7.01468 0.0589879 7.03787C0.0794676 7.06107 0.104316 7.08 0.132114 7.09359C0.159911 7.10718 0.190114 7.11523 0.220997 7.11715Z" fill="#00A19A"/>
<path d="M2.13674 4.37094C2.39553 4.11214 2.39553 3.69255 2.13674 3.43375C1.87794 3.17495 1.45835 3.17495 1.19955 3.43375C0.940753 3.69255 0.940753 4.11214 1.19955 4.37094C1.45835 4.62973 1.87794 4.62973 2.13674 4.37094Z" fill="#00A19A"/>
<path d="M14.4023 1.32538C14.7683 1.32538 15.065 1.02868 15.065 0.66269C15.065 0.296697 14.7683 0 14.4023 0C14.0363 0 13.7396 0.296697 13.7396 0.66269C13.7396 1.02868 14.0363 1.32538 14.4023 1.32538Z" fill="#00A19A"/>
<path d="M13.0566 3.07419C13.0898 3.09871 13.1288 3.1141 13.1697 3.11884C13.2107 3.12357 13.2522 3.11748 13.29 3.10117L13.6058 2.96515V6.62157C13.6058 6.71815 13.6441 6.81077 13.7124 6.87907C13.7807 6.94736 13.8733 6.98572 13.9699 6.98572C14.0665 6.98572 14.1591 6.94736 14.2274 6.87907C14.2957 6.81077 14.3341 6.71815 14.3341 6.62157V3.96282H14.4705V5.61998C14.4705 5.71656 14.5089 5.8092 14.5772 5.87749C14.6455 5.94579 14.7381 5.98416 14.8347 5.98416C14.9313 5.98416 15.0239 5.94579 15.0922 5.87749C15.1605 5.8092 15.1989 5.71656 15.1989 5.61998V2.1761C15.3142 2.27392 15.4239 2.37803 15.5277 2.48797L15.6003 3.65655C15.6019 3.68766 15.6097 3.71814 15.6231 3.74622C15.6366 3.77431 15.6555 3.79945 15.6788 3.82019C15.702 3.84092 15.7291 3.85685 15.7586 3.86703C15.788 3.87722 15.8192 3.88147 15.8503 3.87954C15.8814 3.8776 15.9117 3.86953 15.9397 3.85577C15.9676 3.84202 15.9926 3.82286 16.0131 3.7994C16.0336 3.77595 16.0492 3.74866 16.0591 3.71912C16.069 3.68958 16.0729 3.65838 16.0707 3.62731L15.9929 2.37573C15.9896 2.32348 15.9691 2.2738 15.9345 2.23452C15.9167 2.2144 15.508 1.75407 15.1087 1.54046C15.0694 1.50995 15.021 1.49332 14.9712 1.49316H13.8334C13.8311 1.49316 13.829 1.4937 13.8268 1.49383C13.7548 1.49436 13.6124 1.51335 13.46 1.63404C13.1963 1.84306 13.029 2.25517 12.9626 2.85898C12.9581 2.89994 12.9644 2.94136 12.9809 2.97911C12.9974 3.01686 13.0236 3.04962 13.0567 3.07412L13.0566 3.07419Z" fill="#00A19A"/>
</svg>
