<svg width="172" height="172" viewBox="0 0 172 172" fill="none" xmlns="http://www.w3.org/2000/svg">
<path d="M79.572 106.169C78.0307 105.804 76.7961 104.529 76.5632 102.866C76.4927 102.365 76.5193 101.855 76.6414 101.364C75.8759 101.597 75.2416 101.553 74.8778 101.489L75.5015 106.559C75.6395 107.681 76.6606 108.479 77.7826 108.341C78.8677 108.207 79.6468 107.247 79.572 106.169ZM78.569 81.2107L77.8581 79.1021L78.2899 76.8198C78.5508 75.4399 77.6438 74.1098 76.2639 73.8488L71.8082 73.0061C70.7466 72.8054 69.7148 73.2965 69.1764 74.1619L72.6539 74.2435L65.6446 75.7166C65.3694 75.7744 65.1128 75.8994 64.8976 76.0804C64.6824 76.2614 64.5153 76.4928 64.4112 76.754L61.8878 83.0831C61.5413 83.9519 61.9595 84.9478 62.8403 85.2989C63.7047 85.643 64.7042 85.2289 65.0561 84.3463L67.2409 78.8665L73.5884 77.5326L68.5303 80.0532L67.3074 83.1202L66.5275 87.873C66.5279 87.8996 66.5263 87.926 66.5278 87.9529L66.8844 94.481L60.5128 95.3732C59.3935 95.53 58.6133 96.5644 58.77 97.6837C58.9264 98.8006 59.9583 99.5836 61.0807 99.4267L69.3142 98.2734C70.3671 98.1259 71.1318 97.1967 71.0738 96.1349L70.6652 88.6555L71.7297 88.8568L73.7149 94.782C74.4032 94.078 75.5225 93.1129 77.1647 92.1947L76.0251 88.7933L76.7474 84.9743C76.9653 85.089 77.2056 85.1548 77.4516 85.1669C77.6975 85.179 77.9431 85.1373 78.1713 85.0446L81.0162 83.8933C82.9145 79.1319 82.7029 79.6582 82.7673 79.5115L78.569 81.2107Z" fill="#00A19A"/>
<path d="M75.6291 72.2783C77.708 72.2783 79.3932 70.5931 79.3932 68.5142C79.3932 66.4353 77.708 64.75 75.6291 64.75C73.5502 64.75 71.8649 66.4353 71.8649 68.5142C71.8649 70.5931 73.5502 72.2783 75.6291 72.2783Z" fill="#00A19A"/>
<path d="M91.4547 100.966L91.2309 96.8705C89.5838 96.7257 88.1295 96.7298 86.8526 96.8361L86.9817 99.2003L80.1791 100.153C78.9841 100.32 78.151 101.425 78.3184 102.62C78.4859 103.815 79.5907 104.648 80.7853 104.481L89.5761 103.249C90.7003 103.092 91.5166 102.1 91.4547 100.966ZM100.519 111.563L99.1548 100.471C99.1369 100.325 99.1044 100.182 99.0579 100.043L98.1313 97.2777C96.6291 97.4121 95.0746 97.3671 93.4771 97.1419L94.8444 101.223L96.1819 112.096C96.3293 113.294 97.4192 114.146 98.6174 113.998C99.8151 113.851 100.667 112.76 100.519 111.563Z" fill="#00A19A"/>
<path d="M96.3178 75.4964C98.5374 75.4964 100.337 73.6971 100.337 71.4775C100.337 69.2579 98.5374 67.4585 96.3178 67.4585C94.0982 67.4585 92.2988 69.2579 92.2988 71.4775C92.2988 73.6971 94.0982 75.4964 96.3178 75.4964Z" fill="#00A19A"/>
<path d="M107.681 83.6652C107.316 82.7626 106.268 82.2757 105.314 82.6622L99.4567 85.0327L98.6979 82.7814L99.1588 80.3447C99.4373 78.8714 98.469 77.4512 96.9957 77.1725L92.2386 76.2729C91.1051 76.0584 90.0037 76.5828 89.4287 77.5068L93.1415 77.5939L85.658 79.1667H85.6579C85.3643 79.2289 85.0905 79.3625 84.8608 79.5557C84.6312 79.7489 84.4527 79.9957 84.3411 80.2743L81.6471 87.0318C81.2776 87.9569 81.7226 89.0221 82.664 89.3972C83.5874 89.7654 84.6547 89.3205 85.0297 88.3802L87.3622 82.5297L94.1393 81.1055L88.7389 83.7967L86.695 89.5155C89 89.3813 91.7414 89.513 94.3588 89.9059C95.3924 90.061 96.3807 90.1016 97.3271 90.0295L97.5119 89.0522C97.998 89.3047 98.5487 89.3216 99.0324 89.1258L106.678 86.0317C107.609 85.6553 108.058 84.5957 107.681 83.6652Z" fill="#00A19A"/>
<path d="M112.507 79.7462C111.554 79.4286 110.525 79.9433 110.208 80.8956C110.197 80.9273 109.121 84.0973 106.541 87.0502C103.194 90.8817 99.0034 92.4505 94.0874 91.7126C79.7218 89.5551 74.5809 96.5164 74.3688 96.8142C73.8476 97.5478 73.8098 98.6311 74.6264 99.4461C75.8762 100.693 77.3297 98.923 77.3297 98.923L77.3304 98.9234C77.4597 98.7617 78.5104 97.5092 80.821 96.462C83.1383 95.4116 87.2274 94.3584 93.5478 95.3073C99.6817 96.2282 105.122 94.1999 109.279 89.4418C112.334 85.9453 113.604 82.2028 113.656 82.0451C113.974 81.093 113.459 80.0637 112.507 79.7462Z" fill="#00A19A"/>
<circle cx="85.75" cy="85.75" r="67.25" stroke="#00A19A" stroke-width="3.5"/>
<path d="M85.75 27.3652C118.581 27.3652 145.196 53.9802 145.196 86.8114" stroke="#00A19A" stroke-width="3.5" stroke-linecap="round"/>
<path d="M85.75 146.258C52.9188 146.258 26.3038 119.643 26.3038 86.8115" stroke="#00A19A" stroke-width="3.5" stroke-linecap="round"/>
<path d="M61.8654 32.3582C65.8681 30.6 70.1016 29.2701 74.5079 28.4268" stroke="#00A19A" stroke-width="3.5" stroke-linecap="round"/>
<circle cx="85.75" cy="85.75" r="85" stroke="#4DC9C1" stroke-width="1.5" stroke-linecap="round" stroke-dasharray="3 3"/>
</svg>
