<svg width="13" height="14" viewBox="0 0 13 14" fill="none" xmlns="http://www.w3.org/2000/svg">
<path d="M2.5 3.5H7.5C7.63261 3.5 7.75979 3.44732 7.85355 3.35355C7.94732 3.25979 8 3.13261 8 3C8 2.86739 7.94732 2.74021 7.85355 2.64645C7.75979 2.55268 7.63261 2.5 7.5 2.5H2.5C2.36739 2.5 2.24021 2.55268 2.14645 2.64645C2.05268 2.74021 2 2.86739 2 3C2 3.13261 2.05268 3.25979 2.14645 3.35355C2.24021 3.44732 2.36739 3.5 2.5 3.5ZM2.5 5.5H7.5C7.63261 5.5 7.75979 5.44732 7.85355 5.35355C7.94732 5.25979 8 5.13261 8 5C8 4.86739 7.94732 4.74021 7.85355 4.64645C7.75979 4.55268 7.63261 4.5 7.5 4.5H2.5C2.36739 4.5 2.24021 4.55268 2.14645 4.64645C2.05268 4.74021 2 4.86739 2 5C2 5.13261 2.05268 5.25979 2.14645 5.35355C2.24021 5.44732 2.36739 5.5 2.5 5.5ZM4.5 6.5H2.5C2.36739 6.5 2.24021 6.55268 2.14645 6.64645C2.05268 6.74021 2 6.86739 2 7C2 7.13261 2.05268 7.25979 2.14645 7.35355C2.24021 7.44732 2.36739 7.5 2.5 7.5H4.5C4.63261 7.5 4.75979 7.44732 4.85355 7.35355C4.94732 7.25979 5 7.13261 5 7C5 6.86739 4.94732 6.74021 4.85355 6.64645C4.75979 6.55268 4.63261 6.5 4.5 6.5Z" fill="#00A19A"/>
<path d="M13 5.707C13.0005 5.50999 12.962 5.31483 12.8867 5.1328C12.8113 4.95077 12.7006 4.78548 12.561 4.6465C12.2752 4.37376 11.8953 4.22159 11.5002 4.22159C11.1052 4.22159 10.7253 4.37376 10.4395 4.6465L10 5.086V1.5C10 1.10218 9.84196 0.720644 9.56066 0.43934C9.27936 0.158035 8.89782 0 8.5 0H1.5C1.10218 0 0.720644 0.158035 0.43934 0.43934C0.158035 0.720644 0 1.10218 0 1.5V12.5C0 12.8978 0.158035 13.2794 0.43934 13.5607C0.720644 13.842 1.10218 14 1.5 14H8.5C8.89782 14 9.27936 13.842 9.56066 13.5607C9.84196 13.2794 10 12.8978 10 12.5V9.328L12.5605 6.768C12.7003 6.62905 12.8112 6.46371 12.8867 6.28158C12.9621 6.09944 13.0006 5.90414 13 5.707ZM9 12.5C9 12.6326 8.94732 12.7598 8.85355 12.8536C8.75979 12.9473 8.63261 13 8.5 13H1.5C1.36739 13 1.24021 12.9473 1.14645 12.8536C1.05268 12.7598 1 12.6326 1 12.5V1.5C1 1.36739 1.05268 1.24021 1.14645 1.14645C1.24021 1.05268 1.36739 1 1.5 1H8.5C8.63261 1 8.75979 1.05268 8.85355 1.14645C8.94732 1.24021 9 1.36739 9 1.5V6.086L5.7295 9.356C5.66109 9.42446 5.61402 9.51131 5.594 9.606L5.218 11.3965C5.20259 11.4693 5.20364 11.5447 5.22106 11.617C5.23848 11.6894 5.27183 11.7569 5.31869 11.8148C5.36555 11.8726 5.42473 11.9192 5.4919 11.9513C5.55908 11.9833 5.63257 12 5.707 12C5.7416 11.9999 5.7761 11.9964 5.81 11.9895L7.6005 11.613C7.69532 11.593 7.78222 11.5458 7.8505 11.477L9.0005 10.327L9 12.5ZM11.8535 6.0605L7.25 10.665L6.3545 10.853L6.5425 9.958L11.147 5.3535C11.2421 5.26226 11.3687 5.2113 11.5005 5.2113C11.6323 5.2113 11.7589 5.26226 11.854 5.3535C11.9477 5.44726 12.0004 5.57442 12.0004 5.707C12.0004 5.83958 11.9472 5.96674 11.8535 6.0605Z" fill="#00A19A"/>
</svg>
