<svg width="80" height="80" viewBox="0 0 80 80" fill="none" xmlns="http://www.w3.org/2000/svg">
<path d="M79.6788 38.1566C79.4986 37.852 79.6821 37.2039 79.0135 37.2727C78.3728 37.3393 78.3247 37.8492 78.2756 38.3231C78.2625 38.4503 78.2444 38.5776 78.2209 38.7053C78.298 36.897 77.8386 34.9463 77.9342 32.9982C77.967 32.3108 77.7638 31.5814 77.4508 30.9295C77.0351 30.0625 76.8958 29.142 76.9248 28.1996C76.957 27.1623 76.7445 26.1686 76.5206 25.1646C76.0978 23.2624 75.0523 21.6321 74.2914 19.8784C72.8221 16.4972 70.9376 13.407 68.165 10.8933C66.913 9.75877 65.7468 8.5205 64.5342 7.33901C62.4761 5.33145 60.189 3.65422 57.3689 2.82979C56.0831 2.45362 54.836 2.37172 53.6108 3.03999C53.087 3.32663 52.5277 3.53683 51.8586 3.45057C52.4425 3.48278 52.9313 3.36976 53.1427 2.80468C53.3394 2.28054 53.069 1.89781 52.7719 1.47195C52.1022 0.508849 51.0911 0.379999 50.1008 0.393103C47.8121 0.422039 45.5426 0.245689 43.273 0H34.162C33.979 0.169252 33.7474 0.109195 33.5306 0.136494C31.5281 0.398016 29.4432 0.181264 27.5221 0.873015C25.7595 1.50471 24.0039 2.15278 22.1975 2.65999C20.9789 3.00177 19.8553 3.51226 18.888 4.35252C16.4939 6.42723 14.0441 8.44242 11.8171 10.6935C10.664 11.8586 9.22472 12.873 8.57635 14.3957C7.61063 16.6599 6.50617 18.8405 5.35363 21.0064C4.95544 21.7489 4.67522 22.5646 4.6206 23.424C4.60039 23.7745 4.6867 24.1693 5.09582 24.2495C5.16851 24.2656 5.24412 24.2625 5.31526 24.2406C5.38641 24.2187 5.45063 24.1787 5.50166 24.1245C4.86286 25.2842 4.29732 26.4828 3.80837 27.7132C3.95694 28.139 3.80837 28.5753 3.86299 28.9689C3.83404 29.5389 3.71496 30.0789 3.3479 30.5381C3.27252 30.3197 3.20643 30.1013 3.15454 29.8829C3.0288 30.008 2.87645 30.1032 2.70882 30.1613C2.17243 31.9631 1.78461 33.8025 1.606 35.6631C1.45251 37.2809 0.535943 38.6786 0.493884 40.3329C0.460856 41.5843 0.577296 42.8353 0.840736 44.0592C0.759561 43.9952 0.656882 43.9649 0.553968 43.9745C0.232243 43.9925 0.119721 44.2475 0.0377873 44.5107C-0.0441463 44.7738 0.0317788 45.0375 0.0377873 45.3018C0.133923 48.9451 1.37057 52.3416 2.43735 55.7485C3.24521 58.3293 4.43816 60.8299 5.78461 63.1634C7.39433 65.9539 9.91296 68.069 12.312 70.2114C13.2083 71.0118 14.2145 71.6855 15.1185 72.4887C15.7089 73.0128 16.3043 71.9776 16.9052 72.4264C17.4383 72.8244 17.1133 73.6647 17.843 74.0605C20.0372 75.2529 22.1314 76.6315 24.4409 77.6094C25.0144 77.8529 25.6087 78.1635 26.2434 78.0259C27.8985 77.6694 29.4519 78.1215 30.9737 78.6232C33.2099 79.3619 35.414 79.4559 37.6464 78.6707C38.1167 78.507 38.6787 78.3606 39.0911 78.5943C41.0029 79.6803 42.841 79.3636 44.6894 78.4693C44.7674 78.4283 44.8539 78.4059 44.942 78.4038C45.0301 78.4018 45.1175 78.42 45.1974 78.4573C44.986 78.8657 44.2688 79.0835 44.5419 79.6393C44.7937 80.1465 45.4159 79.9571 45.8943 79.9669C47.6461 80.0067 49.4104 80.0482 51.1457 79.8484C52.7254 79.6682 54.5323 79.8659 55.5221 78.0942C55.6433 77.8758 55.9503 77.7835 56.1836 77.6503C58.8601 76.1276 61.4584 74.476 64.1999 73.0565C65.9763 72.1365 67.5008 70.7852 68.9723 69.4154C69.6228 68.8104 69.9937 68.0035 69.3913 67.2773C68.7156 66.4649 67.9356 67.2003 67.4358 67.6207C66.0434 68.7902 64.691 69.9985 63.2397 70.7732C63.6188 69.8303 64.2267 68.7951 65.1733 68.0641C67.167 66.5239 68.8259 64.649 70.4831 62.7878C71.7187 61.3999 73.2503 60.2135 73.9702 58.42C74.3581 57.4508 74.9316 56.6373 75.569 55.8178C76.5724 54.5282 77.8828 53.3811 78.1975 51.6788C78.806 48.3844 79.6723 45.1358 80 41.7906V38.8424C79.8826 38.6174 79.7941 38.351 79.6788 38.1566ZM1.04011 44.8716C1.06796 44.9808 1.0991 45.0829 1.13023 45.1871C1.09004 45.0851 1.05985 44.9794 1.04011 44.8716ZM28.8997 7.38924C27.5806 8.68538 26.0528 8.96711 24.6337 9.47596C25.7835 8.45225 27.0584 7.65567 28.8997 7.38924ZM11.6609 17.083C11.9679 16.1549 12.4431 15.3184 13.3159 14.9024C14.3341 14.4176 15.2823 13.8274 16.1967 13.2143C14.4564 14.47 12.7124 15.7334 11.4905 17.5427C11.5522 17.3953 11.6117 17.2414 11.6609 17.083ZM10.9131 18.5173C10.7279 18.8591 10.4018 19.3013 9.82885 19.2953C10.2514 19.1336 10.6245 18.8657 10.9131 18.5173ZM8.22076 19.8473C7.87664 20.1378 7.59534 20.5167 7.34189 20.9251C7.58168 20.5096 7.8537 20.1208 8.22076 19.8473ZM16.1416 27.9529C15.9449 27.1492 16.259 26.7768 16.8882 26.4411C17.0472 27.1765 16.7222 27.5407 16.1416 27.9529ZM13.1832 36.3724C12.9396 35.7041 13.3154 35.1712 13.476 34.4134C14.0364 35.2389 13.866 35.8542 13.606 36.4422C13.535 36.6039 13.2509 36.5525 13.1832 36.3724ZM15.5997 59.929C14.6001 59.2668 13.8463 58.4249 13.3962 56.9808C14.7159 57.7904 15.2419 58.7978 15.5997 59.929ZM22.9956 75.2256C22.493 75.1754 22.1866 74.8746 22.1473 74.3646C22.126 74.0916 22.2265 73.7553 22.5553 73.84C23.0054 73.9562 23.2419 74.3575 23.3522 74.7195C23.3894 75.0771 23.2545 75.2513 22.9928 75.2256H22.9956ZM28.5545 74.9581C26.6973 74.0332 24.7309 73.508 22.7399 73.0281C21.4785 72.7351 20.3257 72.0916 19.4145 71.1718C18.1249 69.8909 16.4616 69.0184 15.3009 67.5749C15.0584 67.2729 14.6454 67.0939 14.617 66.5468C16.3256 66.157 17.5361 67.0114 18.5307 68.182C19.3594 69.1588 20.3382 69.7058 21.5781 69.9324C22.9213 70.1775 24.1088 70.7099 24.9571 71.887C25.9375 73.2459 27.4358 73.5064 28.9887 73.6554C29.4219 73.6974 30.4542 73.3278 29.9752 74.5492C29.896 74.7517 30.2625 74.9532 30.5531 75.0002C30.9743 75.0684 31.4085 75.1295 31.8755 75.8355C30.5575 75.503 29.4639 75.4118 28.5518 74.9581H28.5545ZM33.0199 70.4767C35.9148 70.046 38.7552 70.7213 41.6354 70.8726C38.6503 72.6464 35.8646 71.1095 33.0144 70.4762L33.0199 70.4767ZM54.3422 7.95432C53.5666 7.98217 52.9991 7.84513 52.4851 7.45639C53.1526 7.08458 53.7359 7.13754 54.3422 7.95432ZM50.6416 6.11875C48.4703 6.82197 48.4512 6.81978 47.3566 5.79881C48.4392 5.46631 49.3689 5.73984 50.6416 6.11875ZM45.784 70.432C49.3825 69.9744 52.8778 69.1948 56.0306 67.238C55.0835 69.3493 48.1546 71.4513 45.784 70.432ZM64.2431 10.985C65.3656 11.4158 65.7097 12.2697 66.1308 13.0532C65.1635 12.7605 64.4867 12.2075 64.2431 10.985Z" fill="#FAFAFA"/>
<g clip-path="url(#clip0_508_3474)">
<path d="M20 54.7654C20.1013 54.0214 20.1693 53.2694 20.3107 52.5334C21.5307 46.188 24.9907 41.4547 30.6413 38.3454C33.9 36.552 37.4267 35.812 41.1293 36.0374C46.6507 36.3787 51.2773 38.644 54.9627 42.7614C57.8267 45.9614 59.4413 49.7307 59.9053 53.996C59.9333 54.2534 59.968 54.5094 60 54.7654V56.328C59.6773 57.104 59.0867 57.3587 58.2667 57.348C55.7947 57.3187 53.3213 57.3387 50.8493 57.3374C49.8893 57.3374 49.3827 56.8494 49.3253 55.8947C49.3013 55.4707 49.2653 55.048 49.2307 54.5734C49.0467 54.672 48.9213 54.7374 48.8 54.8067C47.1653 55.74 45.5333 56.688 43.8933 57.616C43.3853 57.904 42.9187 58.1934 42.5827 58.7187C42.104 59.4667 41.3093 59.796 40.4693 60H39.536C39.4387 59.9707 39.3427 59.936 39.2427 59.912C38.4051 59.7047 37.6805 59.1806 37.2214 58.45C36.7623 57.7194 36.6043 56.8392 36.7808 55.9946C36.9573 55.1499 37.4545 54.4066 38.1677 53.921C38.881 53.4354 39.7548 53.2453 40.6053 53.3907C40.7688 53.4152 40.9358 53.3978 41.0907 53.34C43.2018 52.5702 45.3107 51.7956 47.4173 51.016C47.532 50.9734 47.6427 50.9214 47.7733 50.868C47.7067 50.7614 47.668 50.6947 47.6253 50.6307C45.4453 47.456 41.308 45.964 37.5707 46.988C33.5707 48.0907 30.8387 51.5694 30.684 55.7374C30.6427 56.8787 30.1707 57.3374 29.0387 57.3374C26.6053 57.3374 24.172 57.3187 21.7387 57.348C20.9187 57.3587 20.3267 57.104 20.0053 56.328L20 54.7654ZM29.3333 55.9867C29.3426 53.4072 30.2845 50.9181 31.9853 48.9787L26.3227 43.312C23.0667 46.9027 21.3987 51.1107 21.3333 55.9867H29.3333ZM27.3333 42.3L33 47.968C34.7593 46.4349 36.9718 45.5195 39.3 45.3614V37.3467C34.6907 37.58 30.716 39.2334 27.3333 42.3ZM52.628 42.3374C51.048 40.008 43.4053 36.8334 40.6947 37.404C40.6839 37.4273 40.6767 37.452 40.6733 37.4774C40.6733 40.0107 40.6733 42.5534 40.6613 45.092C40.6613 45.3587 40.8107 45.3694 41.008 45.3867C42.2445 45.4753 43.4509 45.8103 44.556 46.372C45.4253 46.828 46.2413 47.3867 47.0693 47.8907L52.628 42.3374ZM48.0533 48.988C48.3093 49.336 48.616 49.6947 48.8533 50.0934C49.024 50.38 49.1867 50.408 49.48 50.3027C50.8613 49.8054 52.2507 49.328 53.6373 48.844C54.2013 48.648 54.7173 48.7107 55.1427 49.1587C55.7467 49.7974 55.5867 50.7734 54.788 51.2547C53.44 52.0667 52.0827 52.864 50.7333 53.6747C50.6253 53.74 50.4667 53.8747 50.48 53.9654C50.536 54.632 50.628 55.2987 50.7107 55.984H58.6667C58.5893 51.1067 56.9324 46.8925 53.696 43.3414L48.0533 48.988ZM43.316 56.4547L53.8013 50.3214L53.7413 50.2L42.3147 54.2667C42.8892 54.8592 43.2428 55.6312 43.316 56.4534V56.4547ZM39.9827 54.6774C39.5877 54.6803 39.2025 54.8 38.8756 55.0215C38.5486 55.243 38.2945 55.5564 38.1454 55.9221C37.9963 56.2878 37.9587 56.6895 38.0376 57.0765C38.1164 57.4634 38.308 57.8184 38.5883 58.0967C38.8686 58.3749 39.225 58.5639 39.6125 58.6399C40.0001 58.7159 40.4015 58.6755 40.7661 58.5237C41.1306 58.3719 41.4421 58.1155 41.6613 57.787C41.8804 57.4584 41.9973 57.0723 41.9973 56.6774C41.9975 56.4136 41.9455 56.1524 41.8443 55.9088C41.7432 55.6652 41.5948 55.444 41.4078 55.258C41.2208 55.072 40.9988 54.9248 40.7547 54.8249C40.5106 54.7251 40.2491 54.6744 39.9853 54.676L39.9827 54.6774Z" fill="#00A19A"/>
<path d="M40.312 20C40.8907 20.204 41.2547 20.616 41.4773 21.1746C41.5493 21.3546 41.6787 21.516 41.7293 21.7013C41.9413 22.5013 42.4853 22.7973 43.264 22.8186C43.5489 22.8435 43.8312 22.8921 44.108 22.964C44.3657 23.0085 44.607 23.1207 44.8071 23.2891C45.0073 23.4575 45.159 23.6761 45.2469 23.9224C45.3348 24.1687 45.3557 24.434 45.3074 24.6911C45.2591 24.9481 45.1433 25.1877 44.972 25.3853C44.588 25.844 44.1453 26.252 43.756 26.7053C43.6425 26.849 43.5852 27.0291 43.5947 27.212C43.6427 27.7453 43.736 28.268 43.8133 28.7946C43.9067 29.432 43.7813 29.9946 43.2307 30.3946C42.68 30.7946 42.1173 30.7226 41.5427 30.4106C41.032 30.132 40.5027 29.6866 39.98 29.684C39.4573 29.6813 38.956 30.1333 38.456 30.4C37.884 30.7146 37.3187 30.776 36.768 30.384C36.2173 29.992 36.0907 29.4026 36.1907 28.7533C36.2707 28.24 36.3587 27.7253 36.404 27.2093C36.4132 27.0265 36.3559 26.8465 36.2427 26.7026C35.8893 26.2866 35.5027 25.9026 35.1253 25.5026C34.704 25.0586 34.5627 24.5426 34.7507 23.9586C34.9387 23.3746 35.36 23.0453 35.9693 22.9466C36.4827 22.8653 36.9973 22.784 37.5013 22.6653C37.6764 22.6174 37.8278 22.5069 37.9267 22.3546C38.184 21.9053 38.4133 21.436 38.6253 20.9626C38.7273 20.7371 38.8747 20.535 39.0582 20.369C39.2417 20.2029 39.4575 20.0764 39.692 19.9973L40.312 20ZM36.02 24.3013L35.9613 24.4346C36.312 24.8093 36.628 25.2346 37.028 25.5493C37.7747 26.1466 37.9507 26.856 37.7027 27.7546C37.5693 28.244 37.5547 28.7666 37.4747 29.3626C37.688 29.2733 37.8053 29.2293 37.916 29.1746C38.46 28.896 39.0067 28.6226 39.5413 28.328C39.6795 28.2418 39.8387 28.1955 40.0016 28.1941C40.1644 28.1926 40.3244 28.2362 40.464 28.32C40.9973 28.612 41.5453 28.8906 42.088 29.1693C42.2067 29.2293 42.3333 29.2693 42.488 29.3333C42.4964 29.1961 42.4964 29.0585 42.488 28.9213C42.4 28.3026 42.316 27.684 42.2093 27.0693C42.1654 26.8862 42.1713 26.6947 42.2264 26.5146C42.2815 26.3345 42.3838 26.1725 42.5227 26.0453C42.9707 25.6106 43.3893 25.1453 43.8107 24.684C43.8807 24.5838 43.9363 24.4743 43.976 24.3586C43.8777 24.3028 43.7735 24.2581 43.6653 24.2253C43.0387 24.1106 42.4107 23.9986 41.7813 23.9026C41.6325 23.8865 41.4906 23.831 41.3702 23.742C41.2497 23.653 41.1551 23.5336 41.096 23.396C40.8133 22.8106 40.52 22.2306 40.228 21.6493C40.168 21.5333 40.0947 21.4253 39.984 21.2493C39.612 21.9946 39.272 22.652 38.9547 23.3186C38.7893 23.6666 38.5547 23.8866 38.1547 23.912C37.9999 23.929 37.8463 23.9553 37.6947 23.9906L36.02 24.3013Z" fill="#00A19A"/>
<path d="M24.1507 34.42C24.2334 33.8493 24.3414 33.2067 24.4094 32.5613C24.4222 32.3781 24.3677 32.1965 24.256 32.0507C23.8947 31.6253 23.4934 31.232 23.112 30.8227C22.684 30.364 22.5454 29.8293 22.7667 29.2373C22.9747 28.6773 23.3974 28.368 23.9894 28.2773C24.504 28.1987 25.0187 28.12 25.5254 28.0107C25.6917 27.9645 25.8345 27.8574 25.9254 27.7107C26.192 27.2227 26.432 26.7147 26.6814 26.2147C26.948 25.6653 27.3934 25.3427 28.0147 25.344C28.636 25.3453 29.056 25.6613 29.3334 26.2133C29.568 26.692 29.8254 27.16 30.04 27.6467C30.0815 27.7537 30.1528 27.8466 30.2454 27.9144C30.338 27.9822 30.4481 28.0221 30.5627 28.0293C31.064 28.104 31.5627 28.196 32.0627 28.2827C32.3365 28.3159 32.5949 28.4278 32.8064 28.6048C33.018 28.7818 33.1737 29.0163 33.2547 29.28C33.3478 29.5399 33.3648 29.8209 33.3039 30.0901C33.243 30.3593 33.1066 30.6055 32.9107 30.8C32.5414 31.2 32.172 31.608 31.7827 31.9907C31.6957 32.0664 31.6311 32.1643 31.5956 32.274C31.5601 32.3838 31.5552 32.501 31.5814 32.6133C31.6774 33.1773 31.756 33.7453 31.828 34.312C31.8733 34.5775 31.842 34.8504 31.7379 35.0988C31.6337 35.3472 31.4611 35.5608 31.24 35.7147C31.0277 35.8805 30.7711 35.9797 30.5025 35.9999C30.2339 36.0201 29.9653 35.9602 29.7307 35.828C29.2667 35.5947 28.7974 35.3667 28.3507 35.1027C28.2464 35.03 28.1224 34.991 27.9954 34.991C27.8683 34.991 27.7443 35.03 27.64 35.1027C27.1774 35.3693 26.7067 35.6173 26.2214 35.8413C25.2294 36.3093 24.1334 35.5867 24.1507 34.42ZM25.484 34.6067L25.596 34.6747C25.9734 34.48 26.348 34.2747 26.728 34.092C28.26 33.3347 27.728 33.3013 29.304 34.1C29.6787 34.2907 30.0534 34.484 30.492 34.7093C30.4991 34.5837 30.4991 34.4577 30.492 34.332C30.4014 33.6653 30.324 32.9893 30.2054 32.324C30.1688 32.1664 30.1741 32.002 30.2209 31.8471C30.2677 31.6922 30.3543 31.5523 30.472 31.4413C30.9334 30.968 31.3867 30.4827 31.8387 30C32.076 29.744 32.044 29.6507 31.6974 29.5813C31.3294 29.5067 30.956 29.448 30.5854 29.3813C29.1187 29.1147 29.4054 29.344 28.7467 28.048C28.5147 27.5893 28.2854 27.128 28.0147 26.5893C27.9054 26.78 27.8374 26.8853 27.7814 26.9893C27.5147 27.5227 27.2227 28.048 26.9814 28.5893C26.9112 28.778 26.7886 28.9426 26.628 29.0638C26.4673 29.185 26.2753 29.2577 26.0747 29.2733C25.4827 29.3547 24.8947 29.4667 24.3067 29.5773C23.932 29.6493 23.9067 29.7267 24.1734 30.012C24.6067 30.4707 25.0294 30.9333 25.4667 31.3733C25.7454 31.6533 25.8854 31.948 25.7907 32.352C25.7174 32.668 25.692 32.9933 25.6467 33.316C25.592 33.7453 25.536 34.176 25.4774 34.6067H25.484Z" fill="#00A19A"/>
<path d="M57.4253 29.8092C57.2493 30.1452 57.1173 30.5159 56.8853 30.8079C56.532 31.2559 56.1 31.6412 55.724 32.0732C55.623 32.1969 55.5721 32.3539 55.5813 32.5132C55.644 33.0946 55.7453 33.6719 55.8267 34.2466C55.9133 34.8532 55.7253 35.3612 55.2267 35.7199C54.728 36.0786 54.2133 36.0799 53.6813 35.7999C53.2093 35.5519 52.7307 35.3172 52.2653 35.0572C52.1862 35.005 52.0935 34.9771 51.9987 34.9771C51.9038 34.9771 51.8111 35.005 51.732 35.0572C51.2667 35.3159 50.7867 35.5506 50.3147 35.7972C49.7813 36.0772 49.2573 36.0639 48.7693 35.7092C48.542 35.5534 48.3649 35.3348 48.2597 35.08C48.1546 34.8252 48.126 34.5454 48.1773 34.2746C48.256 33.7079 48.3587 33.1426 48.4093 32.5732C48.4204 32.3772 48.3608 32.1837 48.2413 32.0279C47.8907 31.6092 47.4987 31.2279 47.124 30.8279C46.6947 30.3706 46.552 29.8399 46.764 29.2439C46.976 28.6479 47.404 28.3492 48.0133 28.2666C48.2453 28.2346 48.4747 28.1426 48.704 28.1492C49.588 28.1746 50.0693 27.7132 50.328 26.9146C50.4379 26.6223 50.5778 26.3421 50.7453 26.0786C51.3293 25.0666 52.688 25.0666 53.26 26.0866C53.5533 26.6079 53.7867 27.1612 54.076 27.6866C54.1605 27.8378 54.3007 27.9502 54.4667 27.9999C55 28.1212 55.5413 28.1919 56.0787 28.2932C56.8293 28.4292 57.3333 29.0266 57.4253 29.8092ZM49.4853 34.7332C50.244 34.3332 50.8947 34.0172 51.5293 33.6666C51.6728 33.5774 51.8384 33.5301 52.0073 33.5301C52.1763 33.5301 52.3418 33.5774 52.4853 33.6666C53.008 33.9559 53.5413 34.2252 54.072 34.4999C54.1907 34.5612 54.316 34.6079 54.4893 34.6826C54.4956 34.5604 54.4956 34.438 54.4893 34.3159C54.396 33.6332 54.3107 32.9492 54.196 32.2706C54.1656 32.1243 54.1733 31.9727 54.2184 31.8303C54.2635 31.6879 54.3444 31.5594 54.4533 31.4572C54.8978 31.0003 55.3351 30.5363 55.7653 30.0652C55.8496 29.9562 55.9246 29.8402 55.9893 29.7186C55.8592 29.6458 55.7215 29.5877 55.5787 29.5452C55.0547 29.4466 54.5307 29.3439 54.0013 29.2852C53.7755 29.2749 53.5577 29.198 53.3755 29.0642C53.1933 28.9304 53.0547 28.7456 52.9773 28.5332C52.756 27.9999 52.4773 27.5052 52.22 26.9946C52.164 26.8839 52.0973 26.7786 51.9973 26.6052C51.9 26.7812 51.8347 26.8879 51.7787 27.0052C51.4933 27.5612 51.2 28.1332 50.9333 28.7026C50.8741 28.8463 50.7774 28.9716 50.6534 29.0654C50.5294 29.1592 50.3825 29.2181 50.228 29.2359C49.5987 29.3292 48.9733 29.4492 48.348 29.5706C48.2321 29.6103 48.1218 29.665 48.02 29.7332C48.066 29.8357 48.1232 29.9327 48.1907 30.0226C48.6413 30.5088 49.0969 30.9901 49.5573 31.4666C49.6655 31.5697 49.7454 31.6989 49.7893 31.8418C49.8332 31.9847 49.8397 32.1365 49.808 32.2826C49.7027 32.8839 49.624 33.4906 49.5413 34.0959C49.5147 34.2666 49.5093 34.4452 49.4853 34.7332Z" fill="#00A19A"/>
</g>
<defs>
<clipPath id="clip0_508_3474">
<rect width="40" height="40" fill="white" transform="translate(20 20)"/>
</clipPath>
</defs>
</svg>
