<svg width="62" height="59" viewBox="0 0 62 59" fill="none" xmlns="http://www.w3.org/2000/svg">
<path d="M111.88 -0.0696869C111.627 -0.494549 111.885 -1.39833 110.946 -1.30239C110.046 -1.2095 109.979 -0.498356 109.91 0.162537C109.891 0.339943 109.866 0.517349 109.833 0.695515C109.941 -1.82623 109.296 -4.54671 109.43 -7.26337C109.476 -8.22197 109.191 -9.2392 108.752 -10.1483C108.168 -11.3574 107.972 -12.6411 108.013 -13.9553C108.058 -15.402 107.76 -16.7877 107.445 -18.1879C106.852 -20.8406 105.384 -23.1142 104.315 -25.5598C102.252 -30.2751 99.6062 -34.5846 95.7131 -38.0901C93.9551 -39.6723 92.3177 -41.3991 90.615 -43.0468C87.725 -45.8464 84.5137 -48.1855 80.5538 -49.3352C78.7484 -49.8598 76.9974 -49.974 75.277 -49.042C74.5415 -48.6423 73.7561 -48.3492 72.8166 -48.4695C73.6365 -48.4245 74.3229 -48.5821 74.6198 -49.3702C74.8959 -50.1011 74.5162 -50.6349 74.099 -51.2288C73.1587 -52.5719 71.739 -52.7516 70.3485 -52.7333C67.1349 -52.6929 63.9481 -52.9389 60.7613 -53.2815H47.9682C47.7113 -53.0455 47.3861 -53.1292 47.0816 -53.0911C44.2698 -52.7264 41.3423 -53.0287 38.6449 -52.064C36.1698 -51.1831 33.7048 -50.2793 31.1684 -49.572C29.4573 -49.0953 27.8796 -48.3834 26.5213 -47.2116C23.1597 -44.3183 19.7198 -41.508 16.5928 -38.3688C14.9738 -36.7439 12.9528 -35.3293 12.0424 -33.2057C10.6864 -30.0482 9.13556 -27.0072 7.51724 -23.9867C6.95812 -22.9512 6.56466 -21.8137 6.48797 -20.6152C6.45959 -20.1264 6.58077 -19.5759 7.15523 -19.464C7.2573 -19.4416 7.36347 -19.4459 7.46337 -19.4765C7.56326 -19.507 7.65345 -19.5628 7.72509 -19.6384C6.82813 -18.021 6.03404 -16.3495 5.34748 -14.6337C5.55609 -14.0398 5.34748 -13.4315 5.42417 -12.8825C5.38352 -12.0876 5.21632 -11.3346 4.70092 -10.6942C4.59507 -10.9988 4.50227 -11.3033 4.42941 -11.6079C4.25286 -11.4334 4.03893 -11.3007 3.80356 -11.2196C3.05039 -8.70699 2.50584 -6.14183 2.25504 -3.54699C2.03952 -1.29097 0.752538 0.658207 0.693481 2.96524C0.647105 4.71048 0.810603 6.45499 1.18051 8.16178C1.06653 8.07258 0.922353 8.03033 0.777848 8.04377C0.326101 8.06889 0.168105 8.42447 0.0530585 8.79146C-0.0619875 9.15845 0.0446218 9.52621 0.0530585 9.89473C0.188046 14.9755 1.92447 19.7122 3.42237 24.4633C4.55673 28.0624 6.2318 31.5496 8.12239 34.8039C10.3827 38.6954 13.9192 41.645 17.2877 44.6327C18.5463 45.749 19.9591 46.6885 21.2284 47.8085C22.0575 48.5395 22.8935 47.0959 23.7372 47.7217C24.4858 48.2768 24.0294 49.4486 25.0541 50.0006C28.135 51.6635 31.0756 53.586 34.3184 54.9497C35.1237 55.2893 35.9582 55.7225 36.8494 55.5306C39.1733 55.0334 41.3546 55.6639 43.4914 56.3636C46.6314 57.3938 49.7261 57.5247 52.8607 56.4298C53.5211 56.2014 54.3103 55.9974 54.8894 56.3232C57.5738 57.8377 60.1546 57.3961 62.7501 56.1489C62.8596 56.0918 62.981 56.0605 63.1047 56.0576C63.2285 56.0547 63.3512 56.0802 63.4634 56.1321C63.1665 56.7017 62.1595 57.0055 62.543 57.7806C62.8966 58.4879 63.7701 58.2237 64.442 58.2374C66.9017 58.293 69.379 58.3509 71.8157 58.0722C74.0338 57.8209 76.5709 58.0965 77.9607 55.6258C78.131 55.3213 78.562 55.1926 78.8895 55.0068C82.6477 52.8833 86.2962 50.58 90.1456 48.6004C92.6398 47.3174 94.7804 45.433 96.8466 43.5226C97.7601 42.679 98.2809 41.5536 97.4349 40.541C96.4862 39.408 95.3909 40.4336 94.6891 41.0199C92.7341 42.6508 90.8351 44.3358 88.7973 45.4162C89.3295 44.1013 90.1832 42.6577 91.5123 41.6382C94.3118 39.4903 96.6411 36.8756 98.9681 34.28C100.703 32.3445 102.854 30.69 103.864 28.1888C104.409 26.8373 105.214 25.7029 106.109 24.56C107.518 22.7616 109.358 21.1619 109.8 18.7878C110.654 14.1936 111.871 9.66326 112.331 4.99818V0.886627C112.166 0.572933 112.042 0.20137 111.88 -0.0696869ZM1.46045 9.29474C1.49957 9.44702 1.54329 9.58941 1.58701 9.73483C1.53056 9.59255 1.48818 9.44516 1.46045 9.29474ZM48.6876 -46.3916C48.7551 -46.8081 49.1647 -46.9413 49.5313 -47.0403C51.2669 -47.5124 52.9827 -47.5268 54.6616 -46.7891C55.2061 -46.5485 55.7691 -46.1601 55.6763 -45.5998C55.5919 -45.0866 54.8871 -45.101 54.3924 -45.0508C53.834 -44.9922 53.2726 -44.9571 52.5854 -44.8985C51.5185 -44.4736 50.5069 -44.9982 49.506 -45.5236C49.1378 -45.7185 48.5948 -45.816 48.6876 -46.3916ZM52.422 13.2578C51.4249 12.5284 50.8712 11.7624 50.2177 10.5031C51.7547 11.0429 52.3599 11.764 52.422 13.2578ZM40.5792 -42.9767C38.7269 -41.1692 36.5817 -40.7763 34.5891 -40.0667C36.2036 -41.4943 37.9937 -42.6052 40.5792 -42.9767ZM40.3667 -25.7067L40.8353 -25.3641C40.1075 -24.3583 39.4295 -23.3136 38.6441 -22.3535C35.0294 -17.9374 31.6416 -13.3622 28.6336 -8.5075C28.145 -7.71717 28.4234 -7.10805 28.4426 -6.40223C28.4579 -5.9591 28.4648 -5.49922 27.9824 -5.27765C27.4785 -5.0439 27.4141 -5.49541 27.1886 -5.7817C26.6739 -6.43117 26.2682 -5.83347 26.0067 -5.51216C25.6232 -5.04009 25.3985 -4.44011 25.061 -3.92464C24.8623 -3.62009 24.6008 -3.2904 24.1567 -3.44648C23.7955 -3.57288 23.7993 -3.93759 23.8139 -4.23377C23.8599 -5.22359 23.8906 -6.22026 24.0279 -7.20322C24.1145 -7.83595 24.4881 -8.39177 25.1392 -8.59734C26.1302 -8.91028 25.7612 -7.68367 26.6256 -7.39967C28.6481 -15.5322 33.6342 -21.2997 40.3667 -25.7067ZM31.7682 37.9545C31.861 37.9888 31.9116 38.1335 31.9944 38.2446C31.7881 38.9801 31.239 39.006 30.6745 38.7844C28.4503 37.9096 27.0406 36.0107 25.3287 34.4932C25.1461 34.331 25.0725 34.0432 25.3287 33.8475C25.5588 33.6717 25.8287 33.744 26.0013 33.9359C27.6204 35.7076 29.5033 37.0964 31.7682 37.9545ZM26.1831 6.19281C26.2061 5.71922 26.4408 4.95325 26.7054 5.24944C27.4501 6.08241 28.5116 6.75853 28.7501 7.94783C28.8506 8.43969 28.4479 8.80592 27.9394 8.70923C26.5267 8.43969 26.5236 7.16968 26.1831 6.19281ZM30.1 19.3345C33.4133 17.6732 29.6061 16.3902 30.472 14.8826C32.4983 16.71 33.5836 19.3033 35.2633 21.538C33.6864 20.5977 31.8257 20.402 30.1 19.3345ZM30.1874 -5.52054C30.5011 -6.43422 30.7642 -7.37073 31.6662 -8.31943C31.7551 -7.04638 31.6746 -6.07635 31.2627 -5.18399C31.1093 -4.84974 30.8555 -4.29925 30.3148 -4.54366C29.8937 -4.73401 30.0693 -5.18095 30.1874 -5.52054ZM34.1818 1.15997C34.6252 2.64774 34.823 3.73502 34.4886 4.86797C33.6289 3.83857 33.5767 2.73911 34.1795 1.15997H34.1818ZM26.4208 -14.1342C26.7276 -12.7767 26.4975 -11.6056 25.1584 -10.6219C24.9291 -12.1531 25.9929 -13.0393 26.4208 -14.1342ZM16.3735 -29.4581C16.8045 -30.7525 17.4718 -31.919 18.6974 -32.4991C20.1271 -33.1753 21.4585 -33.9983 22.7424 -34.8534C20.2989 -33.1022 17.8499 -31.3403 16.1342 -28.817C16.2209 -29.0226 16.3052 -29.2373 16.3743 -29.4581H16.3735ZM15.3235 -27.4579C15.0635 -26.9813 14.6056 -26.3646 13.8011 -26.3729C14.3944 -26.5984 14.9191 -26.9721 15.3243 -27.4579H15.3235ZM11.5431 -25.6032C11.0599 -25.1981 10.6649 -24.6697 10.309 -24.1002C10.6457 -24.6796 11.0284 -25.2217 11.5439 -25.6032H11.5431ZM15.1057 -15.9563C14.4031 -13.819 14.9308 -11.4031 14.0319 -9.21788C12.3039 -5.01192 11.9726 -0.553177 11.7394 3.91851C11.718 4.32053 11.7816 4.8025 11.1872 5.19538C11.3406 1.53153 8.72446 -1.56203 9.54512 -5.27993C10.2546 -8.49075 10.6074 -11.7762 11.5876 -14.9322C11.8606 -15.8085 12.4021 -16.6986 11.0852 -17.2727C10.5821 -17.492 10.7684 -18.012 10.8751 -18.4384C10.9478 -18.7449 11.0939 -19.0296 11.3009 -19.2681C11.508 -19.5067 11.77 -19.6922 12.0646 -19.8089C16.1572 -21.484 18.4121 -25.0458 21.0382 -28.2559C22.5783 -30.1403 24.8186 -31.2444 26.7951 -32.7908C26.3296 -30.3901 25.1446 -28.3922 23.2855 -26.8008C22.9181 -26.4849 22.2546 -26.4278 22.013 -26.0646C19.7466 -22.6634 16.4141 -19.9315 15.1064 -15.9563H15.1057ZM22.665 -14.2995C22.3889 -15.4202 22.8299 -15.9395 23.7134 -16.4078C23.9366 -15.3822 23.481 -14.8743 22.6657 -14.2995H22.665ZM18.511 -2.55793C18.169 -3.48989 18.6966 -4.23301 18.9221 -5.28983C19.7091 -4.1386 19.4698 -3.28051 19.1047 -2.46048C19.005 -2.2351 18.6061 -2.30667 18.511 -2.55793ZM21.9041 30.2933C20.5006 29.3698 19.4421 28.1957 18.8102 26.1818C20.6632 27.3109 21.4018 28.7157 21.9041 30.2933ZM32.289 51.6254C31.5833 51.5554 31.1531 51.1358 31.0978 50.4247C31.0679 50.044 31.2091 49.575 31.6708 49.693C32.3028 49.8552 32.6349 50.4148 32.7898 50.9196C32.8419 51.4183 32.6525 51.6612 32.2851 51.6254H32.289ZM40.0944 51.2523C37.4867 49.9625 34.7256 49.2301 31.93 48.5608C30.1588 48.1522 28.5401 47.2547 27.2607 45.972C25.4499 44.1858 23.1144 42.9691 21.4846 40.956C21.1441 40.5349 20.5642 40.2852 20.5243 39.5222C22.9234 38.9786 24.6231 40.1702 26.0197 41.8026C27.1832 43.1648 28.5576 43.9277 30.2987 44.2437C32.1846 44.5855 33.852 45.3279 35.0432 46.9695C36.4199 48.8646 38.5237 49.2278 40.7042 49.4356C41.3124 49.4943 42.762 48.9788 42.0893 50.682C41.9781 50.9645 42.4928 51.2455 42.9008 51.311C43.4921 51.4061 44.1019 51.4914 44.7576 52.4759C42.9069 52.0122 41.3715 51.8851 40.0906 51.2523H40.0944ZM44.9839 18.9691C44.5615 17.8955 44.1387 16.8224 43.7153 15.7499C44.8106 16.5052 45.4794 17.5239 45.6941 18.8335C46.1773 19.3909 46.6682 19.9398 47.1368 20.5086C47.3554 20.7728 47.7818 21.0606 47.4551 21.4276C47.1284 21.7946 46.6076 21.7619 46.2739 21.4459C45.563 20.7804 44.8144 20.0982 44.9801 18.9683L44.9839 18.9691ZM46.3644 45.0028C50.4294 44.402 54.4177 45.3439 58.4619 45.5548C54.2704 48.0286 50.3588 45.8852 46.3568 45.002L46.3644 45.0028ZM76.304 -42.1887C75.2149 -42.1499 74.418 -42.341 73.6963 -42.8831C74.6336 -43.4016 75.4527 -43.3277 76.304 -42.1887ZM71.1078 -44.7485C68.0591 -43.7678 68.0322 -43.7709 66.4952 -45.1947C68.0153 -45.6584 69.3207 -45.2769 71.1078 -44.7485ZM64.2871 44.9403C69.3399 44.3023 74.2478 43.215 78.6747 40.4862C77.3448 43.4305 67.6157 46.3619 64.2871 44.9403ZM90.2062 -37.9622C91.7823 -37.3614 92.2655 -36.1706 92.8568 -35.078C91.4985 -35.4861 90.5483 -36.2574 90.2062 -37.9622Z" fill="#26B3AB"/>
</svg>
