<svg width="80" height="80" viewBox="0 0 80 80" fill="none" xmlns="http://www.w3.org/2000/svg">
<path d="M79.6788 38.1566C79.4986 37.852 79.6821 37.2039 79.0135 37.2727C78.3728 37.3393 78.3247 37.8492 78.2756 38.3231C78.2625 38.4503 78.2444 38.5776 78.2209 38.7053C78.298 36.897 77.8386 34.9463 77.9342 32.9982C77.967 32.3108 77.7638 31.5814 77.4508 30.9295C77.0351 30.0625 76.8958 29.142 76.9248 28.1996C76.957 27.1623 76.7445 26.1686 76.5206 25.1646C76.0978 23.2624 75.0523 21.6321 74.2914 19.8784C72.8221 16.4972 70.9376 13.407 68.165 10.8933C66.913 9.75877 65.7468 8.5205 64.5342 7.33901C62.4761 5.33145 60.189 3.65422 57.3689 2.82979C56.0831 2.45362 54.836 2.37172 53.6108 3.03999C53.087 3.32663 52.5277 3.53683 51.8586 3.45057C52.4425 3.48278 52.9313 3.36976 53.1427 2.80468C53.3394 2.28054 53.069 1.89781 52.7719 1.47195C52.1022 0.508849 51.0911 0.379999 50.1008 0.393103C47.8121 0.422039 45.5426 0.245689 43.273 0H34.162C33.979 0.169252 33.7474 0.109195 33.5306 0.136494C31.5281 0.398016 29.4432 0.181264 27.5221 0.873015C25.7595 1.50471 24.0039 2.15278 22.1975 2.65999C20.9789 3.00177 19.8553 3.51226 18.888 4.35252C16.4939 6.42723 14.0441 8.44242 11.8171 10.6935C10.664 11.8586 9.22472 12.873 8.57635 14.3957C7.61063 16.6599 6.50617 18.8405 5.35363 21.0064C4.95544 21.7489 4.67522 22.5646 4.6206 23.424C4.60039 23.7745 4.6867 24.1693 5.09582 24.2495C5.16851 24.2656 5.24412 24.2625 5.31526 24.2406C5.38641 24.2187 5.45063 24.1787 5.50166 24.1245C4.86286 25.2842 4.29732 26.4828 3.80837 27.7132C3.95694 28.139 3.80837 28.5753 3.86299 28.9689C3.83404 29.5389 3.71496 30.0789 3.3479 30.5381C3.27252 30.3197 3.20643 30.1013 3.15454 29.8829C3.0288 30.008 2.87645 30.1032 2.70882 30.1613C2.17243 31.9631 1.78461 33.8025 1.606 35.6631C1.45251 37.2809 0.535943 38.6786 0.493884 40.3329C0.460856 41.5843 0.577296 42.8353 0.840736 44.0592C0.759561 43.9952 0.656882 43.9649 0.553968 43.9745C0.232243 43.9925 0.119721 44.2475 0.0377873 44.5107C-0.0441463 44.7738 0.0317788 45.0375 0.0377873 45.3018C0.133923 48.9451 1.37057 52.3416 2.43735 55.7485C3.24521 58.3293 4.43816 60.8299 5.78461 63.1634C7.39433 65.9539 9.91296 68.069 12.312 70.2114C13.2083 71.0118 14.2145 71.6855 15.1185 72.4887C15.7089 73.0128 16.3043 71.9776 16.9052 72.4264C17.4383 72.8244 17.1133 73.6647 17.843 74.0605C20.0372 75.2529 22.1314 76.6315 24.4409 77.6094C25.0144 77.8529 25.6087 78.1635 26.2434 78.0259C27.8985 77.6694 29.4519 78.1215 30.9737 78.6232C33.2099 79.3619 35.414 79.4559 37.6464 78.6707C38.1167 78.507 38.6787 78.3606 39.0911 78.5943C41.0029 79.6803 42.841 79.3636 44.6894 78.4693C44.7674 78.4283 44.8539 78.4059 44.942 78.4038C45.0301 78.4018 45.1175 78.42 45.1974 78.4573C44.986 78.8657 44.2688 79.0835 44.5419 79.6393C44.7937 80.1465 45.4159 79.9571 45.8943 79.9669C47.6461 80.0067 49.4104 80.0482 51.1457 79.8484C52.7254 79.6682 54.5323 79.8659 55.5221 78.0942C55.6433 77.8758 55.9503 77.7835 56.1836 77.6503C58.8601 76.1276 61.4584 74.476 64.1999 73.0565C65.9763 72.1365 67.5008 70.7852 68.9723 69.4154C69.6228 68.8104 69.9937 68.0035 69.3913 67.2773C68.7156 66.4649 67.9356 67.2003 67.4358 67.6207C66.0434 68.7902 64.691 69.9985 63.2397 70.7732C63.6188 69.8303 64.2267 68.7951 65.1733 68.0641C67.167 66.5239 68.8259 64.649 70.4831 62.7878C71.7187 61.3999 73.2503 60.2135 73.9702 58.42C74.3581 57.4508 74.9316 56.6373 75.569 55.8178C76.5724 54.5282 77.8828 53.3811 78.1975 51.6788C78.806 48.3844 79.6723 45.1358 80 41.7906V38.8424C79.8826 38.6174 79.7941 38.351 79.6788 38.1566ZM1.04011 44.8716C1.06796 44.9808 1.0991 45.0829 1.13023 45.1871C1.09004 45.0851 1.05985 44.9794 1.04011 44.8716ZM28.8997 7.38924C27.5806 8.68538 26.0528 8.96711 24.6337 9.47596C25.7835 8.45225 27.0584 7.65567 28.8997 7.38924ZM11.6609 17.083C11.9679 16.1549 12.4431 15.3184 13.3159 14.9024C14.3341 14.4176 15.2823 13.8274 16.1967 13.2143C14.4564 14.47 12.7124 15.7334 11.4905 17.5427C11.5522 17.3953 11.6117 17.2414 11.6609 17.083ZM10.9131 18.5173C10.7279 18.8591 10.4018 19.3013 9.82885 19.2953C10.2514 19.1336 10.6245 18.8657 10.9131 18.5173ZM8.22076 19.8473C7.87664 20.1378 7.59534 20.5167 7.34189 20.9251C7.58168 20.5096 7.8537 20.1208 8.22076 19.8473ZM16.1416 27.9529C15.9449 27.1492 16.259 26.7768 16.8882 26.4411C17.0472 27.1765 16.7222 27.5407 16.1416 27.9529ZM13.1832 36.3724C12.9396 35.7041 13.3154 35.1712 13.476 34.4134C14.0364 35.2389 13.866 35.8542 13.606 36.4422C13.535 36.6039 13.2509 36.5525 13.1832 36.3724ZM15.5997 59.929C14.6001 59.2668 13.8463 58.4249 13.3962 56.9808C14.7159 57.7904 15.2419 58.7978 15.5997 59.929ZM22.9956 75.2256C22.493 75.1754 22.1866 74.8746 22.1473 74.3646C22.126 74.0916 22.2265 73.7553 22.5553 73.84C23.0054 73.9562 23.2419 74.3575 23.3522 74.7195C23.3894 75.0771 23.2545 75.2513 22.9928 75.2256H22.9956ZM28.5545 74.9581C26.6973 74.0332 24.7309 73.508 22.7399 73.0281C21.4785 72.7351 20.3257 72.0916 19.4145 71.1718C18.1249 69.8909 16.4616 69.0184 15.3009 67.5749C15.0584 67.2729 14.6454 67.0939 14.617 66.5468C16.3256 66.157 17.5361 67.0114 18.5307 68.182C19.3594 69.1588 20.3382 69.7058 21.5781 69.9324C22.9213 70.1775 24.1088 70.7099 24.9571 71.887C25.9375 73.2459 27.4358 73.5064 28.9887 73.6554C29.4219 73.6974 30.4542 73.3278 29.9752 74.5492C29.896 74.7517 30.2625 74.9532 30.5531 75.0002C30.9743 75.0684 31.4085 75.1295 31.8755 75.8355C30.5575 75.503 29.4639 75.4118 28.5518 74.9581H28.5545ZM33.0199 70.4767C35.9148 70.046 38.7552 70.7213 41.6354 70.8726C38.6503 72.6464 35.8646 71.1095 33.0144 70.4762L33.0199 70.4767ZM54.3422 7.95432C53.5666 7.98217 52.9991 7.84513 52.4851 7.45639C53.1526 7.08458 53.7359 7.13754 54.3422 7.95432ZM50.6416 6.11875C48.4703 6.82197 48.4512 6.81978 47.3566 5.79881C48.4392 5.46631 49.3689 5.73984 50.6416 6.11875ZM45.784 70.432C49.3825 69.9744 52.8778 69.1948 56.0306 67.238C55.0835 69.3493 48.1546 71.4513 45.784 70.432ZM64.2431 10.985C65.3656 11.4158 65.7097 12.2697 66.1308 13.0532C65.1635 12.7605 64.4867 12.2075 64.2431 10.985Z" fill="#FAFAFA"/>
<path d="M35.3973 45.9561C33.9307 45.7868 32.492 45.6521 31.0653 45.4454C29.6387 45.2388 28.2493 44.9601 26.7987 44.7041V55.9721C26.7987 56.7014 26.6293 56.8708 25.908 56.8708C25.2707 56.8708 24.632 56.8708 23.9947 56.8708C23.396 56.8708 23.2027 56.6774 23.2027 56.0708C23.2027 52.1001 23.196 48.1281 23.2027 44.1574C23.2027 43.8094 23.116 43.6241 22.7653 43.5748C22.6409 43.5485 22.5187 43.5124 22.4 43.4668C21.3333 43.1254 21.1853 42.9228 21.1853 41.7868C21.1853 40.6148 21.2253 39.4414 21.1733 38.2708C21.1253 37.1721 21.916 36.5814 22.8813 36.9494C22.9862 36.9799 23.0932 37.0026 23.2013 37.0174V36.0361C23.2013 35.4374 23.1947 34.8361 23.2013 34.2401C23.2093 33.8401 23.4333 33.6054 23.832 33.6001C24.6 33.5894 25.3685 33.5894 26.1373 33.6001C26.5653 33.6001 26.7893 33.8481 26.792 34.3001C26.792 35.3428 26.792 36.3841 26.792 37.4254V37.8668C29.4934 38.4139 32.2249 38.8003 34.972 39.0241C34.8027 38.0054 34.6693 37.0454 34.4787 36.0908C34.1973 34.6668 33.5347 33.3801 32.9333 32.0708C31.9271 29.8992 30.924 27.7268 29.924 25.5534C29.476 24.5734 29.8547 23.5801 30.7853 23.2308C31.5373 22.9481 32.3053 23.2174 32.7747 23.9534C33.1867 24.6001 33.5747 25.2614 33.9747 25.9174C34.7747 27.2388 35.5813 28.5641 36.3907 29.8841C38.1627 32.7748 42.0147 32.7788 43.788 29.8841C44.98 27.9441 46.156 25.9948 47.3427 24.0521C47.78 23.3361 48.4413 23.0068 49.1307 23.1481C50.2093 23.3694 50.748 24.4561 50.276 25.5094C49.7133 26.7668 49.116 28.0094 48.5427 29.2641C47.7053 31.1108 46.8427 32.9468 46.0573 34.8161C45.4947 36.1494 45.3533 37.6054 45.1853 39.1041C45.764 39.0588 46.3187 39.0481 46.8653 38.9708C48.884 38.6734 50.9 38.3508 52.9173 38.0441C53.1653 38.0068 53.2227 37.8854 53.22 37.6441C53.2093 36.5641 53.2133 35.4828 53.22 34.4028C53.22 33.7908 53.428 33.5868 54.0427 33.5854C54.7067 33.5854 55.3707 33.5854 56.0347 33.5854C56.6267 33.5854 56.8253 33.7841 56.8347 34.3854C56.8347 35.1148 56.8347 35.8428 56.8347 36.5721V37.0454C57.036 36.9881 57.1813 36.9454 57.3267 36.9054C58.152 36.6854 58.8147 37.1574 58.824 38.0041C58.84 39.4361 58.8333 40.8694 58.824 42.3014C58.824 42.8548 58.5333 43.2348 58.008 43.4134C57.7535 43.5126 57.4913 43.5906 57.224 43.6468C56.8987 43.7041 56.824 43.8694 56.824 44.1801C56.8347 48.0601 56.8369 51.9401 56.8307 55.8201C56.8307 55.9628 56.8307 56.1068 56.8307 56.2494C56.7987 56.6334 56.5867 56.8508 56.2053 56.8561C55.4249 56.8668 54.644 56.8668 53.8627 56.8561C53.488 56.8561 53.264 56.6254 53.2293 56.2508C53.2187 56.1348 53.2293 56.0174 53.2293 55.9001C53.2293 52.3188 53.2293 48.7379 53.2293 45.1574V44.7428L44.848 45.9428C44.8827 46.6748 44.8733 47.4694 44.9667 48.2521C45.212 50.3054 45.492 52.3534 45.7813 54.4001C45.9053 55.2761 45.7267 56.0174 44.9667 56.5228C44.272 56.9854 43.544 56.9708 42.8333 56.5321C42.352 56.2334 42.104 55.7734 41.9733 55.2334C41.4036 52.8823 40.8302 50.5334 40.2533 48.1868C40.2356 48.1068 40.1879 48.0366 40.12 47.9908C40.0573 48.1988 39.9867 48.4068 39.9307 48.6148C39.7867 49.1014 39.6533 49.5908 39.4973 50.0734C39.3485 50.5708 39.0212 50.9956 38.5782 51.2663C38.1352 51.537 37.6078 51.6345 37.0973 51.5401C36.0867 51.3774 35.364 50.4801 35.3787 49.3894C35.3893 48.3614 35.4107 47.3334 35.424 46.3054C35.4173 46.2094 35.404 46.0934 35.3973 45.9561ZM22.4413 42.1948C23.02 42.3614 23.6067 42.5254 24.1907 42.6988C28.2227 43.8908 32.3507 44.5241 36.5427 44.7534C39.8584 44.9204 43.182 44.825 46.4827 44.4681C50.0108 44.1008 53.5009 43.4317 56.9147 42.4681C57.5893 42.2774 57.5813 42.2694 57.5813 41.5654V38.1561C45.848 41.5214 34.1493 41.0628 22.436 38.1561L22.4413 42.1948ZM40.0413 39.2908V39.2161C41.1613 39.2161 42.28 39.2161 43.3987 39.2161C43.932 39.2161 43.9387 39.2068 43.9933 38.6574C44.1963 36.4787 44.7854 34.3536 45.7333 32.3814C46.8867 29.9934 47.968 27.5721 49.08 25.1654C49.124 25.0708 49.2133 24.9668 49.196 24.8828C49.168 24.7201 49.12 24.4961 49.0067 24.4321C48.8933 24.3681 48.672 24.4428 48.5293 24.5161C48.4293 24.5694 48.3813 24.7228 48.3133 24.8334C47.1707 26.7108 46.0347 28.5934 44.8813 30.4628C44.6421 30.8651 44.3615 31.2414 44.044 31.5854C43.4733 32.1873 42.7727 32.6509 41.9956 32.941C41.2186 33.2312 40.3856 33.3401 39.5601 33.2596C38.7345 33.1791 37.9383 32.9113 37.2319 32.4765C36.5256 32.0418 35.9278 31.4515 35.484 30.7508C34.244 28.8001 33.0667 26.8001 31.8667 24.8254C31.8 24.7148 31.7493 24.5588 31.6493 24.5094C31.5053 24.4388 31.2827 24.3761 31.1707 24.4374C31.0587 24.4988 31.008 24.7281 30.996 24.8881C30.988 25.0028 31.0867 25.1268 31.1413 25.2441C32.1053 27.3334 33.0267 29.4428 34.0453 31.5108C35.1867 33.8228 35.9787 36.2201 36.1587 38.8014C36.1747 39.0294 36.2253 39.1454 36.4933 39.1534C37.6747 39.1814 38.8573 39.2414 40.04 39.2908H40.0413ZM41.0067 46.0228C41.036 46.1814 41.044 46.2454 41.0587 46.3068C41.5805 48.4401 42.1013 50.5734 42.6213 52.7068C42.8133 53.4908 43 54.2734 43.2 55.0548C43.3107 55.4828 43.656 55.7014 44.0427 55.6161C44.4293 55.5308 44.6227 55.2014 44.568 54.7841C44.5547 54.6801 44.5413 54.5774 44.524 54.4748C44.0387 51.7308 43.6733 48.9734 43.6187 46.1814C43.6148 46.1273 43.6036 46.0739 43.5853 46.0228H41.0067ZM55.58 44.1334L54.4867 44.4081V55.6134H55.58V44.1334ZM25.5467 55.6188V44.3788L24.468 44.1014V55.6188H25.5467ZM36.6533 46.0534C36.6533 46.1774 36.6533 46.3054 36.6533 46.4321C36.6373 47.3788 36.6267 48.3268 36.6013 49.2748C36.584 49.8788 36.8307 50.2601 37.328 50.3494C37.8253 50.4388 38.1893 50.1481 38.3613 49.5654C38.6707 48.521 38.9773 47.4761 39.2813 46.4308C39.312 46.3254 39.324 46.2148 39.3547 46.0534H36.6533ZM54.48 34.8534V37.6788C54.8107 37.5921 55.112 37.5228 55.4053 37.4294C55.4827 37.4054 55.5907 37.3054 55.592 37.2388C55.604 36.4494 55.6 35.6601 55.6 34.8534H54.48ZM25.5307 37.5588V34.8548H24.4347V36.3108C24.4347 37.3454 24.4347 37.3454 25.4453 37.5694C25.4741 37.5687 25.5027 37.5651 25.5307 37.5588Z" fill="#00A19A"/>
<path d="M40.0733 31.0281C39.173 31.0258 38.3105 30.666 37.6755 30.0277C37.0405 29.3895 36.685 28.5251 36.6873 27.6248C36.6896 26.7245 37.0495 25.8619 37.6877 25.2269C38.326 24.5919 39.1903 24.2365 40.0907 24.2388C40.5365 24.2399 40.9777 24.3289 41.3891 24.5005C41.8005 24.6722 42.1741 24.9232 42.4885 25.2392C42.8029 25.5552 43.052 25.9301 43.2216 26.3424C43.3911 26.7547 43.4778 27.1963 43.4767 27.6421C43.4755 28.0879 43.3866 28.5291 43.2149 28.9405C43.0433 29.352 42.7923 29.7255 42.4763 30.04C42.1602 30.3544 41.7854 30.6035 41.3731 30.773C40.9608 30.9426 40.5191 31.0293 40.0733 31.0281ZM40.0813 29.7974C40.5097 29.8001 40.9293 29.6754 41.2867 29.4393C41.6442 29.2031 41.9235 28.8662 42.0891 28.4711C42.2548 28.076 42.2993 27.6406 42.2172 27.2201C42.135 26.7997 41.9299 26.4131 41.6277 26.1094C41.3255 25.8057 40.9399 25.5986 40.5199 25.5144C40.0998 25.4301 39.6642 25.4726 39.2683 25.6363C38.8724 25.8 38.534 26.0776 38.2961 26.4338C38.0582 26.7901 37.9315 27.209 37.932 27.6374C37.9337 28.2079 38.1604 28.7547 38.5628 29.1591C38.9652 29.5635 39.5109 29.7929 40.0813 29.7974Z" fill="#00A19A"/>
</svg>
