<svg width="270" height="270" viewBox="0 0 270 270" fill="none" xmlns="http://www.w3.org/2000/svg">
<g clip-path="url(#clip0_497_9218)">
<path d="M246.9 147.408C247.521 142.563 247.829 137.679 247.823 132.79C247.823 71.6069 199.141 22.0144 139.07 22.0144C78.9992 22.0144 30.3169 71.6069 30.3169 132.79C30.3109 137.679 30.6192 142.563 31.2398 147.408C29.7277 139.916 28.9668 132.28 28.9695 124.623C28.9695 62.6874 78.2517 12.4778 139.061 12.4778C199.87 12.4778 249.18 62.6777 249.18 124.623C249.179 132.28 248.415 139.916 246.9 147.408Z" fill="#00A19A"/>
<path d="M150.477 250.286C155.574 249.691 160.63 248.754 165.612 247.48C195.358 239.617 220.92 219.782 236.722 192.302C252.525 164.823 257.285 131.928 249.963 100.796C242.642 69.663 223.834 42.819 197.643 26.12C171.451 9.42094 140.002 4.22222 110.156 11.658C105.176 12.9331 100.281 14.5436 95.5005 16.4793C110.355 9.07163 126.532 5.00337 142.986 4.53753C159.44 4.0717 175.804 7.21868 191.02 13.775C206.237 20.3314 219.968 30.1511 231.325 42.5995C242.681 55.0479 251.412 69.8478 256.951 86.0425C262.49 102.237 264.715 119.466 263.482 136.616C262.249 153.765 257.586 170.454 249.793 185.602C242 200.75 231.252 214.021 218.242 224.557C205.233 235.093 190.252 242.659 174.269 246.767C166.473 248.777 158.501 249.956 150.477 250.286Z" fill="#00A19A"/>
<path d="M155.451 2.79639C149.87 2.03479 144.247 1.64829 138.618 1.63926C121.774 1.48033 105.068 4.8081 89.4619 11.4306C73.856 18.053 59.6597 27.839 47.6924 40.2239C35.725 52.6087 26.2235 67.3472 19.7362 83.5888C13.2489 99.8303 9.90411 117.253 9.89497 134.853C9.88584 152.452 13.2125 169.879 19.683 186.128C26.1534 202.377 35.6396 217.126 47.5941 229.524C59.5486 241.923 73.7346 251.725 89.3337 258.365C104.933 265.005 121.636 268.352 138.479 268.212C144.108 268.224 149.731 267.853 155.313 267.103C137.621 270.912 119.362 270.802 101.714 266.778C84.0657 262.755 67.4218 254.908 52.857 243.745C38.2923 232.582 26.1307 218.35 17.158 201.97C8.18525 185.59 2.60088 167.426 0.765624 148.65C-1.06963 129.875 0.885061 110.906 6.50342 92.9686C12.1218 75.0315 21.2788 58.5253 33.3831 44.5163C45.4873 30.5074 60.2695 19.3071 76.7747 11.6392C93.2799 3.97123 111.141 0.00612162 129.204 0C138.021 0.00468263 146.815 0.941584 155.451 2.79639Z" fill="#00A19A"/>
<path d="M19.3807 111.065C18.798 116.723 18.573 122.415 18.707 128.103C20.3774 199.334 77.5872 255.638 146.49 253.883C215.393 252.128 269.88 192.951 268.21 121.72C268.075 116.029 267.582 110.353 266.733 104.729C268.677 113.41 269.759 122.277 269.963 131.189C271.652 203.297 216.491 263.246 146.739 264.982C76.9873 266.717 19.0854 209.758 17.3873 137.698C17.1758 128.772 17.8438 119.848 19.3807 111.065Z" fill="#00A19A"/>
</g>
<defs>
<clipPath id="clip0_497_9218">
<rect width="270" height="269.842" fill="white"/>
</clipPath>
</defs>
</svg>
