<svg width="50" height="65" viewBox="0 0 50 65" fill="none" xmlns="http://www.w3.org/2000/svg">
<path d="M45.5 20.5997C46.3333 20.433 48 20.3997 48 21.5997C48 23.0997 48 27.1001 48 28.1001C48 28.6001 47.5 29.1001 45.5 29.1001" stroke="#80D9D4" stroke-width="2.2" stroke-linecap="round"/>
<path d="M45.5 36.1846C46.3333 36.018 48 35.9846 48 37.1846C48 38.6846 48 42.6851 48 43.6851C48 44.1851 47.5 44.6851 45.5 44.6851" stroke="#80D9D4" stroke-width="2.2" stroke-linecap="round"/>
<path d="M4.5 59.6001C7 59.6001 9.5 61.2001 9.5 63.6001C12.3 63.6001 25.6667 63.6001 32 63.6001C32.5 62.2668 34 59.6001 37 59.6001" stroke="#80D9D4" stroke-width="2.2" stroke-linecap="round"/>
<path d="M37.5 5.1001C35 5.1001 32.5 3.5001 32.5 1.1001C29.7 1.1001 16.3333 1.1001 10 1.1001C9.5 2.43343 8 5.1001 5 5.1001" stroke="#80D9D4" stroke-width="2.2" stroke-linecap="round"/>
<path d="M5.5 37.6021H12.5L17 28.1021L24 46.1021L28 38.1021H35.5M30 19.1021C31.5 17.1 35.5 16.6001 35.5 20.6021C35.5 25.0021 32 26.1001 30 27.1001C28 26.0978 24.5 25.1028 24.5 20.6025C24.5 16.6006 28.5 17.1 30 19.1021Z" stroke="#80D9D4" stroke-width="2.2" stroke-linecap="round"/>
<rect x="1.1" y="11.2001" width="39.8" height="41.8" rx="3.9" stroke="#80D9D4" stroke-width="2.2" stroke-linecap="round"/>
</svg>
