<svg width="655" height="230" viewBox="0 0 655 230" fill="none" xmlns="http://www.w3.org/2000/svg">
<mask id="mask0_149_797" style="mask-type:alpha" maskUnits="userSpaceOnUse" x="0" y="0" width="655" height="230">
<rect x="0.5" y="0.5" width="654" height="229" fill="#D9D9D9" stroke="url(#paint0_linear_149_797)"/>
</mask>
<g mask="url(#mask0_149_797)">
<path d="M6.349 236.819C30.8128 194.588 77.0223 127.766 183.576 109.324C304.264 88.435 516.284 187.906 657.631 138.191" stroke="url(#paint1_linear_149_797)"/>
<path d="M21.5709 238.423C43.3165 200.468 94.4187 130.974 205.865 118.144C328.343 104.045 567.386 180.689 657.631 129.37" stroke="url(#paint2_linear_149_797)"/>
<path d="M38.424 237.621C56.0825 207 92.0599 161.043 167.267 137.389C311.332 92.0782 555.97 181.491 658.175 120.55" stroke="url(#paint3_linear_149_797)"/>
<path d="M55.2768 236.819C69.2302 210.892 119.035 157.585 205.322 138.191C319.486 112.531 580.978 164.652 657.631 114.135" stroke="url(#paint4_linear_149_797)"/>
<path d="M70.4985 237.621C86.2641 215.169 125.732 169.623 216.194 147.813C329.272 120.55 564.125 161.445 657.631 106.918" stroke="url(#paint5_linear_149_797)"/>
<path d="M86.8079 237.621C105.835 216.505 134.105 183.186 217.825 157.435C332.534 122.154 573.367 155.03 657.631 98.8999" stroke="url(#paint6_linear_149_797)"/>
<path d="M105.835 238.423C110.728 234.413 149.87 187.906 222.175 167.859C324.379 132.578 551.077 155.03 657.631 90.8813" stroke="url(#paint7_linear_149_797)"/>
<path d="M126.494 238.423C141.264 225 171.422 198.247 222.742 178.5C310.269 144.822 546.728 147.813 657.631 85.2683" stroke="url(#paint8_linear_149_797)"/>
<path d="M144.434 239.225C162.736 223.722 213.802 189.189 271.646 175.076C343.95 157.435 571.736 130.974 657.631 78.0517" stroke="url(#paint9_linear_149_797)"/>
<path d="M166.723 238.423C174.153 230.404 221.684 199.5 265.122 185.5C331.545 164.093 587.501 123.757 657.631 69.2313" stroke="url(#paint10_linear_149_797)"/>
<path d="M187.381 238.423C200.429 229.335 227.611 209.94 262.947 196.726C301.546 182.293 590.763 118.144 658.174 62.8164" stroke="url(#paint11_linear_149_797)"/>
<path d="M209.127 238.423C221.631 230.137 254.575 210.678 286.324 199.132C326.01 184.698 548.359 132.578 658.175 56.4015" stroke="url(#paint12_linear_149_797)"/>
<path d="M231.416 239.225C241.383 232.542 270.558 214.254 310.57 199.5C360.585 181.057 589.132 110.928 657.631 49.1848" stroke="url(#paint13_linear_149_797)"/>
<path d="M255.88 237.621C263.491 232.275 287.693 218.726 312.157 207.5C343.758 192.999 597.287 103.711 658.175 42.77" stroke="url(#paint14_linear_149_797)"/>
<path d="M277.082 237.621C289.586 230.404 318.508 214.207 334.165 207.15C353.736 198.33 586.414 107.72 657.631 35.5533" stroke="url(#paint15_linear_149_797)"/>
<path d="M297.197 237.621C318.399 225.86 368.414 198.971 398.858 185.5C436.913 168.661 620.12 76.448 657.631 29.1385" stroke="url(#paint16_linear_149_797)"/>
<path d="M315.681 237.621C316.224 237.621 342.863 220.782 359.172 212.763C375.481 204.745 627.731 69.2313 657.631 23.5255" stroke="url(#paint17_linear_149_797)"/>
<path d="M332.534 238.423C357.903 223.722 413.971 190.953 435.282 177.482C461.92 160.643 632.623 53.1941 657.087 19.5162" stroke="url(#paint18_linear_149_797)"/>
<path d="M351.017 238.423C364.608 229.602 395.27 209.556 409.187 199.934C426.583 187.906 635.885 44.3737 657.087 12.2994" stroke="url(#paint19_linear_149_797)"/>
</g>
<defs>
<linearGradient id="paint0_linear_149_797" x1="88.391" y1="11.6859" x2="94.6429" y2="189.345" gradientUnits="userSpaceOnUse">
<stop stop-color="#254A48" stop-opacity="0.5"/>
<stop offset="1" stop-color="#A6CAC8" stop-opacity="0.5"/>
</linearGradient>
<linearGradient id="paint1_linear_149_797" x1="94.2383" y1="113.023" x2="96.2617" y2="213.85" gradientUnits="userSpaceOnUse">
<stop stop-color="#254A48" stop-opacity="0.5"/>
<stop offset="1" stop-color="#A6CAC8" stop-opacity="0.5"/>
</linearGradient>
<linearGradient id="paint2_linear_149_797" x1="107.406" y1="122.582" x2="109.22" y2="216.932" gradientUnits="userSpaceOnUse">
<stop stop-color="#254A48" stop-opacity="0.5"/>
<stop offset="1" stop-color="#A6CAC8" stop-opacity="0.5"/>
</linearGradient>
<linearGradient id="paint3_linear_149_797" x1="122.058" y1="126.498" x2="123.772" y2="217.007" gradientUnits="userSpaceOnUse">
<stop stop-color="#254A48" stop-opacity="0.5"/>
<stop offset="1" stop-color="#A6CAC8" stop-opacity="0.5"/>
</linearGradient>
<linearGradient id="paint4_linear_149_797" x1="136.563" y1="120.368" x2="138.499" y2="215.211" gradientUnits="userSpaceOnUse">
<stop stop-color="#254A48" stop-opacity="0.5"/>
<stop offset="1" stop-color="#A6CAC8" stop-opacity="0.5"/>
</linearGradient>
<linearGradient id="paint5_linear_149_797" x1="149.731" y1="113.559" x2="151.985" y2="214.593" gradientUnits="userSpaceOnUse">
<stop stop-color="#254A48" stop-opacity="0.5"/>
<stop offset="1" stop-color="#A6CAC8" stop-opacity="0.5"/>
</linearGradient>
<linearGradient id="paint6_linear_149_797" x1="163.839" y1="105.948" x2="166.451" y2="213.17" gradientUnits="userSpaceOnUse">
<stop stop-color="#254A48" stop-opacity="0.5"/>
<stop offset="1" stop-color="#A6CAC8" stop-opacity="0.5"/>
</linearGradient>
<linearGradient id="paint7_linear_149_797" x1="180.299" y1="98.3777" x2="183.355" y2="212.403" gradientUnits="userSpaceOnUse">
<stop stop-color="#254A48" stop-opacity="0.5"/>
<stop offset="1" stop-color="#A6CAC8" stop-opacity="0.5"/>
</linearGradient>
<linearGradient id="paint8_linear_149_797" x1="198.17" y1="93.0498" x2="201.59" y2="211.399" gradientUnits="userSpaceOnUse">
<stop stop-color="#254A48" stop-opacity="0.5"/>
<stop offset="1" stop-color="#A6CAC8" stop-opacity="0.5"/>
</linearGradient>
<linearGradient id="paint9_linear_149_797" x1="213.689" y1="86.2406" x2="217.608" y2="210.766" gradientUnits="userSpaceOnUse">
<stop stop-color="#254A48" stop-opacity="0.5"/>
<stop offset="1" stop-color="#A6CAC8" stop-opacity="0.5"/>
</linearGradient>
<linearGradient id="paint10_linear_149_797" x1="232.97" y1="77.8276" x2="237.484" y2="208.522" gradientUnits="userSpaceOnUse">
<stop stop-color="#254A48" stop-opacity="0.5"/>
<stop offset="1" stop-color="#A6CAC8" stop-opacity="0.5"/>
</linearGradient>
<linearGradient id="paint11_linear_149_797" x1="250.914" y1="71.7387" x2="255.984" y2="207.361" gradientUnits="userSpaceOnUse">
<stop stop-color="#254A48" stop-opacity="0.5"/>
<stop offset="1" stop-color="#A6CAC8" stop-opacity="0.5"/>
</linearGradient>
<linearGradient id="paint12_linear_149_797" x1="269.725" y1="65.6497" x2="275.434" y2="206.191" gradientUnits="userSpaceOnUse">
<stop stop-color="#254A48" stop-opacity="0.5"/>
<stop offset="1" stop-color="#A6CAC8" stop-opacity="0.5"/>
</linearGradient>
<linearGradient id="paint13_linear_149_797" x1="288.933" y1="58.8404" x2="295.488" y2="205.522" gradientUnits="userSpaceOnUse">
<stop stop-color="#254A48" stop-opacity="0.5"/>
<stop offset="1" stop-color="#A6CAC8" stop-opacity="0.5"/>
</linearGradient>
<linearGradient id="paint14_linear_149_797" x1="310.169" y1="52.6701" x2="317.467" y2="203.011" gradientUnits="userSpaceOnUse">
<stop stop-color="#254A48" stop-opacity="0.5"/>
<stop offset="1" stop-color="#A6CAC8" stop-opacity="0.5"/>
</linearGradient>
<linearGradient id="paint15_linear_149_797" x1="328.437" y1="45.82" x2="336.729" y2="201.655" gradientUnits="userSpaceOnUse">
<stop stop-color="#254A48" stop-opacity="0.5"/>
<stop offset="1" stop-color="#A6CAC8" stop-opacity="0.5"/>
</linearGradient>
<linearGradient id="paint16_linear_149_797" x1="345.837" y1="39.7311" x2="355.152" y2="200.429" gradientUnits="userSpaceOnUse">
<stop stop-color="#254A48" stop-opacity="0.5"/>
<stop offset="1" stop-color="#A6CAC8" stop-opacity="0.5"/>
</linearGradient>
<linearGradient id="paint17_linear_149_797" x1="361.826" y1="34.4033" x2="372.175" y2="199.333" gradientUnits="userSpaceOnUse">
<stop stop-color="#254A48" stop-opacity="0.5"/>
<stop offset="1" stop-color="#A6CAC8" stop-opacity="0.5"/>
</linearGradient>
<linearGradient id="paint18_linear_149_797" x1="376.331" y1="30.6384" x2="387.723" y2="199.168" gradientUnits="userSpaceOnUse">
<stop stop-color="#254A48" stop-opacity="0.5"/>
<stop offset="1" stop-color="#A6CAC8" stop-opacity="0.5"/>
</linearGradient>
<linearGradient id="paint19_linear_149_797" x1="392.321" y1="23.7884" x2="405.198" y2="197.716" gradientUnits="userSpaceOnUse">
<stop stop-color="#254A48" stop-opacity="0.5"/>
<stop offset="1" stop-color="#A6CAC8" stop-opacity="0.5"/>
</linearGradient>
</defs>
</svg>
