<svg width="137" height="97" viewBox="0 0 137 97" fill="none" xmlns="http://www.w3.org/2000/svg">
<path fill-rule="evenodd" clip-rule="evenodd" d="M76.1012 36.5148C73.7891 34.9699 71.0708 34.1453 68.29 34.1453V20.0854C73.8515 20.0854 79.2882 21.7346 83.9124 24.8245C88.5367 27.9143 92.1408 32.306 94.2692 37.4441C96.3974 42.5823 96.9543 48.2363 95.8693 53.691C94.7843 59.1456 92.1062 64.1561 88.1736 68.0887C84.241 72.0213 79.2305 74.6994 73.7759 75.7844C68.3212 76.8694 62.6672 76.3125 57.529 74.1843C52.3909 72.0559 47.9992 68.4518 44.9094 63.8275C41.8195 59.2033 40.1703 53.7666 40.1703 48.2051H54.2302C54.2302 50.9859 55.0548 53.7042 56.5997 56.0163C58.1446 58.3285 60.3404 60.1305 62.9096 61.1947C65.4786 62.2589 68.3056 62.5373 71.0329 61.9947C73.7603 61.4523 76.2654 60.1132 78.2319 58.147C80.1981 56.1805 81.5372 53.6754 82.0796 50.948C82.6222 48.2207 82.3438 45.3937 81.2796 42.8247C80.2154 40.2555 78.4134 38.0597 76.1012 36.5148Z" fill="white"/>
<path fill-rule="evenodd" clip-rule="evenodd" d="M54.2302 20.0855C54.2302 21.9318 53.8665 23.7601 53.1599 25.4659C52.4534 27.1717 51.4177 28.7217 50.1121 30.0273C48.8066 31.3328 47.2566 32.3685 45.5508 33.075C43.845 33.7816 42.0167 34.1453 40.1703 34.1453L40.1703 48.2051C43.8631 48.2051 47.5196 47.4778 50.9313 46.0646C54.3429 44.6515 57.4428 42.5802 60.0539 39.969C62.6651 37.358 64.7364 34.258 66.1495 30.8464C67.5627 27.4347 68.29 23.7782 68.29 20.0854L54.2302 20.0855Z" fill="white"/>
</svg>
