<svg width="137" height="97" viewBox="0 0 137 97" fill="none" xmlns="http://www.w3.org/2000/svg">
<path d="M102.034 25.1506C102.034 25.6417 101.836 26.1127 101.485 26.46C101.133 26.8073 100.656 27.0024 100.159 27.0024C99.6618 27.0024 99.185 26.8073 98.8334 26.46C98.4819 26.1127 98.2844 25.6417 98.2844 25.1506C98.2844 24.6595 98.4819 24.1885 98.8334 23.8412C99.185 23.4939 99.6618 23.2988 100.159 23.2988C100.656 23.2988 101.133 23.4939 101.485 23.8412C101.836 24.1885 102.034 24.6595 102.034 25.1506Z" fill="white"/>
<path fill-rule="evenodd" clip-rule="evenodd" d="M51.7309 73.6602C42.2402 73.6602 34.5467 66.0605 34.5467 56.6856V24.5337H40.7955V56.6856C40.7955 59.5505 41.9476 62.298 43.9984 64.3238C46.0492 66.3496 48.8307 67.4876 51.7309 67.4876C57.846 67.4876 62.6664 62.8323 62.6664 56.9399H68.9152V66.1988C68.9152 66.6081 69.0798 67.0006 69.3727 67.29C69.6657 67.5794 70.063 67.7419 70.4774 67.7419C70.8917 67.7419 71.289 67.5794 71.582 67.29C71.875 67.0006 72.0396 66.6081 72.0396 66.1988V55.2424C70.9046 55.4713 69.7323 55.4479 68.6075 55.174C67.4828 54.9 66.4339 54.3824 65.5366 53.6586C64.6394 52.9349 63.9164 52.023 63.42 50.9891C62.9235 49.9552 62.6661 48.8252 62.6664 47.681V32.2495C62.6664 30.2031 63.4893 28.2406 64.9541 26.7936C66.419 25.3466 68.4058 24.5337 70.4774 24.5337C72.549 24.5337 74.5357 25.3466 76.0006 26.7936C77.4654 28.2406 78.2884 30.2031 78.2884 32.2495V66.1988C78.2884 66.6081 78.453 67.0006 78.7459 67.29C79.0389 67.5794 79.4363 67.7419 79.8506 67.7419C80.2649 67.7419 80.6623 67.5794 80.9552 67.29C81.2482 67.0006 81.4128 66.6081 81.4128 66.1988V32.2495C81.4128 30.2031 82.2357 28.2406 83.7006 26.7936C85.1654 25.3466 87.1522 24.5337 89.2238 24.5337C91.2954 24.5337 93.2822 25.3466 94.747 26.7936C96.2119 28.2406 97.0348 30.2031 97.0348 32.2495V66.1988C97.0348 67.6317 96.6309 69.0363 95.8683 70.2552C95.1056 71.4741 94.0145 72.4592 92.717 73.1C91.4195 73.7408 89.9671 74.0121 88.5223 73.8834C87.0776 73.7547 85.6977 73.2311 84.5372 72.3714C83.1863 73.3753 81.5411 73.9171 79.8506 73.9146C78.1601 73.9171 76.5148 73.3753 75.164 72.3714C74.2239 73.0678 73.1368 73.5457 71.9838 73.7696C70.8308 73.9935 69.6415 73.9576 68.5045 73.6645C67.3675 73.3715 66.3121 72.8288 65.4168 72.077C64.5215 71.3251 63.8095 70.3835 63.3337 69.3221C60.2643 72.0344 56.1813 73.6602 51.7309 73.6602ZM89.2238 67.7419C88.3615 67.7419 87.6616 67.0506 87.6616 66.1988V32.2495C87.6616 31.8402 87.8262 31.4477 88.1192 31.1583C88.4121 30.8689 88.8095 30.7063 89.2238 30.7063C89.6381 30.7063 90.0355 30.8689 90.3285 31.1583C90.6214 31.4477 90.786 31.8402 90.786 32.2495V66.1988C90.786 67.0506 90.0861 67.7419 89.2238 67.7419ZM72.0396 47.681C72.0396 48.0902 71.875 48.4827 71.582 48.7721C71.289 49.0615 70.8917 49.2241 70.4774 49.2241C70.063 49.2241 69.6657 49.0615 69.3727 48.7721C69.0798 48.4827 68.9152 48.0902 68.9152 47.681V32.2495C68.9152 31.8402 69.0798 31.4477 69.3727 31.1583C69.6657 30.8689 70.063 30.7063 70.4774 30.7063C70.8917 30.7063 71.289 30.8689 71.582 31.1583C71.875 31.4477 72.0396 31.8402 72.0396 32.2495V47.681Z" fill="white"/>
<path fill-rule="evenodd" clip-rule="evenodd" d="M43.9206 56.9399C43.9206 58.9862 44.7435 60.9488 46.2084 62.3958C47.6732 63.8427 49.66 64.6556 51.7316 64.6556C53.8032 64.6556 55.79 63.8427 57.2548 62.3958C58.7197 60.9488 59.5426 58.9862 59.5426 56.9399V32.2495C59.5426 30.2031 58.7197 28.2406 57.2548 26.7936C55.79 25.3466 53.8032 24.5337 51.7316 24.5337C49.66 24.5337 47.6732 25.3466 46.2084 26.7936C44.7435 28.2406 43.9206 30.2031 43.9206 32.2495V56.9399ZM51.7316 58.483C50.8693 58.483 50.1694 57.7917 50.1694 56.9399V32.2495C50.1694 31.8402 50.334 31.4477 50.627 31.1583C50.9199 30.8689 51.3173 30.7063 51.7316 30.7063C52.1459 30.7063 52.5433 30.8689 52.8363 31.1583C53.1292 31.4477 53.2938 31.8402 53.2938 32.2495V56.9399C53.2938 57.7917 52.5939 58.483 51.7316 58.483Z" fill="white"/>
</svg>
