<svg width="137" height="97" viewBox="0 0 137 97" fill="none" xmlns="http://www.w3.org/2000/svg">
<path d="M101.227 74.5317C102.401 74.5317 103.037 75.4216 103.037 76.5225V78.6115H102.25V76.6522C102.25 75.932 101.902 75.3004 101.172 75.3004C100.466 75.3004 100.109 75.9066 100.109 76.6365V78.6115H99.324V76.6353C99.324 75.9078 98.9676 75.3004 98.244 75.3004C97.5145 75.3004 97.1889 75.9308 97.1889 76.6522V78.6115H96.4047V76.531C96.4047 75.4216 97.0226 74.5305 98.1893 74.5305C98.9664 74.5305 99.5296 74.9354 99.728 75.5513C99.9419 74.9354 100.49 74.5317 101.227 74.5317ZM93.6411 77.9313C94.3623 77.9313 94.7591 77.2912 94.7591 76.5552V74.6444H95.5445V76.6522C95.5445 77.8016 94.8625 78.7085 93.6411 78.7085C92.4351 78.7085 91.7519 77.7931 91.7519 76.6437V74.6444H92.5373V76.5637C92.5373 77.2912 92.927 77.9313 93.6411 77.9313ZM89.5372 78.7C88.8148 78.7 88.2599 78.409 87.9569 77.8186L88.5605 77.4791C88.7589 77.8744 89.0762 78.0211 89.5051 78.0211C89.9495 78.0211 90.2905 77.8344 90.2905 77.4864C90.2905 76.6522 88.0615 77.2839 88.0615 75.7696C88.0615 75.0736 88.6639 74.5632 89.5134 74.5632C90.2346 74.5632 90.7265 74.9027 90.9725 75.3646L90.3701 75.7138C90.2037 75.3646 89.8865 75.2434 89.5289 75.2434C89.1641 75.2434 88.8469 75.4374 88.8469 75.7526C88.8469 76.5637 91.0759 75.9721 91.0759 77.4694C91.0759 78.2223 90.363 78.7 89.5372 78.7ZM84.1442 80.4326H83.3576V76.6195C83.3576 75.4374 84.2547 74.5462 85.4286 74.5462C85.698 74.5421 85.9655 74.5926 86.2156 74.6949C86.4656 74.7972 86.6933 74.9493 86.8852 75.1422C87.0772 75.3352 87.2296 75.5651 87.3336 75.8187C87.4377 76.0724 87.4912 76.3446 87.4912 76.6195C87.4912 77.8186 86.6428 78.7085 85.4594 78.7085C84.9367 78.7085 84.4614 78.4733 84.143 78.1181V80.4338L84.1442 80.4326ZM85.4286 77.9556C86.1509 77.9556 86.7058 77.3494 86.7058 76.628C86.7058 75.8993 86.1509 75.3089 85.4286 75.3089C84.699 75.3089 84.1442 75.8993 84.1442 76.628C84.1442 77.3482 84.699 77.9556 85.4286 77.9556ZM81.5314 74.6444H82.3156V78.6115H81.5314V74.6444ZM92.1262 71.0241C86.1248 71.0241 81.5469 66.3138 81.5469 60.5814C81.5469 54.8903 86.1248 50.1788 92.1262 50.1788C98.1264 50.1788 102.706 54.8903 102.706 60.5814C102.706 66.3138 98.1275 71.0241 92.1262 71.0241ZM92.1262 64.3897C94.3183 64.3897 95.7809 62.662 95.7809 60.6215C95.7809 58.5409 94.3195 56.8132 92.1262 56.8132C89.9328 56.8132 88.4714 58.5409 88.4714 60.6202C88.4714 62.662 89.9328 64.3897 92.1262 64.3897ZM68.4712 80.0531C63.7008 80.0531 60.2373 77.895 58.4681 74.0467L64.201 70.9065C64.8164 72.2402 65.9713 73.6151 68.356 73.6151C70.8558 73.6151 72.5109 72.005 72.7034 69.1788C71.779 70.0033 70.3176 70.6313 68.1255 70.6313C62.7776 70.6313 58.4681 66.4314 58.4681 60.5426C58.4681 54.8503 63.0473 50.2188 69.0487 50.2188C75.2033 50.2188 79.628 54.5763 79.628 60.5814V68.3543C79.628 75.4204 74.8183 80.0531 68.4712 80.0531ZM68.9322 63.9969C71.0103 63.9969 72.587 62.5444 72.587 60.385C72.587 58.2657 71.0103 56.852 68.9322 56.852C66.8933 56.852 65.2786 58.2657 65.2786 60.385C65.2786 62.5444 66.8945 63.9969 68.9322 63.9969ZM46.722 71.0241C40.7207 71.0241 36.1427 66.3138 36.1427 60.5814C36.1427 54.8903 40.7207 50.1788 46.722 50.1788C52.7222 50.1788 57.3014 54.8903 57.3014 60.5814C57.3014 66.3138 52.7234 71.0241 46.722 71.0241ZM46.722 64.3897C48.9142 64.3897 50.3768 62.662 50.3768 60.6215C50.3768 58.5409 48.9154 56.8132 46.722 56.8132C44.5287 56.8132 43.0673 58.5409 43.0673 60.6202C43.0673 62.662 44.5287 64.3897 46.722 64.3897ZM26.5127 41.7778H33.4373V70.4349H26.5127V41.7778ZM110.556 52.5867C110.556 53.2298 110.305 53.8466 109.86 54.3013C109.414 54.7561 108.81 55.0115 108.179 55.0115C107.549 55.0115 106.945 54.7561 106.499 54.3013C106.053 53.8466 105.803 53.2298 105.803 52.5867C105.803 51.9436 106.053 51.3268 106.499 50.872C106.945 50.4173 107.549 50.1618 108.179 50.1618C108.81 50.1618 109.414 50.4173 109.86 50.872C110.305 51.3268 110.556 51.9436 110.556 52.5867Z" fill="white"/>
<path fill-rule="evenodd" clip-rule="evenodd" d="M91.6124 25.3762C98.4399 32.3432 102.508 41.6359 103.038 51.4738C101.02 49.0647 98.2801 47.4025 95.2422 46.7454C93.8578 40.2168 90.5494 34.2766 85.761 29.7222C80.9726 25.1678 74.9335 22.2171 68.4542 21.2662C61.975 20.3154 55.3657 21.4099 49.5137 24.4028C43.6616 27.3958 38.8468 32.1439 35.7157 38.0098H27.8037C30.3149 31.9838 34.237 26.6788 39.226 22.5604C44.2149 18.442 50.1182 15.636 56.4178 14.3888C62.7174 13.1415 69.2207 13.4911 75.357 15.4068C81.4933 17.3225 87.0751 20.7458 91.6124 25.3762Z" fill="white"/>
<path fill-rule="evenodd" clip-rule="evenodd" d="M87.9703 47.0154C85.4972 47.7525 83.2698 49.1679 81.5305 51.1074C80.9838 47.1853 79.197 43.5526 76.4418 40.7617C73.6865 37.9707 70.1136 36.1741 66.2661 35.645C62.4187 35.1159 58.5071 35.8832 55.1261 37.8303C51.7452 39.7774 49.0797 42.7978 47.535 46.4323C47.2643 46.4175 46.9933 46.4103 46.7223 46.4104C44.0644 46.4104 41.593 47.1209 39.4829 48.3588C40.6496 42.7716 43.6237 37.7472 47.9271 34.0933C52.2304 30.4395 57.6129 28.3685 63.209 28.2135C68.8052 28.0584 74.2899 29.8283 78.7811 33.2385C83.2724 36.6487 86.5094 41.5011 87.9715 47.0154H87.9703Z" fill="white"/>
</svg>
