<svg width="137" height="97" viewBox="0 0 137 97" fill="none" xmlns="http://www.w3.org/2000/svg">
<path d="M102.035 48.205C102.035 66.8411 86.9273 81.9486 68.2912 81.9486C49.6551 81.9486 34.5476 66.8411 34.5476 48.205C34.5476 29.5689 49.6551 14.4614 68.2912 14.4614C86.9273 14.4614 102.035 29.5689 102.035 48.205Z" fill="white"/>
<path d="M93.3564 56.8213C94.496 56.8213 95.3065 57.9288 94.8779 58.9846C90.6173 69.4836 80.3184 76.8875 68.2903 76.8875C56.2622 76.8875 45.9633 69.4836 41.7026 58.9846C41.2741 57.9288 42.0846 56.8213 43.2242 56.8213H93.3564Z" fill="#00A79E"/>
<path d="M94.8779 37.4258C95.3065 38.4817 94.4959 39.5892 93.3564 39.5892H43.2242C42.0846 39.5892 41.2741 38.4817 41.7026 37.4258C45.9633 26.9269 56.2622 19.5229 68.2902 19.5229C80.3184 19.5229 90.6172 26.9269 94.8779 37.4258Z" fill="#00A79E"/>
<path d="M93.4607 45.8008C95.3564 45.8008 96.2712 47.1234 96.2712 48.6553V51.532H94.2873V48.9971C94.2873 48.3027 94.0338 47.7296 93.3064 47.7296C92.579 47.7296 92.3365 48.3027 92.3365 48.9971V51.532H90.3526V48.9971C90.3526 48.3027 90.1102 47.7296 89.3828 47.7296C88.6553 47.7296 88.4018 48.3027 88.4018 48.9971V51.532H86.418V48.6553C86.418 47.1234 87.3328 45.8008 89.2285 45.8008C90.2645 45.8008 91.0139 46.2086 91.3556 46.8809C91.7193 46.2086 92.5129 45.8008 93.4607 45.8008Z" fill="#00A79E"/>
<path d="M82.853 49.7688C83.4923 49.7688 83.7678 49.1847 83.7678 48.4903V46.0215H85.7516V48.7328C85.7516 50.3529 84.8038 51.6976 82.853 51.6976C80.9022 51.6976 79.9544 50.3529 79.9544 48.7328V46.0215H81.9382V48.4903C81.9382 49.1847 82.2138 49.7688 82.853 49.7688Z" fill="#00A79E"/>
<path d="M77.0383 51.7086C75.7929 51.7086 74.9883 51.2788 74.5145 50.4412L75.9472 49.6366C76.1456 49.9893 76.4432 50.1656 76.9391 50.1656C77.3469 50.1656 77.5343 50.0223 77.5343 49.846C77.5343 49.1737 74.6246 49.857 74.6246 47.7188C74.6246 46.6828 75.5064 45.8452 77.0052 45.8452C78.3169 45.8452 79.0332 46.4844 79.3529 47.1017L77.92 47.9172C77.7988 47.5866 77.4241 47.3882 77.0494 47.3882C76.7628 47.3882 76.6085 47.5094 76.6085 47.6748C76.6085 48.3581 79.5181 47.7299 79.5181 49.8019C79.5181 50.9591 78.383 51.7086 77.0383 51.7086Z" fill="#00A79E"/>
<path d="M70.107 54.067H68.1231V48.7657C68.1231 47.0794 69.3906 45.856 71.154 45.856C72.8734 45.856 74.1849 47.1676 74.1849 48.7657C74.1849 50.5291 73.0167 51.6974 71.2642 51.6974C70.8564 51.6974 70.4486 51.5762 70.107 51.3887V54.067ZM71.154 49.8348C71.7823 49.8348 72.201 49.3498 72.201 48.7767C72.201 48.1925 71.7823 47.7186 71.154 47.7186C70.5258 47.7186 70.107 48.1925 70.107 48.7767C70.107 49.3498 70.5258 49.8348 71.154 49.8348Z" fill="#00A79E"/>
<path d="M66.1357 45.4373C65.4855 45.4373 64.9454 44.8973 64.9454 44.247C64.9454 43.5967 65.4855 43.0566 66.1357 43.0566C66.7861 43.0566 67.3261 43.5967 67.3261 44.247C67.3261 44.8973 66.7861 45.4373 66.1357 45.4373ZM65.1438 46.0214H67.1277V51.5322H65.1438V46.0214Z" fill="#00A79E"/>
<path d="M61.3374 51.6976C59.6181 51.6976 58.3065 50.375 58.3065 48.7659C58.3065 47.1678 59.6181 45.8452 61.3374 45.8452C63.0567 45.8452 64.3683 47.1678 64.3683 48.7659C64.3683 50.375 63.0567 51.6976 61.3374 51.6976ZM61.3374 49.835C61.9656 49.835 62.3845 49.35 62.3845 48.7769C62.3845 48.1928 61.9656 47.7079 61.3374 47.7079C60.7092 47.7079 60.2903 48.1928 60.2903 48.7769C60.2903 49.35 60.7092 49.835 61.3374 49.835Z" fill="#00A79E"/>
<path d="M54.5598 54.2323C53.1931 54.2323 52.2012 53.6261 51.6942 52.546L53.3364 51.6643C53.5127 52.039 53.8434 52.4248 54.5267 52.4248C55.2431 52.4248 55.717 51.9729 55.7721 51.1793C55.5077 51.4108 55.0888 51.5871 54.4606 51.5871C52.9286 51.5871 51.6942 50.4079 51.6942 48.7546C51.6942 47.1565 53.0057 45.856 54.7251 45.856C56.4885 45.856 57.756 47.0794 57.756 48.7657V50.948C57.756 52.9317 56.3783 54.2323 54.5598 54.2323ZM54.6921 49.7245C55.2872 49.7245 55.7391 49.3167 55.7391 48.7106C55.7391 48.1154 55.2872 47.7186 54.6921 47.7186C54.1079 47.7186 53.645 48.1154 53.645 48.7106C53.645 49.3167 54.1079 49.7245 54.6921 49.7245Z" fill="#00A79E"/>
<path d="M48.3294 51.6976C46.6101 51.6976 45.2985 50.375 45.2985 48.7659C45.2985 47.1678 46.6101 45.8452 48.3294 45.8452C50.0487 45.8452 51.3603 47.1678 51.3603 48.7659C51.3603 50.375 50.0487 51.6976 48.3294 51.6976ZM48.3294 49.835C48.9576 49.835 49.3765 49.35 49.3765 48.7769C49.3765 48.1928 48.9576 47.7079 48.3294 47.7079C47.7012 47.7079 47.2823 48.1928 47.2823 48.7769C47.2823 49.35 47.7012 49.835 48.3294 49.835Z" fill="#00A79E"/>
<path d="M41.6861 44.0928V49.6586H44.9705V51.5322H41.4106C40.1541 51.5322 39.6472 50.8709 39.6472 49.8239V44.0928H41.6861Z" fill="#00A79E"/>
<path d="M63.2298 19.9681C64.8729 19.6756 66.5643 19.5229 68.2914 19.5229C70.0185 19.5229 71.7099 19.6756 73.3529 19.9681V39.5892H63.2298V19.9681Z" fill="#00A79E"/>
<path d="M73.3529 56.8213H63.2289C63.2076 61.2231 62.4056 65.5866 60.8597 69.7091L58.774 75.2709C61.752 76.318 64.9549 76.8875 68.2909 76.8875C71.6268 76.8875 74.8298 76.318 77.8077 75.2709L75.722 69.7091C74.1761 65.5866 73.3741 61.2231 73.3529 56.8213Z" fill="#00A79E"/>
<path d="M73.3524 19.9678C77.0143 20.6198 80.4358 21.9667 83.4755 23.8673V39.5888H73.3524V19.9678Z" fill="#00A79E"/>
<path d="M77.8081 75.2709C82.4119 73.6521 86.4782 70.8919 89.6671 67.33L89.1695 67.0133C85.674 64.7888 83.5375 60.9561 83.4772 56.8213H73.3533C73.3745 61.2231 74.1765 65.5866 75.7225 69.7091L77.8081 75.2709Z" fill="#00A79E"/>
<path d="M53.1055 23.8673C56.1452 21.9667 59.5667 20.6198 63.2286 19.9678V39.5888H53.1055V23.8673Z" fill="#00A79E"/>
<path d="M53.1044 56.8213H63.2283C63.2071 61.2042 62.4119 65.5493 60.8789 69.6563L58.7735 75.2709C54.1696 73.6521 50.1034 70.8919 46.9144 67.33L47.412 67.0133C50.9075 64.7888 53.0441 60.9561 53.1044 56.8213Z" fill="#00A79E"/>
</svg>
