<svg width="137" height="97" viewBox="0 0 137 97" fill="none" xmlns="http://www.w3.org/2000/svg">
<path d="M96.4303 59.2137C89.88 59.2137 84.8814 54.0991 84.8814 47.8585C84.8814 41.6608 89.9237 36.5472 96.4303 36.5472C103.024 36.5472 108.023 41.7047 108.023 47.8585C108.023 54.0991 102.981 59.2127 96.4303 59.2127V59.2137ZM96.4303 53.4484C99.5771 53.4484 101.904 50.9355 101.904 47.9024C101.904 44.8683 99.5771 42.3543 96.4303 42.3543C93.2845 42.3543 91.0006 44.8683 91.0006 47.9014C91.0006 50.9355 93.2845 53.4484 96.4303 53.4484ZM70.4506 69.0942C65.4519 69.0942 61.6165 66.8841 59.6775 62.8965L64.7623 60.1235C65.7105 61.9867 67.4771 63.4604 70.3643 63.4604C73.9848 63.4604 76.44 60.9036 76.44 56.6998V56.3091C75.2768 57.7829 73.209 58.9098 70.1919 58.9098C64.2015 58.9098 59.4189 54.2297 59.4189 47.8585C59.4189 41.6608 64.4175 36.5911 70.9678 36.5911C77.6468 36.5911 82.5602 41.4007 82.5602 47.8585V56.5264C82.5602 64.154 77.3882 69.0942 70.4506 69.0942ZM70.8816 53.1027C73.9412 53.1027 76.3548 50.8049 76.3548 47.729C76.3548 44.6511 73.9412 42.3982 70.8816 42.3982C67.8645 42.3982 65.4519 44.6521 65.4519 47.729C65.4519 50.806 67.8645 53.1027 70.8816 53.1027ZM46.5573 59.2137C40.0071 59.2137 35.0085 54.0991 35.0085 47.8585C35.0085 41.6608 40.0497 36.5472 46.5573 36.5472C53.1501 36.5472 58.1498 41.7047 58.1498 47.8585C58.1498 54.0991 53.1075 59.2127 46.5573 59.2127V59.2137ZM46.5573 53.4484C49.7031 53.4484 52.0305 50.9355 52.0305 47.9024C52.0305 44.8683 49.7031 42.3543 46.5573 42.3543C43.4104 42.3543 41.1277 44.8683 41.1277 47.9014C41.1277 50.9355 43.4115 53.4484 46.5573 53.4484ZM25.7091 27.3164H31.8284V58.6497H25.7091V27.3164ZM110.872 34.1053C110.872 34.7978 110.598 35.462 110.111 35.9516C109.624 36.4413 108.964 36.7164 108.275 36.7164C107.587 36.7164 106.926 36.4413 106.439 35.9516C105.952 35.462 105.679 34.7978 105.679 34.1053C105.679 33.4128 105.952 32.7486 106.439 32.259C106.926 31.7693 107.587 31.4942 108.275 31.4942C108.964 31.4942 109.624 31.7693 110.111 32.259C110.598 32.7486 110.872 33.4128 110.872 34.1053Z" fill="white"/>
</svg>
