<svg width="137" height="97" viewBox="0 0 137 97" fill="none" xmlns="http://www.w3.org/2000/svg">
<path d="M53.3134 44.7521L54.6518 40.3652L44.6123 50.4203C45.8986 53.4787 47.7701 56.2912 50.1573 58.6821C50.1573 58.6821 51.0396 53.9717 55.6541 50.0633C56.4833 49.3609 55.9906 47.5719 54.5425 47.2584C53.5372 46.8781 52.9994 45.7814 53.3134 44.7521Z" fill="white"/>
<path d="M81.8454 51.323C83.1185 52.5959 84.1885 54.0186 85.0438 55.5694C85.0317 55.5078 85.0172 55.4474 84.9987 55.3894C84.0821 52.521 84.1368 50.0351 84.6851 48.6542C84.8795 48.1649 84.6488 47.6107 84.1629 47.4097L81.7299 46.4033C81.4194 46.2749 81.3123 45.8887 81.5119 45.6183L81.6862 45.3819C82.2649 44.5977 82.536 43.6279 82.4478 42.6569L82.2398 40.3652L76.5676 46.0461L81.8454 51.323Z" fill="white"/>
<path d="M68.4449 14.4614C65.23 14.4614 62.0753 15.0618 59.1313 16.2001H77.7587C74.8147 15.0618 71.6598 14.4614 68.4449 14.4614Z" fill="white"/>
<path d="M84.262 28.2651H91.3125C91.6107 28.8306 91.8876 29.4067 92.143 29.992H83.8691C84.063 29.4418 84.1964 28.8636 84.262 28.2651ZM68.8372 28.2651H45.5787C45.2805 28.8306 45.0036 29.4067 44.7482 29.992H69.2301C69.0363 29.4418 68.9027 28.8636 68.8372 28.2651Z" fill="white"/>
<path d="M92.8243 31.7188H83.0055C81.613 33.8065 79.2389 35.1842 76.5493 35.1842C73.8597 35.1842 71.4858 33.8065 70.0931 31.7188H44.0664C43.0932 34.4704 42.5813 37.3919 42.5813 40.365C42.5813 43.2081 43.05 46.0036 43.9416 48.6489L53.4319 39.1439L54.6512 37.9228L61.5435 44.8258L67.227 39.143L68.4453 37.9249L69.6636 39.143L75.347 44.8258L82.2394 37.9228L92.9488 48.6488C93.8406 46.0036 94.3093 43.2081 94.3093 40.3649C94.3093 37.3919 93.7973 34.4704 92.8243 31.7188Z" fill="white"/>
<path d="M81.3648 17.9272H55.5268C54.6356 18.4418 53.7734 19.01 52.9454 19.6307H83.946C83.1182 19.01 82.256 18.4418 81.3648 17.9272Z" fill="white"/>
<path d="M83.8602 24.811H89.1252C89.5455 25.3717 89.9433 25.9474 90.3154 26.5379H84.2586C84.1914 25.9393 84.056 25.361 83.8602 24.811ZM69.2377 24.811H47.7647C47.3444 25.3717 46.9466 25.9474 46.5746 26.5379H68.8394C68.9066 25.9393 69.0421 25.361 69.2377 24.811Z" fill="white"/>
<path d="M81.4058 21.3569H86.014C86.2576 21.5828 86.4983 21.8122 86.734 22.0481C87.0702 22.385 87.3952 22.7309 87.7109 23.0839H82.9902C82.5515 22.4313 82.0163 21.8489 81.4058 21.3569ZM71.693 21.3569H50.8768C50.6331 21.5828 50.3924 21.8122 50.1568 22.0481C49.8206 22.385 49.4955 22.7309 49.1798 23.0839H70.1088C70.5475 22.4313 71.0825 21.8489 71.693 21.3569Z" fill="white"/>
<path d="M76.5491 33.4579C79.882 33.4579 82.5839 30.7519 82.5839 27.4138C82.5839 24.0757 79.882 21.3696 76.5491 21.3696C73.2159 21.3696 70.514 24.0757 70.514 27.4138C70.514 30.7519 73.2159 33.4579 76.5491 33.4579Z" fill="white"/>
<path d="M75.9049 80.2544H60.9845C65.6872 82.5129 71.2024 82.5129 75.9049 80.2544Z" fill="white"/>
<path d="M51.3035 63.0088C51.2471 63.575 51.2181 64.1438 51.2178 64.7123H59.0993C59.1135 64.1338 59.1809 63.5642 59.2979 63.0088H51.3035Z" fill="white"/>
<path d="M72.5267 73.3472C71.2708 73.9566 69.8833 74.2787 68.4453 74.2787C67.0075 74.2787 65.6199 73.9564 64.3639 73.3472H53.5282C53.8715 73.94 54.2532 74.5169 54.6732 75.074H82.2175C82.6374 74.5167 83.0192 73.94 83.3625 73.3472H72.5267Z" fill="white"/>
<path d="M56.1626 76.8008C56.1966 76.8352 56.2296 76.8703 56.2639 76.9045C56.8578 77.4984 57.4848 78.0387 58.138 78.5276H78.7526C79.4059 78.0387 80.0329 77.4984 80.6269 76.9045C80.6613 76.8703 80.6941 76.8352 80.7281 76.8008H56.1626Z" fill="white"/>
<path d="M59.8435 61.282C60.3052 60.2024 60.9737 59.2098 61.8294 58.3543L68.4453 51.7394L75.0612 58.3543C75.917 59.2098 76.5854 60.2026 77.0471 61.282H85.3257C84.6756 58.0805 83.1102 55.028 80.6269 52.5452L68.4453 40.3652L56.2639 52.5452C53.7807 55.028 52.2151 58.0806 51.5651 61.282H59.8435Z" fill="white"/>
<path d="M77.5922 63.0088C77.7091 63.5642 77.7765 64.1338 77.7906 64.7123H85.6721C85.6718 64.1438 85.6428 63.575 85.5864 63.0088H77.5922Z" fill="white"/>
<path d="M59.6661 68.1663C59.4614 67.609 59.3104 67.0313 59.2157 66.4395H51.3037C51.3612 67.0182 51.4487 67.5947 51.5646 68.1663H59.6661Z" fill="white"/>
<path d="M76.3756 69.8931C76.005 70.4826 75.5655 71.0351 75.0606 71.5398C75.0335 71.5668 75.0059 71.5932 74.9784 71.6199H84.2362C84.4832 71.0538 84.6975 70.4772 84.8807 69.8931H76.3756Z" fill="white"/>
<path d="M77.6748 66.4395C77.58 67.0313 77.429 67.6092 77.2244 68.1663H85.3259C85.442 67.5947 85.5292 67.0182 85.5868 66.4395H77.6748Z" fill="white"/>
<path d="M61.9117 71.6201C61.8843 71.5934 61.8567 71.5669 61.8295 71.5398C61.3248 71.0351 60.8853 70.4827 60.5147 69.8931H52.0094C52.1926 70.4775 52.407 71.054 52.654 71.6201H61.9117Z" fill="white"/>
</svg>
